{"glyphs":{"":{"ha":1389,"x_min":-16,"x_max":1405,"o":"m 1362 1058 l 781 477 l 781 -43 l 933 -43 q 1010 -75 979 -43 q 1042 -152 1042 -106 q 1020 -174 1042 -174 l 369 -174 q 347 -152 347 -174 q 378 -75 347 -106 q 456 -43 410 -43 l 608 -43 l 608 477 l 27 1058 q 7 1158 -16 1101 q 92 1215 30 1215 l 1297 1215 q 1382 1158 1359 1215 q 1362 1058 1405 1101 z "},"":{"ha":1389,"x_min":0,"x_max":1389,"o":"m 1389 1128 l 1389 174 q 1313 50 1389 100 q 1128 0 1237 0 q 944 50 1020 0 q 868 174 868 100 q 944 297 868 247 q 1128 347 1020 347 q 1215 336 1169 347 l 1215 838 l 521 635 l 521 0 q 445 -123 521 -73 q 260 -174 369 -174 q 76 -123 152 -174 q 0 0 0 -73 q 76 123 0 73 q 260 174 152 174 q 347 163 301 174 l 347 873 q 407 955 347 936 l 1275 1210 q 1354 1198 1318 1223 q 1389 1128 1389 1172 z "},"":{"ha":1389,"x_min":0,"x_max":1389,"o":"m 1370 14 q 1389 -33 1389 -5 q 1370 -79 1389 -60 l 1294 -155 q 1248 -174 1275 -174 q 1202 -155 1221 -174 l 930 117 q 911 163 911 136 l 911 206 q 564 87 760 87 q 165 252 331 87 q 0 651 0 418 q 165 1050 0 884 q 564 1215 331 1215 q 963 1050 798 1215 q 1128 651 1128 884 q 1009 304 1128 456 l 1053 304 q 1099 285 1080 304 l 1370 14 m 319 406 q 370 355 319 406 q 564 304 420 304 q 810 406 708 304 q 911 651 911 507 q 810 897 911 795 q 564 998 708 998 q 319 897 420 998 q 217 651 217 795 q 319 406 217 507 z "},"":{"ha":1389,"x_min":-8,"x_max":1397,"o":"m 1253 1044 q 1389 768 1381 936 q 1280 483 1397 600 l 757 -60 q 694 -87 730 -87 q 632 -60 659 -87 l 109 483 q 0 768 -8 600 q 136 1044 8 936 q 392 1127 247 1139 q 640 1009 537 1115 l 694 955 l 749 1009 q 997 1127 852 1115 q 1253 1044 1142 1139 z "},"":{"ha":1563,"x_min":41,"x_max":1522,"o":"m 703 1166 q 781 1215 727 1215 q 860 1166 836 1215 l 1036 808 l 1432 749 q 1503 692 1487 743 q 1481 602 1519 640 l 1194 323 l 1261 -73 q 1226 -156 1270 -125 q 1137 -163 1183 -187 l 781 22 l 426 -163 q 336 -157 380 -190 q 301 -73 293 -125 l 369 323 l 81 602 q 60 692 43 640 q 130 749 76 743 l 526 808 l 703 1166 z "},"":{"ha":1215,"x_min":0,"x_max":1215,"o":"m 853 623 q 802 572 853 623 q 608 521 751 521 q 362 623 464 521 q 260 868 260 724 q 362 1114 260 1012 q 608 1215 464 1215 q 853 1114 751 1215 q 955 868 955 1012 q 853 623 955 724 m 852 434 q 1108 327 1001 434 q 1215 71 1215 220 l 1215 -43 q 1177 -136 1215 -98 q 1085 -174 1139 -174 l 130 -174 q 38 -136 76 -174 q 0 -43 0 -98 l 0 71 q 107 327 0 220 q 363 434 214 434 l 410 434 q 608 391 505 391 q 806 434 711 391 l 852 434 z "},"":{"ha":1389,"x_min":0,"x_max":1389,"o":"m 1324 1042 q 1370 1023 1351 1042 q 1389 977 1389 1004 l 1389 65 q 1370 19 1389 38 q 1324 0 1351 0 l 1302 0 l 1302 54 q 1270 87 1302 87 l 1161 87 q 1128 54 1128 87 l 1128 0 l 260 0 l 260 54 q 228 87 260 87 l 119 87 q 87 54 87 87 l 87 0 l 65 0 q 19 19 38 0 q 0 65 0 38 l 0 977 q 19 1023 0 1004 q 65 1042 38 1042 l 87 1042 l 87 987 q 119 955 87 955 l 228 955 q 260 987 260 955 l 260 1042 l 1128 1042 l 1128 987 q 1161 955 1128 955 l 1270 955 q 1302 987 1302 955 l 1302 1042 l 1324 1042 m 260 206 l 260 315 q 228 347 260 347 l 119 347 q 87 315 87 347 l 87 206 q 119 174 87 174 l 228 174 q 260 206 260 174 m 260 467 l 260 575 q 228 608 260 608 l 119 608 q 87 575 87 608 l 87 467 q 119 434 87 434 l 228 434 q 260 467 260 434 m 260 727 l 260 836 q 228 868 260 868 l 119 868 q 87 836 87 868 l 87 727 q 119 694 87 694 l 228 694 q 260 727 260 694 m 998 163 l 998 423 q 966 456 998 456 l 423 456 q 391 423 391 456 l 391 163 q 423 130 391 130 l 966 130 q 998 163 998 130 m 998 618 l 998 879 q 966 911 998 911 l 423 911 q 391 879 391 911 l 391 618 q 423 586 391 586 l 966 586 q 998 618 998 586 m 1302 206 l 1302 315 q 1270 347 1302 347 l 1161 347 q 1128 315 1128 347 l 1128 206 q 1161 174 1128 174 l 1270 174 q 1302 206 1302 174 m 1302 467 l 1302 575 q 1270 608 1302 608 l 1161 608 q 1128 575 1128 608 l 1128 467 q 1161 434 1128 434 l 1270 434 q 1302 467 1302 434 m 1302 727 l 1302 836 q 1270 868 1302 868 l 1161 868 q 1128 836 1128 868 l 1128 727 q 1161 694 1128 694 l 1270 694 q 1302 727 1302 694 z "},"":{"ha":1389,"x_min":0,"x_max":1389,"o":"m 803 1128 l 1324 1128 q 1370 1109 1351 1128 q 1389 1063 1389 1090 l 1389 629 q 1370 583 1389 602 q 1324 564 1351 564 l 803 564 q 757 583 776 564 q 738 629 738 602 l 738 1063 q 757 1109 738 1090 q 803 1128 776 1128 m 586 1128 q 632 1109 613 1128 q 651 1063 651 1090 l 651 629 q 632 583 651 602 q 586 564 613 564 l 65 564 q 19 583 38 564 q 0 629 0 602 l 0 1063 q 19 1109 0 1090 q 65 1128 38 1128 l 586 1128 m 0 412 q 19 458 0 439 q 65 477 38 477 l 586 477 q 632 458 613 477 q 651 412 651 439 l 651 -22 q 632 -68 651 -49 q 586 -87 613 -87 l 65 -87 q 19 -68 38 -87 q 0 -22 0 -49 l 0 412 m 803 -87 q 757 -68 776 -87 q 738 -22 738 -49 l 738 412 q 757 458 738 439 q 803 477 776 477 l 1324 477 q 1370 458 1351 477 q 1389 412 1389 439 l 1389 -22 q 1370 -68 1389 -49 q 1324 -87 1351 -87 l 803 -87 z "},"":{"ha":1389,"x_min":0,"x_max":1389,"o":"m 404 1063 l 404 846 q 385 800 404 819 q 339 781 366 781 l 65 781 q 19 800 38 781 q 0 846 0 819 l 0 1063 q 19 1109 0 1090 q 65 1128 38 1128 l 339 1128 q 385 1109 366 1128 q 404 1063 404 1090 m 898 412 q 888 378 898 393 q 864 355 879 363 q 833 347 849 347 l 556 347 q 510 366 529 347 q 491 412 491 385 l 491 629 q 510 675 491 656 q 556 694 529 694 l 833 694 q 879 675 860 694 q 898 629 898 656 l 898 412 m 985 1063 q 1004 1109 985 1090 q 1050 1128 1023 1128 l 1324 1128 q 1370 1109 1351 1128 q 1389 1063 1389 1090 l 1389 846 q 1370 800 1389 819 q 1324 781 1351 781 l 1050 781 q 1004 800 1023 781 q 985 846 985 819 l 985 1063 m 898 846 q 892 821 898 833 q 878 800 887 808 q 857 787 868 792 q 833 781 846 781 l 556 781 q 510 800 529 781 q 491 846 491 819 l 491 1063 q 510 1109 491 1090 q 556 1128 529 1128 l 833 1128 q 879 1109 860 1128 q 898 1063 898 1090 l 898 846 m 339 694 q 385 675 366 694 q 404 629 404 656 l 404 412 q 385 366 404 385 q 339 347 366 347 l 65 347 q 19 366 38 347 q 0 412 0 385 l 0 629 q 19 675 0 656 q 65 694 38 694 l 339 694 m 0 195 q 19 241 0 222 q 65 260 38 260 l 339 260 q 385 241 366 260 q 404 195 404 222 l 404 -22 q 385 -68 404 -49 q 339 -87 366 -87 l 65 -87 q 19 -68 38 -87 q 0 -22 0 -49 l 0 195 m 1050 347 q 1004 366 1023 347 q 985 412 985 385 l 985 629 q 1004 675 985 656 q 1050 694 1023 694 l 1324 694 q 1370 675 1351 694 q 1389 629 1389 656 l 1389 412 q 1370 366 1389 385 q 1324 347 1351 347 l 1050 347 m 1050 -87 q 1004 -68 1023 -87 q 985 -22 985 -49 l 985 195 q 1004 241 985 222 q 1050 260 1023 260 l 1324 260 q 1370 241 1351 260 q 1389 195 1389 222 l 1389 -22 q 1370 -68 1389 -49 q 1324 -87 1351 -87 l 1050 -87 m 491 195 q 510 241 491 222 q 556 260 529 260 l 833 260 q 879 241 860 260 q 898 195 898 222 l 898 -22 q 879 -68 898 -49 q 833 -87 860 -87 l 556 -87 q 510 -68 529 -87 q 491 -22 491 -49 l 491 195 z "},"":{"ha":1389,"x_min":0,"x_max":1389,"o":"m 404 629 l 404 412 q 385 366 404 385 q 339 347 366 347 l 65 347 q 19 366 38 347 q 0 412 0 385 l 0 629 q 19 675 0 656 q 65 694 38 694 l 339 694 q 385 675 366 694 q 404 629 404 656 m 0 195 q 19 241 0 222 q 65 260 38 260 l 339 260 q 385 241 366 260 q 404 195 404 222 l 404 -22 q 385 -68 404 -49 q 339 -87 366 -87 l 65 -87 q 19 -68 38 -87 q 0 -22 0 -49 l 0 195 m 339 1128 q 385 1109 366 1128 q 404 1063 404 1090 l 404 846 q 385 800 404 819 q 339 781 366 781 l 65 781 q 19 800 38 781 q 0 846 0 819 l 0 1063 q 19 1109 0 1090 q 65 1128 38 1128 l 339 1128 m 556 -87 q 510 -68 529 -87 q 491 -22 491 -49 l 491 195 q 510 241 491 222 q 556 260 529 260 l 1324 260 q 1370 241 1351 260 q 1389 195 1389 222 l 1389 -22 q 1370 -68 1389 -49 q 1324 -87 1351 -87 l 556 -87 m 491 1063 q 510 1109 491 1090 q 556 1128 529 1128 l 1324 1128 q 1370 1109 1351 1128 q 1389 1063 1389 1090 l 1389 846 q 1370 800 1389 819 q 1324 781 1351 781 l 556 781 q 510 800 529 781 q 491 846 491 819 l 491 1063 m 556 347 q 510 366 529 347 q 491 412 491 385 l 491 629 q 510 675 491 656 q 556 694 529 694 l 1324 694 q 1370 675 1351 694 q 1389 629 1389 656 l 1389 412 q 1370 366 1389 385 q 1324 347 1351 347 l 556 347 z "},"":{"ha":1389,"x_min":0,"x_max":1389,"o":"m 472 24 l 19 475 q 0 524 0 494 q 19 572 0 553 l 119 670 q 167 692 138 692 q 217 670 195 692 l 521 366 l 1172 1017 q 1222 1039 1194 1039 q 1270 1017 1251 1039 l 1370 920 q 1389 871 1389 901 q 1370 822 1389 841 l 570 24 q 521 3 551 3 q 472 24 491 3 z "},"":{"ha":955,"x_min":-3,"x_max":958,"o":"m 659 521 l 930 250 q 955 190 955 225 q 930 127 955 155 l 871 68 q 808 43 844 43 q 749 68 773 43 l 477 339 l 206 68 q 146 43 182 43 q 84 68 111 43 l 24 127 q 0 190 0 155 q 24 250 0 225 l 296 521 l 24 792 q 0 852 0 817 q 24 914 0 887 l 84 974 q 146 998 111 998 q 206 974 182 998 l 477 703 l 749 974 q 808 998 773 998 q 871 974 844 998 l 930 914 q 955 852 955 887 q 930 792 955 817 l 659 521 z "},"":{"ha":1389,"x_min":0,"x_max":1389,"o":"m 825 694 l 825 608 q 792 575 825 575 l 640 575 l 640 423 q 608 391 640 391 l 521 391 q 488 423 488 391 l 488 575 l 336 575 q 304 608 304 575 l 304 694 q 336 727 304 727 l 488 727 l 488 879 q 521 911 488 911 l 608 911 q 640 879 640 911 l 640 727 l 792 727 q 825 694 825 727 m 1370 -79 l 1294 -155 q 1248 -174 1275 -174 q 1202 -155 1221 -174 l 930 117 q 911 163 911 136 l 911 206 q 564 87 760 87 q 165 252 331 87 q 0 651 0 418 q 165 1050 0 884 q 564 1215 331 1215 q 963 1050 798 1215 q 1128 651 1128 884 q 1009 304 1128 456 l 1053 304 q 1099 285 1080 304 l 1370 14 q 1389 -33 1389 -5 q 1370 -79 1389 -60 m 825 391 q 879 445 825 391 q 933 651 933 499 q 825 911 933 803 q 564 1020 716 1020 q 304 911 412 1020 q 195 651 195 803 q 304 391 195 499 q 564 282 412 282 q 825 391 716 282 z "},"":{"ha":1389,"x_min":0,"x_max":1389,"o":"m 825 694 l 825 608 q 792 575 825 575 l 336 575 q 304 608 304 575 l 304 694 q 336 727 304 727 l 792 727 q 825 694 825 727 m 1370 -79 l 1294 -155 q 1248 -174 1275 -174 q 1202 -155 1221 -174 l 930 117 q 911 163 911 136 l 911 206 q 564 87 760 87 q 165 252 331 87 q 0 651 0 418 q 165 1050 0 884 q 564 1215 331 1215 q 963 1050 798 1215 q 1128 651 1128 884 q 1009 304 1128 456 l 1053 304 q 1099 285 1080 304 l 1370 14 q 1389 -33 1389 -5 q 1370 -79 1389 -60 m 825 391 q 879 445 825 391 q 933 651 933 499 q 825 911 933 803 q 564 1020 716 1020 q 304 911 412 1020 q 195 651 195 803 q 304 391 195 499 q 564 282 412 282 q 825 391 716 282 z "},"":{"ha":1389,"x_min":19,"x_max":1367,"o":"m 1085 1069 q 1291 831 1215 977 q 1367 521 1367 686 q 1171 45 1367 241 q 694 -152 974 -152 q 358 -62 513 -152 q 113 182 203 27 q 22 521 22 336 q 57 735 22 632 q 155 922 92 838 q 304 1069 217 1006 q 357 1078 328 1085 q 399 1047 385 1072 l 442 971 q 448 925 453 949 q 423 887 442 901 q 346 815 380 854 q 289 730 312 776 q 252 631 266 684 q 239 521 239 578 q 372 199 239 334 q 694 65 505 65 q 1016 198 882 65 q 1150 524 1150 331 q 1101 726 1150 629 q 966 887 1053 822 q 941 925 947 901 q 947 971 936 949 l 990 1047 q 1032 1078 1004 1072 q 1085 1069 1061 1085 m 803 499 q 784 453 803 472 q 738 434 765 434 l 651 434 q 605 453 624 434 q 586 499 586 472 l 586 1150 q 605 1196 586 1177 q 651 1215 624 1215 l 738 1215 q 784 1196 765 1215 q 803 1150 803 1177 l 803 499 z "},"":{"ha":1736,"x_min":65,"x_max":1671,"o":"m 586 434 q 617 422 605 434 q 629 391 629 410 l 629 -130 q 617 -161 629 -149 q 586 -174 605 -174 l 456 -174 q 425 -161 437 -174 q 412 -130 412 -149 l 412 391 q 425 422 412 410 q 456 434 437 434 l 586 434 m 239 174 q 270 161 258 174 q 282 130 282 149 l 282 -130 q 270 -161 282 -149 q 239 -174 258 -174 l 109 -174 q 77 -161 90 -174 q 65 -130 65 -149 l 65 130 q 77 161 65 149 q 109 174 90 174 l 239 174 m 933 694 q 964 682 952 694 q 977 651 977 670 l 977 -130 q 964 -161 977 -149 q 933 -174 952 -174 l 803 -174 q 772 -161 784 -174 q 760 -130 760 -149 l 760 651 q 772 682 760 670 q 803 694 784 694 l 933 694 m 1280 955 q 1312 943 1299 955 q 1324 911 1324 930 l 1324 -130 q 1312 -161 1324 -149 q 1280 -174 1299 -174 l 1150 -174 q 1119 -161 1131 -174 q 1107 -130 1107 -149 l 1107 911 q 1119 943 1107 930 q 1150 955 1131 955 l 1280 955 m 1628 1215 q 1659 1203 1647 1215 q 1671 1172 1671 1191 l 1671 -130 q 1659 -161 1671 -149 q 1628 -174 1647 -174 l 1497 -174 q 1466 -161 1478 -174 q 1454 -130 1454 -149 l 1454 1172 q 1466 1203 1454 1191 q 1497 1215 1478 1215 l 1628 1215 z "},"":{"ha":1389,"x_min":43,"x_max":1345,"o":"m 1321 358 q 1337 320 1345 347 q 1188 65 1291 176 q 1150 57 1172 46 l 1034 125 q 868 30 960 62 l 868 -103 q 844 -136 868 -130 q 548 -136 694 -168 q 521 -103 521 -130 l 521 30 q 355 125 429 62 l 241 57 q 201 65 217 46 q 52 320 98 176 q 68 358 43 345 l 182 426 q 174 521 174 472 q 182 616 174 570 l 68 684 q 52 722 43 694 q 201 977 98 865 q 241 982 217 996 l 355 917 q 521 1012 429 979 l 521 1145 q 545 1177 521 1172 q 844 1177 694 1210 q 868 1145 868 1172 l 868 1012 q 1034 917 960 979 l 1147 985 q 1188 977 1172 996 q 1337 722 1291 865 q 1321 684 1345 694 l 1207 616 q 1207 426 1223 521 l 1321 358 m 541 368 q 573 336 541 368 q 694 304 605 304 q 848 368 784 304 q 911 521 911 431 q 848 674 911 610 q 694 738 784 738 q 541 674 605 738 q 477 521 477 610 q 541 368 477 431 z "},"":{"ha":1563,"x_min":-3,"x_max":1565,"o":"m 760 814 q 781 819 770 819 q 803 814 792 819 l 1302 401 l 1302 -43 q 1290 -75 1302 -62 q 1259 -87 1278 -87 l 955 -87 q 924 -73 936 -87 q 911 -43 911 -60 l 911 217 q 906 239 911 228 q 890 255 901 250 q 868 260 879 260 l 694 260 q 663 248 675 260 q 651 217 651 236 l 651 -43 q 639 -73 651 -60 q 608 -87 627 -87 l 304 -87 q 273 -75 285 -87 q 260 -43 260 -62 l 260 401 l 760 814 m 1552 534 q 1563 507 1563 524 q 1554 488 1563 496 l 1487 404 q 1462 391 1476 391 q 1440 399 1449 391 l 803 925 q 781 930 792 930 q 760 925 770 930 l 122 399 q 103 391 114 391 q 76 404 87 391 l 8 488 q 0 507 0 496 q 11 534 0 524 l 697 1099 q 781 1128 735 1128 q 863 1099 827 1128 l 1107 898 l 1107 1096 q 1116 1119 1107 1109 q 1139 1128 1126 1128 l 1291 1128 q 1314 1119 1305 1128 q 1324 1096 1324 1109 l 1324 719 l 1552 534 z "},"":{"ha":1389,"x_min":22,"x_max":1367,"o":"m 218 997 q 317 1095 218 997 q 694 1194 415 1194 q 1171 997 974 1194 q 1367 521 1367 800 q 1171 45 1367 241 q 694 -152 974 -152 q 218 45 415 -152 q 22 521 22 241 q 218 997 22 800 m 849 244 q 895 250 876 225 l 971 355 q 966 401 990 382 l 792 526 l 792 901 q 760 933 792 933 l 629 933 q 597 901 597 933 l 597 445 q 610 418 597 429 l 849 244 z "},"":{"ha":1563,"x_min":-14,"x_max":1576,"o":"m 1554 122 q 1549 39 1573 79 q 1478 0 1525 0 l 947 0 l 917 266 q 905 293 917 282 q 873 304 892 304 l 689 304 q 669 298 678 304 q 652 285 659 293 q 646 266 646 277 l 616 0 l 84 0 q 14 39 38 0 q 8 122 -11 79 l 388 990 q 461 1042 410 1042 l 727 1042 l 719 979 q 726 962 719 968 q 741 955 732 955 l 822 955 q 837 962 830 955 q 844 979 844 968 l 836 1042 l 1101 1042 q 1175 990 1153 1042 l 1554 122 m 705 849 l 694 730 q 701 705 692 716 q 727 694 711 694 l 836 694 q 861 705 852 694 q 868 730 871 716 l 857 849 q 836 868 854 868 l 727 868 q 705 849 708 868 m 857 391 q 879 397 868 391 q 895 415 890 404 q 901 439 901 426 l 884 570 q 872 597 884 586 q 844 608 860 608 l 719 608 q 690 597 703 608 q 678 570 678 586 l 662 439 q 667 415 662 426 q 684 397 673 404 q 705 391 694 391 l 857 391 z "},"":{"ha":1389,"x_min":0,"x_max":1389,"o":"m 586 1215 l 803 1215 q 849 1196 830 1215 q 868 1150 868 1177 l 868 694 l 1107 694 q 1156 661 1142 694 q 1145 602 1169 627 l 732 190 q 694 174 716 174 q 656 190 673 174 l 244 602 q 233 661 220 627 q 282 694 247 694 l 521 694 l 521 1150 q 540 1196 521 1177 q 586 1215 559 1215 m 1389 195 l 1389 -109 q 1370 -155 1389 -136 q 1324 -174 1351 -174 l 65 -174 q 19 -155 38 -174 q 0 -109 0 -136 l 0 195 q 19 241 0 222 q 65 260 38 260 l 464 260 l 597 127 q 694 87 637 87 q 792 127 751 87 l 925 260 l 1324 260 q 1370 241 1351 260 q 1389 195 1389 222 m 1036 -81 q 1044 -73 1036 -81 q 1053 -43 1053 -65 q 1036 -5 1053 -22 q 998 11 1020 11 q 960 -5 977 11 q 944 -43 944 -22 q 960 -81 944 -65 q 998 -98 977 -98 q 1036 -81 1020 -98 m 1210 -81 q 1218 -73 1210 -81 q 1226 -43 1226 -65 q 1210 -5 1226 -22 q 1172 11 1194 11 q 1134 -5 1150 11 q 1118 -43 1118 -22 q 1134 -81 1118 -65 q 1172 -98 1150 -98 q 1210 -81 1194 -98 z "},"":{"ha":1563,"x_min":0,"x_max":1563,"o":"m 1541 553 q 1563 480 1563 521 l 1563 130 q 1525 38 1563 76 q 1432 0 1487 0 l 130 0 q 38 38 76 0 q 0 130 0 76 l 0 480 q 22 553 0 521 l 309 985 q 338 1012 320 998 q 377 1034 355 1025 q 418 1042 399 1042 l 1145 1042 q 1206 1024 1175 1042 q 1253 985 1237 1006 l 1541 553 m 439 868 l 209 521 l 543 521 l 629 347 l 933 347 l 1020 521 l 1354 521 l 1123 868 l 439 868 z "},"":{"ha":1389,"x_min":19,"x_max":1392,"o":"m 1356 1215 q 1379 1206 1370 1215 q 1389 1183 1389 1196 l 1389 640 q 1379 617 1389 627 q 1356 608 1370 608 l 814 608 q 791 617 800 608 q 781 640 781 627 l 781 768 q 791 791 781 781 q 814 800 800 800 q 817 800 814 800 l 1090 787 q 916 936 1031 873 q 694 998 800 998 q 357 859 496 998 q 217 521 217 719 q 357 183 217 323 q 694 43 496 43 q 863 79 770 43 q 1009 163 955 114 q 1031 171 1020 171 q 1055 160 1044 171 l 1147 68 q 1156 46 1156 60 q 1145 22 1156 30 q 1051 -46 1107 -14 q 935 -102 996 -79 q 811 -138 873 -125 q 694 -152 749 -152 q 357 -62 513 -152 q 111 182 201 27 q 22 521 22 336 q 220 996 22 798 q 694 1194 418 1194 q 878 1162 779 1194 q 1065 1076 977 1131 q 1207 958 1153 1020 l 1196 1180 q 1196 1183 1196 1183 q 1206 1206 1196 1196 q 1229 1215 1215 1215 l 1356 1215 z "},"":{"ha":1389,"x_min":0,"x_max":1389,"o":"m 1196 1180 q 1196 1183 1196 1183 q 1206 1206 1196 1196 q 1229 1215 1215 1215 l 1356 1215 q 1389 1183 1389 1215 l 1389 640 q 1379 617 1389 627 q 1356 608 1370 608 l 814 608 q 791 617 800 608 q 781 640 781 627 l 781 768 q 791 791 781 781 q 814 800 800 800 l 1090 787 q 916 936 1031 873 q 694 998 800 998 q 401 891 537 998 q 231 632 266 784 q 198 608 225 608 l 65 608 q 42 617 52 608 q 33 640 33 627 q 33 646 33 643 q 264 1038 79 882 q 694 1194 450 1194 q 878 1162 779 1194 q 1065 1076 977 1131 q 1207 958 1153 1020 l 1196 1180 m 694 43 q 985 151 849 43 q 1158 410 1120 258 q 1191 434 1164 434 l 1324 434 q 1347 425 1337 434 q 1356 401 1356 415 q 1354 396 1356 399 q 1124 4 1310 160 q 694 -152 939 -152 q 415 -83 564 -152 q 182 84 266 -14 l 193 -138 q 193 -141 193 -141 q 183 -164 193 -155 q 160 -174 174 -174 l 33 -174 q 0 -141 0 -174 l 0 401 q 9 425 0 415 q 33 434 19 434 l 575 434 q 598 425 589 434 q 608 401 608 415 l 608 274 q 598 251 608 260 q 575 241 589 241 l 298 255 q 472 106 355 168 q 694 43 589 43 z "},"":{"ha":1389,"x_min":0,"x_max":1389,"o":"m 1259 -87 l 130 -87 q 38 -49 76 -87 q 0 43 0 -11 l 0 998 q 38 1090 0 1053 q 130 1128 76 1128 l 1259 1128 q 1351 1090 1313 1128 q 1389 998 1389 1053 l 1389 43 q 1351 -49 1389 -11 q 1259 -87 1313 -87 m 425 859 q 409 874 425 859 q 347 890 393 890 q 270 859 301 890 q 239 781 239 827 q 270 704 239 735 q 347 673 301 673 q 425 704 393 673 q 456 781 456 735 q 425 859 456 827 m 425 598 q 409 614 425 598 q 347 629 393 629 q 270 598 301 629 q 239 521 239 567 q 270 444 239 475 q 347 412 301 412 q 425 444 393 412 q 456 521 456 475 q 425 598 456 567 m 425 338 q 409 353 425 338 q 347 369 393 369 q 270 338 301 369 q 239 260 239 307 q 270 183 239 214 q 347 152 301 152 q 425 183 393 152 q 456 260 456 214 q 425 338 456 307 m 1128 738 l 1128 825 q 1096 857 1128 857 l 553 857 q 521 825 521 857 l 521 738 q 553 705 521 705 l 1096 705 q 1128 738 1128 705 m 1128 477 l 1128 564 q 1096 597 1128 597 l 553 597 q 521 564 521 597 l 521 477 q 553 445 521 445 l 1096 445 q 1128 477 1128 445 m 1128 217 l 1128 304 q 1096 336 1128 336 l 553 336 q 521 304 521 336 l 521 217 q 553 184 521 184 l 1096 184 q 1128 217 1128 184 z "},"":{"ha":1215,"x_min":0,"x_max":1215,"o":"m 1085 608 q 1177 570 1139 608 q 1215 477 1215 532 l 1215 -43 q 1177 -136 1215 -98 q 1085 -174 1139 -174 l 130 -174 q 38 -136 76 -174 q 0 -43 0 -98 l 0 477 q 38 570 0 532 q 130 608 76 608 l 195 608 l 195 803 q 316 1095 195 974 q 608 1215 437 1215 q 899 1095 779 1215 q 1020 803 1020 974 l 1020 608 l 1085 608 m 803 608 l 803 803 q 746 941 803 884 q 608 998 689 998 q 469 941 526 998 q 412 803 412 884 l 412 608 l 803 608 z "},"":{"ha":1389,"x_min":22,"x_max":1389,"o":"m 949 947 q 1267 1034 1080 947 q 1348 1028 1308 1053 q 1389 955 1389 1004 l 1389 296 q 1351 225 1389 250 q 1020 114 1191 114 q 781 161 922 114 q 570 209 640 209 q 260 146 401 209 l 260 -109 q 241 -155 260 -136 q 195 -174 222 -174 l 152 -174 q 106 -155 125 -174 q 87 -109 87 -136 l 87 939 q 22 1063 22 985 q 68 1173 22 1128 q 179 1215 114 1218 q 281 1172 239 1213 q 326 1074 323 1131 q 326 1063 326 1069 q 315 1009 326 1036 q 500 1042 404 1042 q 738 994 597 1042 q 949 947 879 947 z "},"":{"ha":1389,"x_min":0,"x_max":1389,"o":"m 203 925 q 305 1027 203 925 q 694 1128 407 1128 q 1185 925 982 1128 q 1389 434 1389 722 l 1389 304 q 1375 259 1389 282 q 1340 225 1362 236 l 1302 206 q 1208 -1 1297 84 q 998 -87 1120 -87 l 933 -87 q 887 -68 906 -87 q 868 -22 868 -49 l 868 456 q 887 502 868 483 q 933 521 906 521 l 998 521 q 1215 429 1126 521 l 1215 434 q 1062 802 1215 648 q 694 955 909 955 q 327 802 480 955 q 174 434 174 648 l 174 429 q 391 521 263 521 l 456 521 q 502 502 483 521 q 521 456 521 483 l 521 -22 q 502 -68 521 -49 q 456 -87 483 -87 l 391 -87 q 180 -1 269 -87 q 87 206 92 84 l 49 225 q 14 259 27 236 q 0 304 0 282 l 0 434 q 203 925 0 722 z "},"":{"ha":694,"x_min":0,"x_max":694,"o":"m 583 1023 q 654 1036 613 1053 q 694 977 694 1020 l 694 65 q 654 5 694 22 q 583 19 613 -11 l 342 260 l 65 260 q 19 279 38 260 q 0 326 0 298 l 0 716 q 19 762 0 743 q 65 781 38 781 l 342 781 l 583 1023 z "},"":{"ha":1042,"x_min":0,"x_max":1044,"o":"m 583 1020 q 654 1034 613 1050 q 694 974 694 1017 l 694 62 q 654 3 694 19 q 583 16 613 -14 l 342 258 l 65 258 q 19 277 38 258 q 0 323 0 296 l 0 713 q 19 760 0 741 q 65 779 38 779 l 342 779 l 583 1020 m 917 727 q 1008 639 974 694 q 1042 518 1042 583 q 1008 397 1042 453 q 917 309 974 342 q 868 304 895 296 q 829 335 841 312 q 823 384 817 358 q 854 423 830 410 q 911 518 911 456 q 854 613 911 581 q 823 652 830 627 q 829 701 817 678 q 868 732 841 724 q 917 727 895 741 z "},"":{"ha":1563,"x_min":0,"x_max":1563,"o":"m 583 1023 q 654 1036 613 1053 q 694 977 694 1020 l 694 65 q 654 5 694 22 q 583 19 613 -11 l 342 260 l 65 260 q 19 279 38 260 q 0 326 0 298 l 0 716 q 19 762 0 743 q 65 781 38 781 l 342 781 l 583 1023 m 1215 1161 q 1470 884 1378 1055 q 1563 521 1563 713 q 1470 157 1563 328 q 1215 -119 1378 -14 q 1166 -129 1194 -136 q 1124 -100 1139 -122 q 1115 -52 1109 -79 q 1145 -11 1120 -24 q 1298 132 1234 49 q 1397 315 1362 214 q 1432 521 1432 415 q 1355 822 1432 681 q 1145 1053 1278 963 q 1115 1093 1120 1066 q 1124 1142 1109 1120 q 1166 1171 1139 1164 q 1215 1161 1194 1177 m 1241 764 q 1272 707 1241 764 q 1302 521 1302 651 q 1241 278 1302 391 q 1069 98 1180 165 q 1019 88 1044 81 q 979 117 993 95 q 971 167 966 141 q 1001 209 977 193 q 1092 290 1053 241 q 1152 399 1131 339 q 1172 521 1172 458 q 1152 643 1172 583 q 1092 751 1131 703 q 1001 833 1053 800 q 971 875 977 849 q 979 924 966 901 q 1020 954 993 947 q 1069 944 1047 960 q 1241 764 1180 876 m 917 730 q 1008 642 974 697 q 1042 521 1042 586 q 1008 400 1042 456 q 917 312 974 345 q 868 307 895 298 q 829 338 841 315 q 823 387 817 361 q 854 426 830 412 q 911 521 911 458 q 854 616 911 583 q 823 655 830 629 q 829 704 817 681 q 868 735 841 727 q 917 730 895 743 z "},"":{"ha":1215,"x_min":0,"x_max":1215,"o":"m 0 608 l 0 1128 l 521 1128 l 521 608 l 0 608 m 174 955 l 174 781 l 347 781 l 347 955 l 174 955 m 694 1128 l 1215 1128 l 1215 608 l 694 608 l 694 1128 m 1042 781 l 1042 955 l 868 955 l 868 781 l 1042 781 m 0 -87 l 0 434 l 521 434 l 521 -87 l 0 -87 m 174 260 l 174 87 l 347 87 l 347 260 l 174 260 m 1128 434 l 1215 434 l 1215 87 l 955 87 l 955 174 l 868 174 l 868 -87 l 694 -87 l 694 434 l 955 434 l 955 347 l 1128 347 l 1128 434 m 1128 0 l 1215 0 l 1215 -87 l 1128 -87 l 1128 0 m 955 0 l 1042 0 l 1042 -87 l 955 -87 l 955 0 z "},"":{"ha":1389,"x_min":0,"x_max":1389,"o":"m 0 0 l 0 1042 l 49 1042 l 49 0 l 0 0 m 73 0 l 73 1042 l 98 1042 l 98 0 l 73 0 m 146 0 l 146 1042 l 171 1042 l 171 0 l 146 0 m 269 0 l 269 1042 l 293 1042 l 293 0 l 269 0 m 366 0 l 366 1042 l 415 1042 l 415 0 l 366 0 m 488 0 l 488 1042 l 513 1042 l 513 0 l 488 0 m 537 0 l 537 1042 l 562 1042 l 562 0 l 537 0 m 586 0 l 586 1042 l 610 1042 l 610 0 l 586 0 m 681 0 l 681 1042 l 730 1042 l 730 0 l 681 0 m 803 0 l 803 1042 l 852 1042 l 852 0 l 803 0 m 901 0 l 901 1042 l 949 1042 l 949 0 l 901 0 m 998 0 l 998 1042 l 1047 1042 l 1047 0 l 998 0 m 1072 0 l 1072 1042 l 1120 1042 l 1120 0 l 1072 0 m 1194 0 l 1194 1042 l 1267 1042 l 1267 0 l 1194 0 m 1291 0 l 1291 1042 l 1316 1042 l 1316 0 l 1291 0 m 1340 0 l 1340 1042 l 1389 1042 l 1389 0 l 1340 0 z "},"":{"ha":1389,"x_min":0,"x_max":1389,"o":"m 0 532 l 0 1085 q 38 1177 0 1139 q 130 1215 76 1215 l 684 1215 q 776 1177 738 1215 l 1351 602 q 1389 510 1389 564 q 1351 418 1389 456 l 798 -136 q 705 -174 760 -174 q 613 -136 651 -174 l 38 439 q 0 532 0 477 m 396 1004 q 377 1023 396 1004 q 304 1042 358 1042 q 212 1004 250 1042 q 174 911 174 966 q 212 819 174 857 q 304 781 250 781 q 396 819 358 781 q 434 911 434 857 q 396 1004 434 966 z "},"":{"ha":1736,"x_min":0,"x_max":1736,"o":"m 1351 602 q 1389 510 1389 564 q 1351 418 1389 456 l 798 -136 q 705 -174 760 -174 q 613 -136 651 -174 l 38 439 q 0 532 0 477 l 0 1085 q 38 1177 0 1139 q 130 1215 76 1215 l 684 1215 q 776 1177 738 1215 l 1351 602 m 212 819 q 231 800 212 819 q 304 781 250 781 q 396 819 358 781 q 434 911 434 857 q 396 1004 434 966 q 304 1042 358 1042 q 212 1004 250 1042 q 174 911 174 966 q 212 819 174 857 m 1698 418 l 1145 -136 q 1053 -174 1107 -174 q 960 -136 998 -174 l 1432 336 q 1503 510 1503 410 q 1432 684 1503 610 l 898 1215 l 1031 1215 q 1123 1177 1085 1215 l 1698 602 q 1736 510 1736 564 q 1698 418 1736 456 z "},"":{"ha":1215,"x_min":0,"x_max":1215,"o":"m 1215 239 q 1191 187 1215 206 q 1183 87 1183 157 q 1191 -14 1183 16 q 1215 -65 1215 -35 l 1215 -109 q 1196 -155 1215 -136 q 1150 -174 1177 -174 l 260 -174 q 76 -98 152 -174 q 0 87 0 -22 l 0 955 q 76 1139 0 1063 q 260 1215 152 1215 l 1150 1215 q 1196 1196 1177 1215 q 1215 1150 1215 1177 l 1215 239 m 347 852 l 347 798 q 363 781 347 781 l 939 781 q 955 798 955 781 l 955 852 q 939 868 955 868 l 363 868 q 347 852 347 868 m 347 678 l 347 624 q 363 608 347 608 l 939 608 q 955 624 955 608 l 955 678 q 939 694 955 694 l 363 694 q 347 678 347 694 m 1034 0 q 1034 174 1025 87 l 260 174 q 199 148 225 174 q 174 87 174 122 q 199 26 174 52 q 260 0 225 0 l 1034 0 z "},"":{"ha":1042,"x_min":0,"x_max":1042,"o":"m 0 -174 l 0 1085 q 38 1177 0 1139 q 130 1215 76 1215 l 911 1215 q 1004 1177 966 1215 q 1042 1085 1042 1139 l 1042 -174 l 521 130 l 0 -174 z "},"":{"ha":1389,"x_min":0,"x_max":1389,"o":"m 1215 694 q 1339 644 1289 694 q 1389 521 1389 594 l 1389 217 q 1377 186 1389 198 q 1345 174 1364 174 l 1215 174 l 1215 -87 q 1190 -148 1215 -122 q 1128 -174 1164 -174 l 260 -174 q 199 -148 225 -174 q 174 -87 174 -122 l 174 174 l 43 174 q 12 186 24 174 q 0 217 0 198 l 0 521 q 50 644 0 594 q 174 694 100 694 l 174 1128 q 199 1190 174 1164 q 260 1215 225 1215 l 1006 1215 q 1066 1191 1042 1215 l 1191 1066 q 1215 1006 1215 1042 l 1215 694 m 1042 0 l 1042 260 l 347 260 l 347 0 l 1042 0 m 1042 608 l 1042 868 l 911 868 q 880 880 892 868 q 868 911 868 892 l 868 1042 l 347 1042 l 347 608 l 1042 608 m 1126 431 q 1135 422 1126 431 q 1172 412 1145 412 q 1218 431 1199 412 q 1237 477 1237 450 q 1218 524 1237 505 q 1172 543 1199 543 q 1126 524 1145 543 q 1107 477 1107 505 q 1126 431 1107 450 z "},"":{"ha":1389,"x_min":0,"x_max":1389,"o":"m 1389 825 l 1389 43 q 1351 -49 1389 -11 q 1259 -87 1313 -87 l 130 -87 q 38 -49 76 -87 q 0 43 0 -11 l 0 825 q 38 917 0 879 q 130 955 76 955 l 369 955 l 401 1044 q 430 1088 412 1069 q 472 1118 448 1107 q 524 1128 496 1128 l 865 1128 q 939 1105 906 1128 q 987 1044 971 1082 l 1020 955 l 1259 955 q 1351 917 1313 955 q 1389 825 1389 879 m 925 203 q 972 251 925 203 q 1020 434 1020 298 q 925 665 1020 570 q 694 760 830 760 q 464 665 559 760 q 369 434 369 570 q 464 203 369 298 q 694 109 559 109 q 925 203 830 109 m 863 602 q 898 567 863 602 q 933 434 933 532 q 863 266 933 336 q 694 195 792 195 q 526 266 597 195 q 456 434 456 336 q 526 602 456 532 q 694 673 597 673 q 863 602 792 673 z "},"":{"ha":1215,"x_min":0,"x_max":1215,"o":"m 1172 87 q 1203 75 1191 87 q 1215 43 1215 62 l 1215 -43 q 1203 -75 1215 -62 q 1172 -87 1191 -87 l 825 -87 q 793 -75 806 -87 q 781 -43 781 -62 l 781 43 q 793 75 781 62 q 825 87 806 87 l 879 87 l 814 260 l 401 260 l 336 87 l 391 87 q 422 75 410 87 q 434 43 434 62 l 434 -43 q 422 -75 434 -62 q 391 -87 410 -87 l 43 -87 q 12 -75 24 -87 q 0 -43 0 -62 l 0 43 q 12 75 0 62 q 43 87 24 87 l 106 87 l 461 1069 q 494 1111 469 1093 q 543 1128 518 1128 l 673 1128 q 722 1111 697 1128 q 754 1069 746 1093 l 1109 87 l 1172 87 m 480 477 l 735 477 l 608 827 l 480 477 z "},"":{"ha":1042,"x_min":49,"x_max":1053,"o":"m 903 570 q 1015 427 977 513 q 1042 244 1053 342 q 917 8 1028 103 q 659 -87 806 -87 l 92 -87 q 61 -75 73 -87 q 49 -43 49 -62 l 49 87 q 61 118 49 106 q 92 130 73 130 l 179 130 l 179 911 l 92 911 q 61 924 73 911 q 49 955 49 936 l 49 1085 q 61 1116 49 1104 q 92 1128 73 1128 l 632 1128 q 890 1015 787 1128 q 977 746 993 901 q 903 570 968 648 m 396 911 l 396 651 l 632 651 q 724 689 686 651 q 762 781 762 727 q 724 873 762 836 q 632 911 686 911 l 396 911 m 632 130 q 741 175 697 130 q 784 282 784 220 q 741 389 784 345 q 632 434 697 434 l 396 434 l 396 130 l 632 130 z "},"":{"ha":868,"x_min":0,"x_max":868,"o":"m 868 1085 l 868 998 q 856 967 868 979 q 825 955 844 955 l 654 955 l 437 87 l 564 87 q 595 75 583 87 q 608 43 608 62 l 608 -43 q 595 -75 608 -62 q 564 -87 583 -87 l 43 -87 q 12 -75 24 -87 q 0 -43 0 -62 l 0 43 q 12 75 0 62 q 43 87 24 87 l 214 87 l 431 955 l 304 955 q 273 967 285 955 q 260 998 260 979 l 260 1085 q 273 1116 260 1104 q 304 1128 285 1128 l 825 1128 q 856 1116 844 1128 q 868 1085 868 1104 z "},"":{"ha":1563,"x_min":0,"x_max":1571,"o":"m 825 1128 q 856 1116 844 1128 q 868 1085 868 1104 l 868 825 q 856 793 868 806 q 825 781 844 781 l 738 781 q 707 793 719 781 q 694 825 694 806 l 694 911 l 543 911 l 543 87 l 651 87 q 682 75 670 87 q 694 43 694 62 l 694 -43 q 682 -75 694 -62 q 651 -87 670 -87 l 217 -87 q 186 -75 198 -87 q 174 -43 174 -62 l 174 43 q 186 75 174 62 q 217 87 198 87 l 326 87 l 326 911 l 174 911 l 174 825 q 161 793 174 806 q 130 781 149 781 l 43 781 q 12 793 24 781 q 0 825 0 806 l 0 1085 q 12 1116 0 1104 q 43 1128 24 1128 l 825 1128 m 1519 217 q 1560 190 1549 217 q 1549 144 1571 163 l 1332 -73 q 1302 -87 1321 -87 q 1272 -73 1283 -87 l 1055 144 q 1044 190 1034 163 q 1085 217 1055 217 l 1215 217 l 1215 825 l 1085 825 q 1044 852 1055 825 q 1055 898 1034 879 l 1272 1115 q 1302 1128 1283 1128 q 1332 1115 1321 1128 l 1549 898 q 1560 852 1571 879 q 1519 825 1549 825 l 1389 825 l 1389 217 l 1519 217 z "},"":{"ha":1215,"x_min":0,"x_max":1215,"o":"m 1172 1128 q 1203 1116 1191 1128 q 1215 1085 1215 1104 l 1215 868 q 1203 837 1215 849 q 1172 825 1191 825 l 1085 825 q 1054 837 1066 825 q 1042 868 1042 849 l 1042 911 l 716 911 l 716 608 l 781 608 q 812 595 800 608 q 825 564 825 583 l 825 477 q 812 446 825 458 q 781 434 800 434 l 434 434 q 403 446 415 434 q 391 477 391 458 l 391 564 q 403 595 391 583 q 434 608 415 608 l 499 608 l 499 911 l 174 911 l 174 868 q 161 837 174 849 q 130 825 149 825 l 43 825 q 12 837 24 825 q 0 868 0 849 l 0 1085 q 12 1116 0 1104 q 43 1128 24 1128 l 1172 1128 m 985 420 l 1202 203 q 1215 174 1215 193 q 1202 144 1215 155 l 985 -73 q 939 -84 966 -95 q 911 -43 911 -73 l 911 87 l 304 87 l 304 -43 q 277 -84 304 -73 q 231 -73 250 -95 l 14 144 q 0 174 0 155 q 14 203 0 193 l 231 420 q 277 431 250 442 q 304 391 304 420 l 304 260 l 911 260 l 911 391 q 939 431 911 420 q 985 420 966 442 z "},"":{"ha":1215,"x_min":0,"x_max":1215,"o":"m 35 260 q 11 271 22 260 q 0 296 0 282 l 0 399 q 11 423 0 412 q 35 434 22 434 l 746 434 q 770 423 760 434 q 781 399 781 412 l 781 296 q 770 271 781 282 q 746 260 760 260 l 35 260 m 35 955 q 11 966 22 955 q 0 990 0 977 l 0 1093 q 11 1118 0 1107 q 35 1128 22 1128 l 746 1128 q 770 1118 760 1128 q 781 1093 781 1107 l 781 990 q 770 966 781 977 q 746 955 760 955 l 35 955 m 1172 781 q 1203 769 1191 781 q 1215 738 1215 757 l 1215 651 q 1203 620 1215 632 q 1172 608 1191 608 l 43 608 q 12 620 24 608 q 0 651 0 632 l 0 738 q 12 769 0 757 q 43 781 24 781 l 1172 781 m 1172 87 q 1203 75 1191 87 q 1215 43 1215 62 l 1215 -43 q 1203 -75 1215 -62 q 1172 -87 1191 -87 l 43 -87 q 12 -75 24 -87 q 0 -43 0 -62 l 0 43 q 12 75 0 62 q 43 87 24 87 l 1172 87 z "},"":{"ha":1215,"x_min":0,"x_max":1215,"o":"m 1172 781 q 1203 769 1191 781 q 1215 738 1215 757 l 1215 651 q 1203 620 1215 632 q 1172 608 1191 608 l 43 608 q 12 620 24 608 q 0 651 0 632 l 0 738 q 12 769 0 757 q 43 781 24 781 l 1172 781 m 1172 87 q 1203 75 1191 87 q 1215 43 1215 62 l 1215 -43 q 1203 -75 1215 -62 q 1172 -87 1191 -87 l 43 -87 q 12 -75 24 -87 q 0 -43 0 -62 l 0 43 q 12 75 0 62 q 43 87 24 87 l 1172 87 m 293 955 q 270 964 279 955 q 260 987 260 974 l 260 1096 q 270 1119 260 1109 q 293 1128 279 1128 l 922 1128 q 945 1119 936 1128 q 955 1096 955 1109 l 955 987 q 945 964 955 974 q 922 955 936 955 l 293 955 m 922 260 l 293 260 q 270 270 279 260 q 260 293 260 279 l 260 401 q 270 425 260 415 q 293 434 279 434 l 922 434 q 945 425 936 434 q 955 401 955 415 l 955 293 q 945 270 955 279 q 922 260 936 260 z "},"":{"ha":1215,"x_min":0,"x_max":1215,"o":"m 43 608 q 12 620 24 608 q 0 651 0 632 l 0 738 q 12 769 0 757 q 43 781 24 781 l 1172 781 q 1203 769 1191 781 q 1215 738 1215 757 l 1215 651 q 1203 620 1215 632 q 1172 608 1191 608 l 43 608 m 1172 87 q 1203 75 1191 87 q 1215 43 1215 62 l 1215 -43 q 1203 -75 1215 -62 q 1172 -87 1191 -87 l 43 -87 q 12 -75 24 -87 q 0 -43 0 -62 l 0 43 q 12 75 0 62 q 43 87 24 87 l 1172 87 m 1180 1128 q 1204 1118 1194 1128 q 1215 1093 1215 1107 l 1215 990 q 1204 966 1215 977 q 1180 955 1194 955 l 469 955 q 445 966 456 955 q 434 990 434 977 l 434 1093 q 445 1118 434 1107 q 469 1128 456 1128 l 1180 1128 m 1180 434 q 1204 423 1194 434 q 1215 399 1215 412 l 1215 296 q 1204 271 1215 282 q 1180 260 1194 260 l 469 260 q 445 271 456 260 q 434 296 434 282 l 434 399 q 445 423 434 412 q 469 434 456 434 l 1180 434 z "},"":{"ha":1215,"x_min":0,"x_max":1215,"o":"m 1172 87 q 1203 75 1191 87 q 1215 43 1215 62 l 1215 -43 q 1203 -75 1215 -62 q 1172 -87 1191 -87 l 43 -87 q 12 -75 24 -87 q 0 -43 0 -62 l 0 43 q 12 75 0 62 q 43 87 24 87 l 1172 87 m 1172 434 q 1203 422 1191 434 q 1215 391 1215 410 l 1215 304 q 1203 273 1215 285 q 1172 260 1191 260 l 43 260 q 12 273 24 260 q 0 304 0 285 l 0 391 q 12 422 0 410 q 43 434 24 434 l 1172 434 m 1172 781 q 1203 769 1191 781 q 1215 738 1215 757 l 1215 651 q 1203 620 1215 632 q 1172 608 1191 608 l 43 608 q 12 620 24 608 q 0 651 0 632 l 0 738 q 12 769 0 757 q 43 781 24 781 l 1172 781 m 1172 1128 q 1203 1116 1191 1128 q 1215 1085 1215 1104 l 1215 998 q 1203 967 1215 979 q 1172 955 1191 955 l 43 955 q 12 967 24 955 q 0 998 0 979 l 0 1085 q 12 1116 0 1104 q 43 1128 24 1128 l 1172 1128 z "},"":{"ha":1389,"x_min":0,"x_max":1389,"o":"m 217 217 q 248 205 236 217 q 260 174 260 193 l 260 0 q 248 -31 260 -19 q 217 -43 236 -43 l 43 -43 q 12 -31 24 -43 q 0 0 0 -19 l 0 174 q 12 205 0 193 q 43 217 24 217 l 217 217 m 217 1085 q 248 1073 236 1085 q 260 1042 260 1061 l 260 868 q 248 837 260 849 q 217 825 236 825 l 43 825 q 12 837 24 825 q 0 868 0 849 l 0 1042 q 12 1073 0 1061 q 43 1085 24 1085 l 217 1085 m 217 651 q 248 639 236 651 q 260 608 260 627 l 260 434 q 248 403 260 415 q 217 391 236 391 l 43 391 q 12 403 24 391 q 0 434 0 415 l 0 608 q 12 639 0 627 q 43 651 24 651 l 217 651 m 1345 174 q 1377 161 1364 174 q 1389 130 1389 149 l 1389 43 q 1377 12 1389 24 q 1345 0 1364 0 l 477 0 q 446 12 458 0 q 434 43 434 24 l 434 130 q 446 161 434 149 q 477 174 458 174 l 1345 174 m 1345 1042 q 1377 1029 1364 1042 q 1389 998 1389 1017 l 1389 911 q 1377 880 1389 892 q 1345 868 1364 868 l 477 868 q 446 880 458 868 q 434 911 434 892 l 434 998 q 446 1029 434 1017 q 477 1042 458 1042 l 1345 1042 m 1345 608 q 1377 595 1364 608 q 1389 564 1389 583 l 1389 477 q 1377 446 1389 458 q 1345 434 1364 434 l 477 434 q 446 446 458 434 q 434 477 434 458 l 434 564 q 446 595 434 583 q 477 608 458 608 l 1345 608 z "},"":{"ha":1215,"x_min":0,"x_max":1215,"o":"m 274 231 l 14 491 q 0 521 0 502 q 14 551 0 540 l 274 811 q 320 822 293 833 q 347 781 347 811 l 347 260 q 320 220 347 231 q 274 231 293 209 m 1172 87 q 1203 75 1191 87 q 1215 43 1215 62 l 1215 -43 q 1203 -75 1215 -62 q 1172 -87 1191 -87 l 43 -87 q 12 -75 24 -87 q 0 -43 0 -62 l 0 43 q 12 75 0 62 q 43 87 24 87 l 1172 87 m 1180 434 q 1204 423 1194 434 q 1215 399 1215 412 l 1215 296 q 1204 271 1215 282 q 1180 260 1194 260 l 556 260 q 532 271 543 260 q 521 296 521 282 l 521 399 q 532 423 521 412 q 556 434 543 434 l 1180 434 m 1180 781 q 1204 770 1194 781 q 1215 746 1215 760 l 1215 643 q 1204 618 1215 629 q 1180 608 1194 608 l 556 608 q 532 618 543 608 q 521 643 521 629 l 521 746 q 532 770 521 760 q 556 781 543 781 l 1180 781 m 1172 1128 q 1203 1116 1191 1128 q 1215 1085 1215 1104 l 1215 998 q 1203 967 1215 979 q 1172 955 1191 955 l 43 955 q 12 967 24 955 q 0 998 0 979 l 0 1085 q 12 1116 0 1104 q 43 1128 24 1128 l 1172 1128 z "},"":{"ha":1215,"x_min":0,"x_max":1215,"o":"m 73 231 q 27 220 54 209 q 0 260 0 231 l 0 781 q 27 822 0 811 q 73 811 54 833 l 334 551 q 347 521 347 540 q 334 491 347 502 l 73 231 m 1172 87 q 1203 75 1191 87 q 1215 43 1215 62 l 1215 -43 q 1203 -75 1215 -62 q 1172 -87 1191 -87 l 43 -87 q 12 -75 24 -87 q 0 -43 0 -62 l 0 43 q 12 75 0 62 q 43 87 24 87 l 1172 87 m 1180 434 q 1204 423 1194 434 q 1215 399 1215 412 l 1215 296 q 1204 271 1215 282 q 1180 260 1194 260 l 556 260 q 532 271 543 260 q 521 296 521 282 l 521 399 q 532 423 521 412 q 556 434 543 434 l 1180 434 m 1180 781 q 1204 770 1194 781 q 1215 746 1215 760 l 1215 643 q 1204 618 1215 629 q 1180 608 1194 608 l 556 608 q 532 618 543 608 q 521 643 521 629 l 521 746 q 532 770 521 760 q 556 781 543 781 l 1180 781 m 1172 1128 q 1203 1116 1191 1128 q 1215 1085 1215 1104 l 1215 998 q 1203 967 1215 979 q 1172 955 1191 955 l 43 955 q 12 967 24 955 q 0 998 0 979 l 0 1085 q 12 1116 0 1104 q 43 1128 24 1128 l 1172 1128 z "},"":{"ha":1563,"x_min":0,"x_max":1563,"o":"m 911 1042 q 1004 1004 966 1042 q 1042 911 1042 966 l 1042 130 q 1004 38 1042 76 q 911 0 966 0 l 130 0 q 38 38 76 0 q 0 130 0 76 l 0 911 q 38 1004 0 966 q 130 1042 76 1042 l 911 1042 m 1427 939 q 1516 945 1470 968 q 1563 868 1563 922 l 1563 174 q 1515 96 1563 119 q 1427 103 1468 73 l 1128 307 l 1128 735 l 1427 939 z "},"":{"ha":1389,"x_min":0,"x_max":1389,"o":"m 1259 0 l 130 0 q 38 38 76 0 q 0 130 0 76 l 0 911 q 38 1004 0 966 q 130 1042 76 1042 l 1259 1042 q 1351 1004 1313 1042 q 1389 911 1389 966 l 1389 130 q 1351 38 1389 76 q 1259 0 1313 0 m 411 845 q 389 867 411 845 q 304 890 366 890 q 197 845 241 890 q 152 738 152 800 q 197 631 152 675 q 304 586 241 586 q 411 631 366 586 q 456 738 456 675 q 411 845 456 800 m 174 174 l 1215 174 l 1215 477 l 977 716 q 933 716 955 738 l 564 347 l 412 499 q 369 499 391 521 l 174 304 l 174 174 z "},"":{"ha":1042,"x_min":0,"x_max":1042,"o":"m 467 -146 q 319 68 401 -52 q 201 236 236 187 q 119 357 165 285 q 58 458 73 429 q 26 534 43 488 q 4 614 8 581 q 0 694 0 648 q 152 1063 0 911 q 521 1215 304 1215 q 890 1063 738 1215 q 1042 694 1042 911 q 1038 614 1042 648 q 1016 534 1034 581 q 983 458 998 488 q 922 357 968 429 q 841 236 876 285 q 723 68 806 187 q 575 -146 640 -52 q 521 -174 556 -174 q 467 -146 486 -174 z "},"":{"ha":1389,"x_min":22,"x_max":1367,"o":"m 218 45 q 120 143 218 45 q 22 521 22 241 q 218 997 22 800 q 694 1194 415 1194 q 1171 997 974 1194 q 1367 521 1367 800 q 1171 45 1367 241 q 694 -152 974 -152 q 218 45 415 -152 m 694 22 q 1047 168 901 22 q 1194 521 1194 315 q 1047 873 1194 727 q 694 1020 901 1020 l 694 22 z "},"":{"ha":955,"x_min":0,"x_max":955,"o":"m 556 1156 q 673 886 600 1015 q 806 684 746 757 q 910 511 865 610 q 955 309 955 412 q 815 -33 955 109 q 477 -174 675 -174 q 140 -33 279 -174 q 0 309 0 109 q 45 510 0 412 q 151 684 90 608 q 283 887 212 760 q 399 1156 355 1015 q 479 1215 418 1215 q 556 1156 540 1215 m 477 0 q 509 12 496 0 q 521 43 521 24 q 509 75 521 62 q 477 87 496 87 q 324 151 388 87 q 260 304 260 214 q 248 335 260 323 q 217 347 236 347 q 186 335 198 347 q 174 304 174 323 q 263 90 174 179 q 477 0 353 0 z "},"":{"ha":1563,"x_min":0,"x_max":1563,"o":"m 1093 990 l 1337 746 q 1337 708 1356 727 l 743 114 l 494 87 q 463 92 477 84 q 439 115 448 100 q 434 146 431 130 l 461 396 l 1055 990 q 1093 990 1074 1009 m 1533 1053 q 1563 977 1563 1020 q 1533 901 1563 933 l 1435 806 q 1397 806 1416 787 l 1153 1050 q 1153 1088 1134 1069 l 1251 1183 q 1324 1215 1280 1215 q 1400 1183 1367 1215 l 1533 1053 m 1042 277 q 1053 298 1042 290 l 1161 407 q 1195 415 1175 423 q 1215 385 1215 407 l 1215 -43 q 1177 -136 1215 -98 q 1085 -174 1139 -174 l 130 -174 q 38 -136 76 -174 q 0 -43 0 -98 l 0 911 q 38 1004 0 966 q 130 1042 76 1042 l 906 1042 q 936 1021 928 1042 q 928 987 944 1001 l 819 879 q 798 868 811 868 l 174 868 l 174 0 l 1042 0 l 1042 277 z "},"":{"ha":1215,"x_min":174,"x_max":1042,"o":"m 174 -54 l 174 1096 q 206 1128 174 1128 l 336 1128 q 369 1096 369 1128 l 369 618 l 901 1109 q 991 1120 941 1145 q 1042 1042 1042 1096 l 1042 0 q 991 -79 1042 -54 q 901 -68 941 -103 l 369 420 l 369 -54 q 336 -87 369 -87 l 206 -87 q 174 -54 174 -87 z "},"":{"ha":1389,"x_min":0,"x_max":1389,"o":"m 0 33 l 0 1009 q 33 1042 0 1042 l 141 1042 q 174 1009 174 1042 l 174 597 l 640 1023 q 731 1034 681 1058 q 781 955 781 1009 l 781 597 l 1248 1023 q 1339 1034 1289 1058 q 1389 955 1389 1009 l 1389 87 q 1339 8 1389 33 q 1248 19 1289 -16 l 781 442 l 781 87 q 731 8 781 33 q 640 19 681 -16 l 174 442 l 174 33 q 141 0 174 0 l 33 0 q 0 33 0 0 z "},"":{"ha":1389,"x_min":0,"x_max":1389,"o":"m 33 453 q 0 521 0 480 q 33 589 0 562 l 553 1023 q 644 1034 594 1058 q 694 955 694 1009 l 694 87 q 644 8 694 33 q 553 19 594 -16 l 33 453 m 727 453 q 694 521 694 480 q 727 589 694 562 l 1248 1023 q 1339 1034 1289 1058 q 1389 955 1389 1009 l 1389 87 q 1339 8 1389 33 q 1248 19 1289 -16 l 727 453 z "},"":{"ha":1215,"x_min":0,"x_max":1218,"o":"m 1150 632 q 1215 521 1215 594 q 1150 410 1215 448 l 195 -155 q 66 -156 133 -193 q 0 -43 0 -119 l 0 1085 q 69 1200 0 1166 q 195 1196 138 1234 l 1150 632 z "},"":{"ha":1215,"x_min":0,"x_max":1215,"o":"m 391 -84 l 130 -84 q 38 -46 76 -84 q 0 46 0 -8 l 0 1001 q 38 1093 0 1055 q 130 1131 76 1131 l 391 1131 q 483 1093 445 1131 q 521 1001 521 1055 l 521 46 q 483 -46 521 -8 q 391 -84 445 -84 m 1215 46 q 1177 -46 1215 -8 q 1085 -84 1139 -84 l 825 -84 q 732 -46 770 -84 q 694 46 694 -8 l 694 1001 q 732 1093 694 1055 q 825 1131 770 1131 l 1085 1131 q 1177 1093 1139 1131 q 1215 1001 1215 1055 l 1215 46 z "},"":{"ha":1215,"x_min":0,"x_max":1215,"o":"m 1085 1128 q 1177 1090 1139 1128 q 1215 998 1215 1053 l 1215 43 q 1177 -49 1215 -11 q 1085 -87 1139 -87 l 130 -87 q 38 -49 76 -87 q 0 43 0 -11 l 0 998 q 38 1090 0 1053 q 130 1128 76 1128 l 1085 1128 z "},"":{"ha":1389,"x_min":0,"x_max":1389,"o":"m 1356 589 q 1389 521 1389 562 q 1356 453 1389 480 l 836 19 q 745 8 795 -16 q 694 87 694 33 l 694 955 q 745 1034 694 1009 q 836 1023 795 1058 l 1356 589 m 662 589 q 694 521 694 562 q 662 453 694 480 l 141 19 q 50 8 100 -16 q 0 87 0 33 l 0 955 q 50 1034 0 1009 q 141 1023 100 1058 l 662 589 z "},"":{"ha":1389,"x_min":0,"x_max":1389,"o":"m 1389 1009 l 1389 33 q 1356 0 1389 0 l 1248 0 q 1215 33 1215 0 l 1215 445 l 749 19 q 658 8 708 -16 q 608 87 608 33 l 608 445 l 141 19 q 50 8 100 -16 q 0 87 0 33 l 0 955 q 50 1034 0 1009 q 141 1023 100 1058 l 608 600 l 608 955 q 658 1034 608 1009 q 749 1023 708 1058 l 1215 600 l 1215 1009 q 1248 1042 1215 1042 l 1356 1042 q 1389 1009 1389 1042 z "},"":{"ha":1215,"x_min":174,"x_max":1042,"o":"m 1042 1096 l 1042 -54 q 1009 -87 1042 -87 l 879 -87 q 846 -54 846 -87 l 846 423 l 315 -68 q 224 -79 274 -103 q 174 0 174 -54 l 174 1042 q 224 1120 174 1096 q 315 1109 274 1145 l 846 621 l 846 1096 q 879 1128 846 1128 l 1009 1128 q 1042 1096 1042 1128 z "},"":{"ha":1215,"x_min":-24,"x_max":1240,"o":"m 1215 174 l 1215 0 q 1190 -61 1215 -35 q 1128 -87 1164 -87 l 87 -87 q 26 -61 52 -87 q 0 0 0 -35 l 0 174 q 26 235 0 209 q 87 260 52 260 l 1128 260 q 1190 235 1164 260 q 1215 174 1215 209 m 130 347 q 12 425 46 347 q 35 564 -22 502 l 513 1085 q 608 1128 551 1128 q 703 1085 665 1128 l 1180 564 q 1203 425 1237 502 q 1085 347 1169 347 l 130 347 z "},"":{"ha":868,"x_min":73,"x_max":795,"o":"m 95 567 l 621 1093 q 667 1112 640 1112 q 713 1093 694 1112 l 773 1034 q 793 987 792 1015 q 776 941 795 960 l 355 521 l 776 100 q 793 54 795 81 q 773 8 792 27 l 713 -52 q 667 -71 694 -71 q 621 -52 640 -71 l 95 475 q 73 521 73 494 q 95 567 73 548 z "},"":{"ha":868,"x_min":73,"x_max":795,"o":"m 773 475 l 247 -52 q 201 -71 228 -71 q 155 -52 174 -71 l 95 8 q 75 54 76 27 q 92 100 73 81 l 513 521 l 92 941 q 75 987 73 960 q 95 1034 76 1015 l 155 1093 q 201 1112 174 1112 q 247 1093 228 1112 l 773 567 q 795 521 795 548 q 773 475 795 494 z "},"":{"ha":1389,"x_min":22,"x_max":1367,"o":"m 218 997 q 317 1095 218 997 q 694 1194 415 1194 q 1171 997 974 1194 q 1367 521 1367 800 q 1171 45 1367 241 q 694 -152 974 -152 q 218 45 415 -152 q 22 521 22 241 q 218 997 22 800 m 1085 445 l 1085 597 q 1053 629 1085 629 l 803 629 l 803 879 q 770 911 803 911 l 618 911 q 586 879 586 911 l 586 629 l 336 629 q 304 597 304 629 l 304 445 q 336 412 304 412 l 586 412 l 586 163 q 618 130 586 130 l 770 130 q 803 163 803 130 l 803 412 l 1053 412 q 1085 445 1085 412 z "},"":{"ha":1389,"x_min":22,"x_max":1367,"o":"m 218 997 q 317 1095 218 997 q 694 1194 415 1194 q 1171 997 974 1194 q 1367 521 1367 800 q 1171 45 1367 241 q 694 -152 974 -152 q 218 45 415 -152 q 22 521 22 241 q 218 997 22 800 m 336 412 l 1053 412 q 1085 445 1085 412 l 1085 597 q 1053 629 1085 629 l 336 629 q 304 597 304 629 l 304 445 q 336 412 304 412 z "},"":{"ha":1389,"x_min":22,"x_max":1367,"o":"m 218 997 q 317 1095 218 997 q 694 1194 415 1194 q 1171 997 974 1194 q 1367 521 1367 800 q 1171 45 1367 241 q 694 -152 974 -152 q 218 45 415 -152 q 22 521 22 241 q 218 997 22 800 m 1025 345 l 846 521 l 1025 697 q 1025 743 1047 722 l 917 852 q 871 852 895 873 l 694 673 l 518 852 q 472 852 494 873 l 363 743 q 363 697 342 722 l 543 521 l 363 345 q 363 298 342 320 l 472 190 q 518 190 494 168 l 694 369 l 871 190 q 917 190 895 168 l 1025 298 q 1025 345 1047 320 z "},"":{"ha":1389,"x_min":22,"x_max":1367,"o":"m 1171 997 q 1269 899 1171 997 q 1367 521 1367 800 q 1171 45 1367 241 q 694 -152 974 -152 q 218 45 415 -152 q 22 521 22 241 q 218 997 22 800 q 694 1194 415 1194 q 1171 997 974 1194 m 616 165 l 1115 665 q 1115 724 1147 694 l 1055 787 q 993 787 1023 817 l 586 380 l 396 570 q 334 570 366 600 l 274 507 q 274 448 241 477 l 556 165 q 616 165 586 133 z "},"":{"ha":1389,"x_min":22,"x_max":1367,"o":"m 1171 997 q 1269 899 1171 997 q 1367 521 1367 800 q 1171 45 1367 241 q 694 -152 974 -152 q 218 45 415 -152 q 22 521 22 241 q 218 997 22 800 q 694 1194 415 1194 q 1171 997 974 1194 m 713 971 q 396 798 513 971 q 404 754 380 773 l 499 684 q 543 689 524 665 q 590 742 572 724 q 635 773 608 760 q 697 787 662 787 q 783 761 743 787 q 822 697 822 735 q 802 650 822 667 q 735 605 781 632 q 663 562 686 578 q 613 505 640 545 q 586 412 586 464 l 586 401 q 618 369 586 369 l 770 369 q 803 401 803 369 l 803 404 q 838 453 803 429 q 916 499 873 477 q 993 572 958 521 q 1028 694 1028 624 q 930 890 1028 808 q 713 971 833 971 m 783 262 q 764 280 783 262 q 694 298 746 298 q 606 262 643 298 q 570 174 570 225 q 606 85 570 122 q 694 49 643 49 q 783 85 746 49 q 819 174 819 122 q 783 262 819 225 z "},"":{"ha":1389,"x_min":22,"x_max":1367,"o":"m 218 997 q 317 1095 218 997 q 694 1194 415 1194 q 1171 997 974 1194 q 1367 521 1367 800 q 1171 45 1367 241 q 694 -152 974 -152 q 218 45 415 -152 q 22 521 22 241 q 218 997 22 800 m 774 861 q 758 878 774 861 q 694 895 741 895 q 614 861 648 895 q 581 781 581 827 q 614 701 581 735 q 694 667 648 667 q 774 701 741 667 q 808 781 808 735 q 774 861 808 827 m 846 206 l 846 271 q 814 304 846 304 l 781 304 l 781 575 q 749 608 781 608 l 575 608 q 543 575 543 608 l 543 510 q 575 477 543 477 l 608 477 l 608 304 l 575 304 q 543 271 543 304 l 543 206 q 575 174 543 174 l 814 174 q 846 206 846 174 z "},"":{"ha":1389,"x_min":0,"x_max":1389,"o":"m 1356 608 q 1389 575 1389 608 l 1389 467 q 1356 434 1389 434 l 1275 434 q 1187 203 1256 309 q 1012 28 1118 98 q 781 -60 906 -41 l 781 -141 q 749 -174 781 -174 l 640 -174 q 608 -141 608 -174 l 608 -60 q 281 107 418 -30 q 114 434 144 244 l 33 434 q 0 467 0 434 l 0 575 q 33 608 0 608 l 114 608 q 281 935 144 798 q 608 1101 418 1072 l 608 1183 q 640 1215 608 1215 l 749 1215 q 781 1183 781 1215 l 781 1101 q 1108 935 971 1072 q 1275 608 1245 798 l 1356 608 m 781 117 q 986 229 901 144 q 1099 434 1072 315 l 987 434 q 955 467 955 434 l 955 575 q 987 608 955 608 l 1099 608 q 986 812 1072 727 q 781 925 901 898 l 781 814 q 749 781 781 781 l 640 781 q 608 814 608 781 l 608 925 q 403 812 488 898 q 290 608 317 727 l 401 608 q 434 575 434 608 l 434 467 q 401 434 434 434 l 290 434 q 403 229 317 315 q 608 117 488 144 l 608 228 q 640 260 608 260 l 749 260 q 781 228 781 260 l 781 117 m 755 582 q 768 569 755 582 q 781 521 781 556 q 755 460 781 486 q 694 434 730 434 q 633 460 659 434 q 608 521 608 486 q 633 582 608 556 q 694 608 659 608 q 755 582 730 608 z "},"":{"ha":1389,"x_min":22,"x_max":1367,"o":"m 218 997 q 317 1095 218 997 q 694 1194 415 1194 q 1171 997 974 1194 q 1367 521 1367 800 q 1171 45 1367 241 q 694 -152 974 -152 q 218 45 415 -152 q 22 521 22 241 q 218 997 22 800 m 1192 559 q 1185 651 1192 559 q 1047 873 1177 743 q 732 1019 917 1004 q 407 930 548 1034 l 1104 233 q 1192 559 1207 374 m 197 483 q 204 391 197 483 q 342 168 212 298 q 656 23 472 38 q 982 111 841 8 l 285 808 q 197 483 182 667 z "},"":{"ha":1215,"x_min":-3,"x_max":1215,"o":"m 700 8 l 637 -52 q 591 -71 618 -71 q 545 -52 564 -71 l 19 475 q 0 521 0 494 q 19 567 0 548 l 545 1093 q 591 1112 564 1112 q 637 1093 618 1112 l 700 1034 q 718 987 719 1015 q 697 941 716 960 l 372 629 l 1150 629 q 1196 610 1177 629 q 1215 564 1215 591 l 1215 477 q 1196 431 1215 450 q 1150 412 1177 412 l 372 412 l 697 100 q 718 54 716 81 q 700 8 719 27 z "},"":{"ha":1215,"x_min":0,"x_max":1218,"o":"m 515 1034 l 578 1093 q 624 1112 597 1112 q 670 1093 651 1112 l 1196 567 q 1215 521 1215 548 q 1196 475 1215 494 l 670 -52 q 624 -71 651 -71 q 578 -52 597 -71 l 515 8 q 498 54 496 27 q 518 100 499 81 l 844 412 l 65 412 q 19 431 38 412 q 0 477 0 450 l 0 564 q 19 610 0 591 q 65 629 38 629 l 844 629 l 518 941 q 498 987 499 960 q 515 1034 496 1015 z "},"":{"ha":1215,"x_min":14,"x_max":1202,"o":"m 95 429 l 35 491 q 16 537 16 510 q 35 583 16 564 l 562 1109 q 608 1128 581 1128 q 654 1109 635 1128 l 1180 583 q 1199 537 1199 564 q 1180 491 1199 510 l 1120 431 q 1074 411 1101 410 q 1028 431 1047 412 l 716 757 l 716 -22 q 697 -68 716 -49 q 651 -87 678 -87 l 564 -87 q 518 -68 537 -87 q 499 -22 499 -49 l 499 757 l 187 431 q 141 411 168 412 q 95 429 114 410 z "},"":{"ha":1215,"x_min":14,"x_max":1202,"o":"m 1120 613 l 1180 551 q 1199 505 1199 532 q 1180 458 1199 477 l 654 -68 q 608 -87 635 -87 q 562 -68 581 -87 l 35 458 q 16 505 16 477 q 35 551 16 532 l 95 613 q 141 631 114 632 q 187 610 168 629 l 499 285 l 499 1063 q 518 1109 499 1090 q 564 1128 537 1128 l 651 1128 q 697 1109 678 1128 q 716 1063 716 1090 l 716 285 l 1028 610 q 1074 631 1047 629 q 1120 613 1101 632 z "},"":{"ha":1389,"x_min":0,"x_max":1392,"o":"m 1367 700 q 1389 651 1389 681 q 1367 602 1389 621 l 890 190 q 819 180 857 163 q 781 239 781 198 l 781 477 q 556 460 648 475 q 396 411 464 445 q 297 320 328 377 q 266 176 266 263 q 301 -27 266 90 q 283 -79 312 -60 q 225 -76 255 -98 q 65 107 130 -8 q 0 342 0 222 q 41 551 0 461 q 149 696 81 640 q 320 785 217 751 q 532 831 423 819 q 781 846 640 844 l 781 1063 q 819 1122 781 1104 q 890 1112 857 1139 l 1367 700 z "},"":{"ha":1215,"x_min":0,"x_max":1215,"o":"m 0 727 l 0 1063 q 19 1109 0 1090 q 65 1128 38 1128 l 401 1128 q 434 1096 434 1128 l 434 987 q 401 955 434 955 l 174 955 l 174 727 q 141 694 174 694 l 33 694 q 0 727 0 694 m 781 1096 q 814 1128 781 1128 l 1150 1128 q 1196 1109 1177 1128 q 1215 1063 1215 1090 l 1215 727 q 1183 694 1215 694 l 1074 694 q 1042 727 1042 694 l 1042 955 l 814 955 q 781 987 781 955 l 781 1096 m 1183 347 q 1215 315 1215 347 l 1215 -22 q 1196 -68 1215 -49 q 1150 -87 1177 -87 l 814 -87 q 781 -54 781 -87 l 781 54 q 814 87 781 87 l 1042 87 l 1042 315 q 1074 347 1042 347 l 1183 347 m 434 -54 q 401 -87 434 -87 l 65 -87 q 19 -68 38 -87 q 0 -22 0 -49 l 0 315 q 33 347 0 347 l 141 347 q 174 315 174 347 l 174 87 l 401 87 q 434 54 434 87 l 434 -54 z "},"":{"ha":1215,"x_min":0,"x_max":1215,"o":"m 1183 694 l 846 694 q 800 713 819 694 q 781 760 781 732 l 781 1096 q 814 1128 781 1128 l 922 1128 q 955 1096 955 1128 l 955 868 l 1183 868 q 1215 836 1215 868 l 1215 727 q 1183 694 1215 694 m 434 760 q 415 713 434 732 q 369 694 396 694 l 33 694 q 0 727 0 694 l 0 836 q 33 868 0 868 l 260 868 l 260 1096 q 293 1128 260 1128 l 401 1128 q 434 1096 434 1128 l 434 760 m 434 -54 q 401 -87 434 -87 l 293 -87 q 260 -54 260 -87 l 260 174 l 33 174 q 0 206 0 174 l 0 315 q 33 347 0 347 l 369 347 q 415 328 396 347 q 434 282 434 309 l 434 -54 m 955 -54 q 922 -87 955 -87 l 814 -87 q 781 -54 781 -87 l 781 282 q 800 328 781 309 q 846 347 819 347 l 1183 347 q 1215 315 1215 347 l 1215 206 q 1183 174 1215 174 l 955 174 l 955 -54 z "},"":{"ha":1215,"x_min":0,"x_max":1215,"o":"m 1128 651 q 1190 625 1164 651 q 1215 564 1215 600 l 1215 477 q 1190 416 1215 442 q 1128 391 1164 391 l 738 391 l 738 0 q 712 -61 738 -35 q 651 -87 686 -87 l 564 -87 q 503 -61 529 -87 q 477 0 477 -35 l 477 391 l 87 391 q 26 416 52 391 q 0 477 0 442 l 0 564 q 26 625 0 600 q 87 651 52 651 l 477 651 l 477 1042 q 503 1103 477 1077 q 564 1128 529 1128 l 651 1128 q 712 1103 686 1128 q 738 1042 738 1077 l 738 651 l 1128 651 z "},"":{"ha":1215,"x_min":0,"x_max":1215,"o":"m 1128 651 q 1190 625 1164 651 q 1215 564 1215 600 l 1215 477 q 1190 416 1215 442 q 1128 391 1164 391 l 87 391 q 26 416 52 391 q 0 477 0 442 l 0 564 q 26 625 0 600 q 87 651 52 651 l 1128 651 z "},"":{"ha":1389,"x_min":52,"x_max":1337,"o":"m 1297 309 q 1328 270 1321 296 q 1321 220 1335 244 l 1270 127 q 1229 96 1256 103 q 1180 106 1202 90 l 803 334 l 811 -106 q 795 -155 814 -136 q 746 -174 776 -174 l 643 -174 q 594 -155 613 -174 q 578 -106 575 -136 l 586 334 l 209 106 q 160 96 187 90 q 119 127 133 103 l 68 220 q 61 270 54 244 q 92 309 68 296 l 477 521 l 92 732 q 61 772 68 746 q 68 822 54 798 l 119 914 q 160 945 133 939 q 209 936 187 952 l 586 708 l 578 1147 q 585 1181 575 1166 q 609 1206 594 1196 q 643 1215 624 1215 l 746 1215 q 795 1196 776 1215 q 811 1147 814 1177 l 803 708 l 1180 936 q 1229 945 1202 952 q 1270 914 1256 939 l 1321 822 q 1328 772 1335 798 q 1297 732 1321 746 l 911 521 l 1297 309 z "},"":{"ha":1389,"x_min":22,"x_max":1367,"o":"m 1171 997 q 1269 899 1171 997 q 1367 521 1367 800 q 1171 45 1367 241 q 694 -152 974 -152 q 218 45 415 -152 q 22 521 22 241 q 218 997 22 800 q 694 1194 415 1194 q 1171 997 974 1194 m 783 349 q 764 367 783 349 q 694 385 746 385 q 606 349 643 385 q 570 260 570 312 q 606 172 570 209 q 694 136 643 136 q 783 172 746 136 q 819 260 819 209 q 783 349 819 312 m 575 833 l 597 464 q 629 434 597 434 l 760 434 q 792 464 792 434 l 814 833 q 804 859 814 849 q 781 868 795 868 l 608 868 q 585 859 594 868 q 575 833 575 849 z "},"":{"ha":1389,"x_min":0,"x_max":1389,"o":"m 87 0 l 87 347 l 608 347 l 608 -87 l 174 -87 q 113 -61 138 -87 q 87 0 87 -35 m 781 -87 l 781 347 l 1302 347 l 1302 0 q 1276 -61 1302 -35 q 1215 -87 1251 -87 l 781 -87 m 1302 781 q 1363 755 1337 781 q 1389 694 1389 730 l 1389 477 q 1377 446 1389 458 q 1345 434 1364 434 l 43 434 q 12 446 24 434 q 0 477 0 458 l 0 694 q 26 755 0 730 q 87 781 52 781 l 206 781 q 179 890 179 833 q 250 1058 179 987 q 418 1128 320 1128 q 562 1085 499 1128 q 697 944 624 1042 q 833 1085 770 1042 q 977 1128 895 1128 q 1145 1058 1074 1128 q 1215 890 1215 987 q 1188 781 1215 836 l 1302 781 m 418 781 l 651 781 q 511 962 556 925 q 418 998 467 998 q 363 983 388 998 q 324 944 339 968 q 309 890 309 920 q 340 812 309 844 q 418 781 372 781 m 977 781 q 1054 812 1023 781 q 1085 890 1085 844 q 1054 967 1085 936 q 977 998 1023 998 q 921 989 944 998 q 854 930 898 979 q 743 781 811 882 l 977 781 z "},"":{"ha":1563,"x_min":-8,"x_max":1563,"o":"m 1481 1188 q 1563 798 1563 1009 q 1358 191 1563 442 q 836 -84 1153 -60 q 560 -38 684 -100 q 363 125 437 24 q 168 -119 220 5 q 121 -167 155 -152 q 54 -168 87 -182 q 7 -121 22 -155 q 5 -54 -8 -87 q 73 66 30 3 q 203 214 117 130 q 400 363 290 298 q 680 475 510 429 q 1042 521 849 521 q 1073 533 1061 521 q 1085 564 1085 545 q 1073 595 1085 583 q 1042 608 1061 608 q 266 380 583 608 q 260 434 260 418 q 412 803 260 651 q 781 955 564 955 l 998 955 q 1233 1019 1126 955 q 1405 1194 1340 1082 q 1444 1215 1419 1215 q 1481 1188 1470 1215 z "},"":{"ha":1042,"x_min":0,"x_max":1042,"o":"m 586 1150 q 633 1006 586 1074 q 747 879 681 939 q 880 751 814 819 q 994 579 947 684 q 1042 347 1042 475 q 888 -20 1042 133 q 521 -174 735 -174 q 153 -20 307 -174 q 0 347 0 133 q 149 713 0 559 q 220 730 179 746 q 260 667 260 713 l 260 437 q 311 312 260 363 q 431 260 361 260 q 556 311 505 260 q 608 434 608 361 q 582 524 608 480 q 521 602 556 567 q 446 675 486 637 q 381 760 407 713 q 347 863 355 806 q 368 1002 339 920 q 467 1185 396 1085 q 540 1213 494 1226 q 586 1150 586 1199 z "},"":{"ha":1563,"x_min":0,"x_max":1563,"o":"m 1554 562 q 1563 521 1563 543 q 1554 480 1563 499 q 1234 132 1440 263 q 781 0 1028 0 q 468 61 618 0 q 201 229 317 122 q 8 480 84 336 q 0 521 0 499 q 8 562 0 543 q 328 910 122 779 q 781 1042 534 1042 q 1234 910 1028 1042 q 1554 562 1440 779 m 781 130 q 1058 244 944 130 q 1172 521 1172 358 q 1058 798 1172 684 q 781 911 944 911 q 505 798 618 911 q 391 521 391 684 q 505 244 391 358 q 781 130 618 130 m 781 781 q 966 705 890 781 q 1042 522 1042 629 q 966 338 1042 415 q 783 260 890 260 q 598 338 675 260 q 521 521 521 415 q 532 589 521 556 q 608 564 564 564 q 700 602 662 564 q 738 694 738 640 q 713 770 738 738 q 781 781 746 781 z "},"":{"ha":1736,"x_min":0,"x_max":1739,"o":"m 868 130 q 939 138 903 130 l 1080 27 q 868 0 968 0 q 415 132 621 0 q 95 480 209 263 q 87 521 87 499 q 95 562 87 543 q 195 711 133 632 l 480 491 q 541 308 488 391 q 681 178 594 225 q 868 130 768 130 m 1720 -27 q 1736 -62 1736 -41 q 1728 -90 1736 -76 l 1674 -157 q 1638 -174 1660 -174 q 1614 -165 1625 -174 l 16 1069 q 0 1104 0 1082 q 8 1131 0 1118 l 62 1199 q 98 1215 76 1215 q 122 1207 111 1215 l 469 939 q 590 991 518 968 q 736 1028 662 1015 q 868 1042 811 1042 q 1321 910 1115 1042 q 1641 562 1527 779 q 1649 521 1649 543 q 1641 480 1649 499 q 1541 334 1606 415 q 1419 203 1476 252 l 1720 -27 m 1221 358 q 1259 521 1259 437 q 1145 798 1259 684 q 868 911 1031 911 q 738 886 811 911 q 621 822 665 860 l 819 667 q 825 694 825 681 q 800 770 825 738 q 871 781 836 781 q 1053 705 977 781 q 1128 524 1128 629 q 1128 521 1128 524 q 1115 439 1128 480 l 1221 358 z "},"":{"ha":1563,"x_min":-22,"x_max":1584,"o":"m 1546 22 q 1545 -109 1581 -43 q 1432 -174 1508 -174 l 130 -174 q 18 -109 54 -174 q 16 22 -19 -43 l 667 1150 q 781 1215 705 1215 q 895 1150 857 1215 l 1546 22 m 869 218 q 851 237 869 218 q 781 255 833 255 q 693 218 730 255 q 656 130 656 182 q 693 42 656 79 q 781 5 730 5 q 869 42 833 5 q 906 130 906 79 q 869 218 906 182 m 662 703 l 684 334 q 716 304 684 304 l 846 304 q 879 334 879 304 l 901 703 q 891 728 901 719 q 868 738 882 738 l 694 738 q 671 728 681 738 q 662 703 662 719 z "},"":{"ha":1563,"x_min":-5,"x_max":1563,"o":"m 1302 694 q 1473 642 1383 694 q 1563 521 1563 589 q 1473 400 1563 453 q 1302 347 1383 347 l 993 347 l 708 -152 q 670 -174 694 -174 l 491 -174 q 457 -156 469 -174 q 450 -119 445 -138 l 583 347 l 304 347 l 187 190 q 152 174 174 174 l 43 174 q 9 190 22 174 q 0 228 -3 206 l 87 521 l 0 814 q 9 852 -3 836 q 43 868 22 868 l 152 868 q 187 852 174 868 l 304 694 l 583 694 l 450 1161 q 449 1180 448 1169 q 457 1199 450 1191 q 472 1211 464 1207 q 491 1215 480 1215 l 670 1215 q 708 1194 694 1215 l 993 694 l 1302 694 z "},"":{"ha":1215,"x_min":0,"x_max":1215,"o":"m 0 -43 l 0 694 l 1215 694 l 1215 -43 q 1177 -136 1215 -98 q 1085 -174 1139 -174 l 130 -174 q 38 -136 76 -174 q 0 -43 0 -98 m 868 488 l 868 380 q 901 347 868 347 l 1009 347 q 1042 380 1042 347 l 1042 488 q 1009 521 1042 521 l 901 521 q 868 488 868 521 m 868 141 l 868 33 q 901 0 868 0 l 1009 0 q 1042 33 1042 0 l 1042 141 q 1009 174 1042 174 l 901 174 q 868 141 868 174 m 521 488 l 521 380 q 553 347 521 347 l 662 347 q 694 380 694 347 l 694 488 q 662 521 694 521 l 553 521 q 521 488 521 521 m 521 141 l 521 33 q 553 0 521 0 l 662 0 q 694 33 694 0 l 694 141 q 662 174 694 174 l 553 174 q 521 141 521 174 m 174 488 l 174 380 q 206 347 174 347 l 315 347 q 347 380 347 347 l 347 488 q 315 521 347 521 l 206 521 q 174 488 174 521 m 174 141 l 174 33 q 206 0 174 0 l 315 0 q 347 33 347 0 l 347 141 q 315 174 347 174 l 206 174 q 174 141 174 174 m 1085 1042 q 1177 1004 1139 1042 q 1215 911 1215 966 l 1215 781 l 0 781 l 0 911 q 38 1004 0 966 q 130 1042 76 1042 l 260 1042 l 260 1172 q 273 1203 260 1191 q 304 1215 285 1215 l 391 1215 q 422 1203 410 1215 q 434 1172 434 1191 l 434 1042 l 781 1042 l 781 1172 q 793 1203 781 1191 q 825 1215 806 1215 l 911 1215 q 943 1203 930 1215 q 955 1172 955 1191 l 955 1042 l 1085 1042 z "},"":{"ha":1389,"x_min":0,"x_max":1392,"o":"m 1370 241 q 1389 195 1389 222 q 1370 149 1389 168 l 1153 -68 q 1082 -81 1123 -98 q 1042 -22 1042 -65 l 1042 87 l 882 87 q 857 98 868 87 l 667 301 l 811 458 l 955 304 l 1042 304 l 1042 412 q 1082 472 1042 456 q 1153 458 1123 488 l 1370 241 m 33 738 q 0 770 0 738 l 0 922 q 33 955 0 955 l 334 955 q 358 944 347 955 l 548 741 l 404 583 l 260 738 l 33 738 m 1042 738 l 955 738 l 358 98 q 334 87 347 87 l 33 87 q 0 119 0 87 l 0 271 q 33 304 0 304 l 260 304 l 857 944 q 882 955 868 955 l 1042 955 l 1042 1063 q 1082 1123 1042 1107 q 1153 1109 1123 1139 l 1370 892 q 1389 846 1389 873 q 1370 800 1389 819 l 1153 583 q 1082 570 1123 553 q 1042 629 1042 586 l 1042 738 z "},"":{"ha":1389,"x_min":-5,"x_max":1389,"o":"m 203 963 q 305 1046 203 963 q 694 1128 407 1128 q 1185 963 982 1128 q 1389 564 1389 798 q 1185 165 1389 331 q 694 0 982 0 q 404 52 543 0 q 22 -87 228 -87 q 11 -83 16 -87 q 3 -73 5 -79 q 7 -50 -3 -60 q 39 -12 16 -41 q 100 83 62 16 q 155 209 138 149 q 0 564 0 363 q 203 963 0 798 z "},"":{"ha":1389,"x_min":0,"x_max":1389,"o":"m 445 814 l 33 814 q 9 823 19 814 q 0 846 0 833 l 0 1063 q 28 1133 0 1104 q 98 1161 57 1161 l 380 1161 q 449 1133 420 1161 q 477 1063 477 1104 l 477 846 q 473 830 477 838 q 461 818 469 822 q 445 814 453 814 m 1389 846 q 1379 823 1389 833 q 1356 814 1370 814 l 944 814 q 911 846 911 814 l 911 1063 q 940 1133 911 1104 q 1009 1161 968 1161 l 1291 1161 q 1360 1133 1332 1161 q 1389 1063 1389 1104 l 1389 846 m 944 727 l 1356 727 q 1379 718 1370 727 q 1389 694 1389 708 q 1389 551 1386 575 q 1283 198 1389 355 q 1020 -39 1177 41 q 696 -119 863 -119 q 372 -39 529 -119 q 107 198 214 41 q 0 548 0 355 q 0 694 0 562 q 9 718 0 708 q 33 727 19 727 l 445 727 q 468 718 458 727 q 477 694 477 708 l 477 553 q 545 361 477 431 q 694 290 613 290 q 844 361 776 290 q 911 553 911 431 l 911 694 q 921 718 911 708 q 944 727 930 727 z "},"":{"ha":1215,"x_min":14,"x_max":1202,"o":"m 654 860 l 1180 334 q 1199 288 1199 315 q 1180 241 1199 260 l 1120 182 q 1074 161 1101 163 q 1028 179 1047 160 l 608 600 l 187 179 q 141 161 168 160 q 95 182 114 163 l 35 241 q 16 288 16 260 q 35 334 16 315 l 562 860 q 608 882 581 882 q 654 860 635 882 z "},"":{"ha":1215,"x_min":14,"x_max":1202,"o":"m 562 182 l 35 708 q 16 754 16 727 q 35 800 16 781 l 95 860 q 141 880 114 879 q 187 863 168 882 l 608 442 l 1028 863 q 1074 880 1047 882 q 1120 860 1101 879 l 1180 800 q 1199 754 1199 781 q 1180 708 1199 727 l 654 182 q 608 160 635 160 q 562 182 581 160 z "},"":{"ha":1736,"x_min":8,"x_max":1728,"o":"m 1709 282 l 1435 11 q 1389 -8 1416 -8 q 1343 11 1362 -8 l 1069 282 q 1050 328 1050 301 q 1069 374 1050 355 l 1099 404 q 1146 423 1118 423 q 1194 404 1175 423 l 1302 288 l 1302 781 l 792 781 q 746 800 768 781 l 703 844 q 689 914 673 873 q 749 955 705 955 l 1411 955 q 1457 936 1438 955 q 1476 890 1476 917 l 1476 288 l 1584 404 q 1632 423 1603 423 q 1679 404 1660 423 l 1709 374 q 1728 328 1728 355 q 1709 282 1728 301 m 990 241 l 1034 198 q 1047 127 1063 168 q 987 87 1031 87 l 326 87 q 279 106 298 87 q 260 152 260 125 l 260 754 l 152 637 q 104 618 133 618 q 57 637 76 618 l 27 667 q 8 713 8 686 q 27 760 8 741 l 301 1031 q 347 1050 320 1050 q 393 1031 374 1050 l 667 760 q 686 713 686 741 q 667 667 686 686 l 637 637 q 590 618 618 618 q 543 637 562 618 l 434 754 l 434 260 l 944 260 q 990 241 968 260 z "},"":{"ha":1563,"x_min":0,"x_max":1568,"o":"m 1432 399 q 1370 347 1421 347 l 575 347 l 591 260 l 1321 260 q 1370 236 1351 260 q 1383 182 1389 212 l 1367 114 q 1454 -22 1454 73 q 1409 -129 1454 -84 q 1302 -174 1364 -174 q 1195 -129 1240 -174 q 1150 -22 1150 -84 q 1196 87 1150 43 l 627 87 q 673 -22 673 43 q 628 -129 673 -84 q 521 -174 583 -174 q 414 -129 458 -174 q 369 -22 369 -84 q 445 111 369 65 l 255 1042 l 65 1042 q 19 1061 38 1042 q 0 1107 0 1080 l 0 1150 q 19 1196 0 1177 q 65 1215 38 1215 l 345 1215 q 384 1200 366 1215 q 407 1164 401 1185 l 431 1042 l 1497 1042 q 1549 1017 1530 1042 q 1560 963 1568 993 l 1432 399 z "},"":{"ha":1389,"x_min":0,"x_max":1389,"o":"m 1259 868 q 1351 830 1313 868 q 1389 738 1389 792 l 1389 130 q 1351 38 1389 76 q 1259 0 1313 0 l 130 0 q 38 38 76 0 q 0 130 0 76 l 0 911 q 38 1004 0 966 q 130 1042 76 1042 l 564 1042 l 738 868 l 1259 868 z "},"":{"ha":1563,"x_min":0,"x_max":1573,"o":"m 1554 423 l 1356 87 q 1293 26 1337 52 q 1207 0 1248 0 l 122 0 q 65 33 84 0 q 65 98 46 65 l 263 434 q 327 495 282 469 q 412 521 372 521 l 1497 521 q 1554 488 1535 521 q 1554 423 1573 456 m 412 608 q 323 591 366 608 q 245 547 279 575 q 187 477 212 518 l 0 157 l 0 911 q 38 1004 0 966 q 130 1042 76 1042 l 564 1042 l 738 868 l 1172 868 q 1264 830 1226 868 q 1302 738 1302 792 l 1302 608 l 412 608 z "},"":{"ha":1389,"x_min":0,"x_max":1389,"o":"m 903 347 q 879 358 890 347 q 868 382 868 369 l 868 746 q 879 770 868 760 q 903 781 890 781 l 1006 781 q 1031 770 1020 781 q 1042 746 1042 760 l 1042 382 q 1031 358 1042 369 q 1006 347 1020 347 l 903 347 m 1164 347 q 1139 358 1150 347 q 1128 382 1128 369 l 1128 1006 q 1139 1031 1128 1020 q 1164 1042 1150 1042 l 1267 1042 q 1291 1031 1280 1042 q 1302 1006 1302 1020 l 1302 382 q 1291 358 1302 369 q 1267 347 1280 347 l 1164 347 m 382 347 q 358 358 369 347 q 347 382 347 369 l 347 572 q 358 597 347 586 q 382 608 369 608 l 486 608 q 510 597 499 608 q 521 572 521 586 l 521 382 q 510 358 521 369 q 486 347 499 347 l 382 347 m 643 347 q 618 358 629 347 q 608 382 608 369 l 608 920 q 618 944 608 933 q 643 955 629 955 l 746 955 q 770 944 760 955 q 781 920 781 933 l 781 382 q 770 358 781 369 q 746 347 760 347 l 643 347 m 1345 174 q 1377 161 1364 174 q 1389 130 1389 149 l 1389 43 q 1377 12 1389 24 q 1345 0 1364 0 l 87 0 q 26 26 52 0 q 0 87 0 52 l 0 998 q 12 1029 0 1017 q 43 1042 24 1042 l 130 1042 q 161 1029 149 1042 q 174 998 174 1017 l 174 174 l 1345 174 z "},"":{"ha":1389,"x_min":0,"x_max":1389,"o":"m 130 1128 l 1259 1128 q 1351 1090 1313 1128 q 1389 998 1389 1053 l 1389 43 q 1351 -49 1389 -11 q 1259 -87 1313 -87 l 130 -87 q 38 -49 76 -87 q 0 43 0 -11 l 0 998 q 38 1090 0 1053 q 130 1128 76 1128 m 130 1042 q 99 1029 111 1042 q 87 998 87 1017 l 87 971 q 103 955 87 955 l 418 955 q 434 971 434 955 l 434 1025 q 418 1042 434 1042 l 130 1042 m 1286 781 q 1302 798 1302 781 l 1302 998 q 1290 1029 1302 1017 q 1259 1042 1278 1042 l 572 1042 q 559 1034 564 1042 l 477 911 l 103 911 q 87 895 87 911 l 87 798 q 103 781 87 781 l 1286 781 m 464 160 q 511 113 464 160 q 694 65 559 65 q 925 160 830 65 q 1020 391 1020 255 q 925 621 1020 526 q 694 716 830 716 q 464 621 559 716 q 369 391 369 526 q 464 160 369 255 m 526 559 q 562 594 526 559 q 694 629 597 629 q 863 559 792 629 q 933 391 933 488 q 863 222 933 293 q 694 152 792 152 q 526 222 597 152 q 456 391 456 293 q 526 559 456 488 m 533 359 q 539 353 533 359 q 564 347 545 347 q 595 359 583 347 q 608 391 608 372 q 633 452 608 426 q 694 477 659 477 q 726 490 713 477 q 738 521 738 502 q 726 552 738 540 q 694 564 713 564 q 572 513 624 564 q 521 391 521 461 q 533 359 521 372 z "},"":{"ha":1389,"x_min":0,"x_max":1389,"o":"m 1389 738 q 1249 400 1389 540 q 911 260 1109 260 q 822 269 865 260 l 757 195 q 708 174 738 174 l 608 174 l 608 65 q 589 19 608 38 q 543 0 570 0 l 434 0 l 434 -109 q 415 -155 434 -136 q 369 -174 396 -174 l 65 -174 q 19 -155 38 -174 q 0 -109 0 -136 l 0 103 q 19 149 0 130 l 458 589 q 434 738 434 662 q 498 978 434 868 q 671 1152 562 1088 q 911 1215 781 1215 q 1249 1076 1109 1215 q 1389 738 1389 936 m 949 960 q 930 941 949 960 q 911 868 911 922 q 949 776 911 814 q 1042 738 987 738 q 1134 776 1096 738 q 1172 868 1172 814 q 1134 960 1172 922 q 1042 998 1096 998 q 949 960 987 998 z "},"":{"ha":1736,"x_min":-16,"x_max":1742,"o":"m 1389 697 l 1367 659 q 1326 643 1354 635 q 1240 694 1278 662 q 1232 738 1218 713 l 1253 776 q 1210 849 1226 808 l 1166 849 q 1134 879 1137 849 q 1134 979 1123 928 q 1166 1006 1137 1006 l 1210 1006 q 1253 1080 1226 1047 l 1232 1120 q 1240 1161 1218 1145 q 1326 1213 1278 1194 q 1367 1199 1354 1223 l 1389 1158 q 1476 1158 1432 1166 l 1497 1199 q 1538 1213 1511 1223 q 1625 1161 1587 1196 q 1633 1120 1647 1145 l 1611 1080 q 1655 1006 1638 1047 l 1698 1006 q 1731 979 1728 1006 q 1731 879 1742 928 q 1698 849 1728 849 l 1655 849 q 1611 776 1638 808 l 1633 738 q 1625 694 1647 711 q 1538 643 1587 662 q 1497 659 1511 635 l 1476 697 q 1389 697 1432 689 m 1362 857 q 1462 836 1411 819 q 1526 899 1514 852 q 1503 1001 1538 947 q 1402 1023 1454 1039 q 1339 959 1351 1006 q 1362 857 1326 911 m 1047 439 l 1139 393 q 1166 315 1185 366 q 1053 136 1142 244 q 971 122 1017 95 l 890 168 q 743 81 825 111 l 743 -11 q 727 -52 743 -33 q 689 -73 711 -71 q 483 -73 586 -92 q 444 -52 458 -71 q 429 -11 429 -33 l 429 81 q 279 168 345 111 l 201 122 q 119 136 155 95 q 5 315 33 241 q 33 393 -14 366 l 122 439 q 122 610 106 526 l 33 656 q 5 735 -16 684 q 119 914 33 808 q 201 928 152 955 l 279 884 q 429 968 347 941 l 429 1061 q 444 1103 429 1085 q 483 1123 458 1120 q 689 1123 586 1142 q 709 1116 700 1123 q 727 1101 719 1109 q 739 1082 735 1093 q 743 1061 743 1072 l 743 968 q 890 884 825 939 l 971 928 q 1053 914 1017 958 q 1166 735 1139 811 q 1139 656 1185 684 l 1047 610 q 1047 439 1063 526 m 730 382 q 781 507 776 442 q 757 620 787 572 q 680 697 727 667 q 567 720 632 727 q 442 667 502 713 q 391 543 396 608 q 415 430 385 477 q 492 353 445 382 q 605 330 540 323 q 730 382 670 336 m 1389 -114 l 1367 -152 q 1326 -168 1354 -176 q 1240 -117 1278 -149 q 1232 -73 1218 -98 l 1253 -35 q 1210 38 1226 -3 l 1166 38 q 1134 68 1137 38 q 1134 168 1123 117 q 1166 195 1137 195 l 1210 195 q 1253 271 1226 236 l 1232 309 q 1240 353 1218 334 q 1326 401 1278 385 q 1367 388 1354 412 l 1389 347 q 1476 347 1432 355 l 1497 388 q 1538 401 1511 412 q 1625 353 1587 385 q 1633 309 1647 334 l 1611 271 q 1655 195 1638 236 l 1698 195 q 1731 168 1728 195 q 1731 68 1742 117 q 1698 38 1728 38 l 1655 38 q 1611 -35 1638 -3 l 1633 -73 q 1625 -117 1647 -98 q 1538 -168 1587 -149 q 1497 -152 1511 -176 l 1476 -114 q 1389 -114 1432 -122 m 1362 46 q 1462 24 1411 8 q 1526 88 1514 41 q 1503 190 1538 136 q 1402 212 1454 228 q 1339 148 1351 195 q 1362 46 1326 100 z "},"":{"ha":1563,"x_min":-5,"x_max":1568,"o":"m 963 1001 q 1046 937 963 1001 q 1128 694 1128 873 q 963 388 1128 515 q 564 260 798 260 q 263 328 401 260 q 22 260 146 260 q 11 264 16 260 q 3 274 5 269 q 5 298 -3 288 q 103 445 62 353 q 0 694 0 556 q 165 1001 0 873 q 564 1128 331 1128 q 963 1001 798 1128 m 1459 98 q 1557 -49 1500 5 q 1560 -73 1565 -60 q 1541 -87 1554 -87 q 1299 -19 1416 -87 q 998 -87 1161 -87 q 684 -14 825 -87 q 477 179 543 60 q 564 174 526 174 q 1024 327 833 174 q 1215 694 1215 480 q 1213 749 1215 724 q 1465 590 1367 700 q 1563 347 1563 480 q 1459 98 1563 209 z "},"":{"ha":1563,"x_min":41,"x_max":781,"o":"m 781 1215 l 781 22 l 426 -163 q 336 -156 380 -187 q 301 -71 293 -125 l 369 323 l 81 602 q 60 692 43 640 q 130 751 76 743 l 526 808 l 703 1166 q 781 1215 727 1215 z "},"":{"ha":1042,"x_min":0,"x_max":1044,"o":"m 808 635 q 928 559 876 602 q 1010 454 979 515 q 1042 326 1042 393 q 1023 279 1042 298 q 977 260 1004 260 l 608 260 l 608 -22 q 605 -33 608 -27 l 540 -163 q 521 -174 534 -174 q 502 -163 507 -174 l 437 -33 q 434 -22 434 -27 l 434 260 l 65 260 q 19 279 38 260 q 0 326 0 298 q 65 505 0 423 q 233 635 130 586 l 266 955 l 152 955 q 106 974 125 955 q 87 1020 87 993 l 87 1150 q 106 1196 87 1177 q 152 1215 125 1215 l 890 1215 q 936 1196 917 1215 q 955 1150 955 1177 l 955 1020 q 936 974 955 993 q 890 955 917 955 l 776 955 l 808 635 z "},"":{"ha":1563,"x_min":0,"x_max":1563,"o":"m 1497 1042 q 1544 1023 1525 1042 q 1563 977 1563 1004 l 1563 825 q 1394 551 1563 673 q 1096 439 1264 458 q 911 239 1012 298 l 911 43 l 1042 43 q 1165 3 1115 43 q 1215 -109 1215 -38 l 1215 -141 q 1183 -174 1215 -174 l 380 -174 q 347 -141 347 -174 l 347 -109 q 397 3 347 -38 q 521 43 448 43 l 651 43 l 651 239 q 621 258 640 244 q 553 323 602 271 q 467 439 505 374 q 168 551 298 458 q 0 825 0 673 l 0 977 q 19 1023 0 1004 q 65 1042 38 1042 l 347 1042 l 347 1150 q 366 1196 347 1177 q 412 1215 385 1215 l 1150 1215 q 1196 1196 1177 1215 q 1215 1150 1215 1177 l 1215 1042 l 1497 1042 m 269 692 q 382 635 320 656 q 347 868 353 746 l 174 868 l 174 825 q 269 692 174 762 m 1389 825 l 1389 868 l 1215 868 q 1180 635 1210 746 q 1294 692 1242 656 q 1389 825 1389 762 z "},"":{"ha":1389,"x_min":0,"x_max":1389,"o":"m 803 174 l 586 174 q 540 193 559 174 q 521 239 521 212 l 521 694 l 282 694 q 233 728 247 694 q 244 787 220 762 l 656 1199 q 694 1215 673 1215 q 732 1199 716 1215 l 1145 787 q 1156 728 1169 762 q 1107 694 1142 694 l 868 694 l 868 239 q 849 193 868 212 q 803 174 830 174 m 1389 195 l 1389 -109 q 1370 -155 1389 -136 q 1324 -174 1351 -174 l 65 -174 q 19 -155 38 -174 q 0 -109 0 -136 l 0 195 q 19 241 0 222 q 65 260 38 260 l 434 260 l 434 239 q 479 132 434 176 q 586 87 524 87 l 803 87 q 910 132 865 87 q 955 239 955 176 l 955 260 l 1324 260 q 1370 241 1351 260 q 1389 195 1389 222 m 1036 -81 q 1044 -73 1036 -81 q 1053 -43 1053 -65 q 1036 -5 1053 -22 q 998 11 1020 11 q 960 -5 977 11 q 944 -43 944 -22 q 960 -81 944 -65 q 998 -98 977 -98 q 1036 -81 1020 -98 m 1210 -81 q 1218 -73 1210 -81 q 1226 -43 1226 -65 q 1210 -5 1226 -22 q 1172 11 1194 11 q 1134 -5 1150 11 q 1118 -43 1118 -22 q 1134 -81 1118 -65 q 1172 -98 1150 -98 q 1210 -81 1194 -98 z "},"":{"ha":1389,"x_min":-11,"x_max":1400,"o":"m 1222 1211 q 1251 1205 1222 1211 q 1326 1153 1280 1199 q 1385 1048 1373 1107 q 1373 949 1397 990 q 1348 856 1351 914 q 1355 736 1345 798 q 1362 595 1364 675 q 1345 437 1359 515 q 1279 263 1332 358 q 1137 79 1226 168 q 952 -64 1047 -11 q 779 -130 857 -117 q 620 -146 700 -144 q 479 -140 540 -149 q 359 -133 418 -130 q 266 -157 301 -136 q 167 -170 225 -182 q 62 -111 109 -157 q 4 -7 16 -65 q 16 92 -8 52 q 41 186 38 127 q 34 305 43 244 q 27 446 24 366 q 43 605 30 526 q 110 779 57 684 q 252 963 163 873 q 437 1105 342 1053 q 610 1172 532 1158 q 769 1188 689 1185 q 910 1181 849 1191 q 1029 1175 971 1172 q 1123 1199 1088 1177 q 1222 1211 1164 1223 m 662 955 q 688 975 678 960 q 693 1008 697 990 q 674 1035 689 1025 q 640 1042 659 1044 q 355 860 499 1004 q 174 575 212 716 q 175 557 174 567 q 180 541 176 548 q 191 529 184 534 q 206 521 198 524 q 217 521 212 521 q 260 553 250 521 q 415 800 288 673 q 662 955 543 928 z "},"":{"ha":1389,"x_min":-11,"x_max":1389,"o":"m 1337 1147 q 1389 1085 1389 1137 q 1020 195 1389 564 q 130 -174 651 -174 q 68 -122 79 -174 l 3 160 q 41 233 -11 212 l 345 363 q 420 345 388 382 l 553 182 q 837 380 713 255 q 1034 662 960 505 l 871 798 q 852 873 833 827 l 982 1177 q 1055 1213 1004 1226 l 1337 1147 z "},"":{"ha":1215,"x_min":0,"x_max":1215,"o":"m 1085 1128 q 1177 1090 1139 1128 q 1215 998 1215 1053 l 1215 43 q 1177 -49 1215 -11 q 1085 -87 1139 -87 l 130 -87 q 38 -49 76 -87 q 0 43 0 -11 l 0 998 q 38 1090 0 1053 q 130 1128 76 1128 l 1085 1128 m 255 87 q 811 317 581 87 q 1042 873 1042 548 q 1009 914 1042 906 l 833 955 q 825 955 830 955 q 787 930 798 955 l 705 741 q 703 724 703 732 q 719 692 703 705 l 819 608 q 521 309 724 404 l 437 410 q 404 426 423 426 q 388 423 396 426 l 198 342 q 174 304 174 331 q 174 296 174 298 l 214 119 q 255 87 222 87 z "},"":{"ha":1215,"x_min":0,"x_max":1215,"o":"m 1085 521 q 1177 483 1139 521 q 1215 391 1215 445 l 1215 -43 q 1177 -136 1215 -98 q 1085 -174 1139 -174 l 130 -174 q 38 -136 76 -174 q 0 -43 0 -98 l 0 391 q 38 483 0 445 q 130 521 76 521 l 195 521 l 195 798 q 316 1093 195 971 q 606 1215 437 1215 q 898 1095 776 1215 q 1020 803 1020 974 l 1020 760 q 1001 713 1020 732 q 955 694 982 694 l 868 694 q 822 713 841 694 q 803 760 803 732 l 803 803 q 745 941 803 884 q 605 998 686 998 q 469 940 526 998 q 412 800 412 882 l 412 521 l 1085 521 z "},"":{"ha":1563,"x_min":0,"x_max":1563,"o":"m 0 43 l 0 521 l 1563 521 l 1563 43 q 1525 -49 1563 -11 q 1432 -87 1487 -87 l 130 -87 q 38 -49 76 -87 q 0 43 0 -11 m 521 228 l 521 119 q 553 87 521 87 l 922 87 q 955 119 955 87 l 955 228 q 922 260 955 260 l 553 260 q 521 228 521 260 m 174 228 l 174 119 q 206 87 174 87 l 401 87 q 434 119 434 87 l 434 228 q 401 260 434 260 l 206 260 q 174 228 174 260 m 1563 998 l 1563 868 l 0 868 l 0 998 q 38 1090 0 1053 q 130 1128 76 1128 l 1432 1128 q 1525 1090 1487 1128 q 1563 998 1563 1053 z "},"":{"ha":1215,"x_min":0,"x_max":1218,"o":"m 297 210 q 322 185 297 210 q 347 88 347 160 q 297 -35 347 16 q 175 -87 247 -87 q 52 -35 103 -87 q 0 88 0 16 q 52 210 0 160 q 175 260 103 260 q 297 210 247 260 m 825 -41 q 812 -73 825 -60 q 781 -87 800 -87 l 651 -87 q 620 -75 632 -87 q 608 -46 608 -62 q 430 343 591 182 q 41 521 269 505 q 12 533 24 521 q 0 564 0 545 l 0 694 q 14 726 0 713 q 46 738 27 738 q 583 496 361 719 q 825 -41 806 274 m 1215 -41 q 1203 -73 1215 -60 q 1172 -87 1191 -87 l 1042 -87 q 1010 -75 1023 -87 q 998 -46 998 -62 q 707 620 982 345 q 41 911 431 895 q 12 924 24 911 q 0 955 0 936 l 0 1085 q 14 1116 0 1104 q 46 1128 27 1128 q 492 1024 279 1120 q 861 773 705 928 q 1112 406 1017 618 q 1215 -41 1207 193 z "},"":{"ha":1563,"x_min":0,"x_max":1563,"o":"m 1563 391 l 1563 130 q 1525 38 1563 76 q 1432 0 1487 0 l 130 0 q 38 38 76 0 q 0 130 0 76 l 0 391 q 38 483 0 445 q 130 521 76 521 l 1432 521 q 1525 483 1487 521 q 1563 391 1563 445 m 1432 608 l 130 608 q 46 591 87 608 l 309 985 q 338 1012 320 998 q 377 1034 355 1025 q 418 1042 399 1042 l 1145 1042 q 1206 1024 1175 1042 q 1253 985 1237 1006 l 1516 591 q 1432 608 1476 608 m 1363 321 q 1350 334 1363 321 q 1302 347 1337 347 q 1241 321 1267 347 q 1215 260 1215 296 q 1241 199 1215 225 q 1302 174 1267 174 q 1363 199 1337 174 q 1389 260 1389 225 q 1363 321 1389 296 m 1103 321 q 1090 334 1103 321 q 1042 347 1077 347 q 981 321 1006 347 q 955 260 955 296 q 981 199 955 225 q 1042 174 1006 174 q 1103 199 1077 174 q 1128 260 1128 225 q 1103 321 1128 296 z "},"":{"ha":1563,"x_min":0,"x_max":1563,"o":"m 1476 713 q 1563 564 1563 665 q 1476 415 1563 464 l 1476 0 q 1454 -57 1476 -27 q 1389 -87 1432 -87 q 1335 -68 1359 -87 l 1104 117 q 694 260 925 260 l 618 260 q 608 174 608 217 q 678 -35 608 57 q 684 -126 708 -79 q 608 -174 659 -174 l 404 -174 q 328 -127 350 -174 q 260 174 260 16 q 266 260 260 217 l 174 260 q 50 311 100 260 q 0 434 0 361 l 0 694 q 50 818 0 768 q 174 868 100 868 l 694 868 q 1104 1012 925 868 l 1335 1196 q 1389 1215 1359 1215 q 1454 1185 1432 1215 q 1476 1128 1476 1156 l 1476 713 m 1302 182 l 1302 947 l 1213 876 q 694 694 985 694 l 694 434 q 1213 252 985 434 l 1302 182 z "},"":{"ha":1389,"x_min":-8,"x_max":1397,"o":"m 1245 521 l 1370 399 q 1386 335 1397 372 q 1340 290 1375 298 l 1169 247 l 1218 79 q 1202 14 1229 41 q 1137 -3 1175 -14 l 968 46 l 925 -125 q 879 -172 917 -163 q 817 -155 841 -182 l 694 -30 l 572 -155 q 510 -172 548 -182 q 464 -125 472 -163 l 420 46 l 252 -3 q 187 14 214 -14 q 171 79 160 41 l 220 247 l 49 290 q 3 335 14 298 q 19 399 -8 372 l 144 521 l 19 643 q 3 707 -8 670 q 49 751 14 743 l 220 795 l 171 963 q 187 1028 160 1001 q 252 1044 214 1055 l 420 996 l 464 1166 q 510 1214 472 1204 q 572 1196 548 1223 l 694 1069 l 817 1196 q 880 1213 844 1223 q 925 1166 917 1202 l 968 996 l 1137 1044 q 1202 1028 1175 1055 q 1218 963 1229 1001 l 1169 795 l 1340 751 q 1386 707 1375 743 q 1370 643 1397 670 l 1245 521 z "},"":{"ha":1389,"x_min":0,"x_max":1389,"o":"m 1389 673 q 1352 591 1389 627 q 1267 556 1316 556 l 996 556 q 1029 463 1031 521 q 979 363 1028 404 q 990 264 1006 315 q 936 193 974 214 q 925 84 947 127 q 856 20 903 41 q 738 0 808 0 q 716 0 735 0 q 694 0 697 0 q 503 49 600 0 q 358 106 407 98 q 320 126 336 109 q 304 168 304 144 l 304 635 q 380 754 304 719 q 557 850 464 789 q 673 963 651 911 q 781 1042 705 1042 q 890 983 852 1042 q 901 860 928 925 q 863 792 887 827 l 1267 792 q 1352 757 1316 792 q 1389 673 1389 722 m 260 673 l 260 152 q 241 106 260 125 q 195 87 222 87 l 65 87 q 19 106 38 87 q 0 152 0 125 l 0 673 q 19 719 0 700 q 65 738 38 738 l 195 738 q 241 719 222 738 q 260 673 260 700 m 168 179 q 176 187 168 179 q 184 217 184 195 q 168 255 184 239 q 130 271 152 271 q 92 255 109 271 q 76 217 76 239 q 92 179 76 195 q 130 163 109 163 q 168 179 152 163 z "},"":{"ha":1389,"x_min":0,"x_max":1389,"o":"m 122 792 l 526 792 q 488 860 502 827 q 499 983 461 925 q 608 1042 537 1042 q 716 963 684 1042 q 831 850 738 911 q 1009 754 925 789 q 1085 635 1085 719 l 1085 168 q 1069 126 1085 144 q 1031 106 1053 109 q 886 49 982 98 q 694 0 789 0 q 673 0 692 0 q 651 0 654 0 q 490 49 543 0 q 453 193 437 98 q 399 264 415 214 q 410 363 382 315 q 359 463 361 404 q 393 556 358 521 l 122 556 q 37 591 73 556 q 0 673 0 627 q 37 757 0 722 q 122 792 73 792 m 1194 738 l 1324 738 q 1370 719 1351 738 q 1389 673 1389 700 l 1389 152 q 1370 106 1389 125 q 1324 87 1351 87 l 1194 87 q 1147 106 1166 87 q 1128 152 1128 125 l 1128 673 q 1147 719 1128 700 q 1194 738 1166 738 m 1221 179 q 1229 171 1221 179 q 1259 163 1237 163 q 1297 179 1280 163 q 1313 217 1313 195 q 1297 255 1313 239 q 1259 271 1280 271 q 1221 255 1237 271 q 1204 217 1204 239 q 1221 179 1204 195 z "},"":{"ha":1042,"x_min":-3,"x_max":1042,"o":"m 369 1215 q 450 1179 415 1215 q 486 1093 486 1142 l 486 822 q 579 856 521 857 q 678 806 637 854 q 777 817 727 833 q 849 762 827 800 q 993 726 944 779 q 1042 564 1042 673 q 1042 543 1042 562 q 1042 521 1042 524 q 993 330 1042 426 q 936 184 944 233 q 926 157 936 171 q 903 137 917 144 q 873 130 890 130 l 407 130 q 288 206 323 130 q 191 384 252 290 q 79 499 130 477 q 0 608 0 532 q 58 716 0 678 q 182 727 117 754 q 250 689 214 713 l 250 1093 q 285 1179 250 1142 q 369 1215 320 1215 m 369 87 l 890 87 q 936 68 917 87 q 955 22 955 49 l 955 -109 q 936 -155 955 -136 q 890 -174 917 -174 l 369 -174 q 323 -155 342 -174 q 304 -109 304 -136 l 304 22 q 323 68 304 49 q 369 87 342 87 m 863 -5 q 854 3 863 -5 q 825 11 846 11 q 787 -5 803 11 q 770 -43 770 -22 q 787 -81 770 -65 q 825 -98 803 -98 q 863 -81 846 -98 q 879 -43 879 -65 q 863 -5 879 -22 z "},"":{"ha":1042,"x_min":-3,"x_max":1042,"o":"m 250 -52 l 250 353 q 182 315 214 328 q 58 326 117 288 q 0 434 0 363 q 79 543 0 510 q 191 658 130 564 q 288 836 252 751 q 407 911 323 911 l 873 911 q 916 895 898 911 q 936 857 933 879 q 993 712 944 808 q 1042 521 1042 616 q 1042 499 1042 518 q 1042 477 1042 480 q 993 316 1042 369 q 849 279 944 263 q 777 225 827 241 q 678 236 727 209 q 579 186 637 187 q 486 220 521 184 l 486 -52 q 450 -137 486 -100 q 369 -174 415 -174 q 285 -137 320 -174 q 250 -52 250 -100 m 304 1020 l 304 1150 q 323 1196 304 1177 q 369 1215 342 1215 l 890 1215 q 936 1196 917 1215 q 955 1150 955 1177 l 955 1020 q 936 974 955 993 q 890 955 917 955 l 369 955 q 323 974 342 955 q 304 1020 304 993 m 863 1047 q 871 1055 863 1047 q 879 1085 879 1063 q 863 1123 879 1107 q 825 1139 846 1139 q 787 1123 803 1139 q 770 1085 770 1107 q 787 1047 770 1063 q 825 1031 803 1031 q 863 1047 846 1031 z "},"":{"ha":1389,"x_min":22,"x_max":1367,"o":"m 1171 45 q 1072 -54 1171 45 q 694 -152 974 -152 q 218 45 415 -152 q 22 521 22 241 q 218 997 22 800 q 694 1194 415 1194 q 1171 997 974 1194 q 1367 521 1367 800 q 1171 45 1367 241 m 773 239 l 567 434 l 1063 434 q 1109 453 1090 434 q 1128 499 1128 472 l 1128 543 q 1109 589 1128 570 q 1063 608 1090 608 l 567 608 l 773 803 q 792 850 792 822 q 773 898 792 879 l 743 928 q 697 947 724 947 q 651 928 670 947 l 293 567 q 274 521 274 548 q 293 475 274 494 l 651 114 q 697 95 670 95 q 743 114 724 95 l 773 144 q 792 191 792 163 q 773 239 792 220 z "},"":{"ha":1389,"x_min":22,"x_max":1367,"o":"m 218 997 q 317 1095 218 997 q 694 1194 415 1194 q 1171 997 974 1194 q 1367 521 1367 800 q 1171 45 1367 241 q 694 -152 974 -152 q 218 45 415 -152 q 22 521 22 241 q 218 997 22 800 m 616 803 l 822 608 l 326 608 q 279 589 298 608 q 260 543 260 570 l 260 499 q 279 453 260 472 q 326 434 298 434 l 822 434 l 616 239 q 597 191 597 220 q 616 144 597 163 l 646 114 q 692 95 665 95 q 738 114 719 95 l 1096 475 q 1115 521 1115 494 q 1096 567 1115 548 l 738 928 q 692 947 719 947 q 646 928 665 947 l 616 898 q 597 850 597 879 q 616 803 597 822 z "},"":{"ha":1389,"x_min":22,"x_max":1367,"o":"m 218 45 q 120 143 218 45 q 22 521 22 241 q 218 997 22 800 q 694 1194 415 1194 q 1171 997 974 1194 q 1367 521 1367 800 q 1171 45 1367 241 q 694 -152 974 -152 q 218 45 415 -152 m 412 442 l 608 648 l 608 152 q 627 106 608 125 q 673 87 646 87 l 716 87 q 762 106 743 87 q 781 152 781 125 l 781 648 l 977 442 q 1024 423 996 423 q 1072 442 1053 423 l 1101 472 q 1120 518 1120 491 q 1101 564 1120 545 l 741 922 q 694 941 722 941 q 648 922 667 941 l 288 564 q 269 518 269 545 q 288 472 269 491 l 317 442 q 365 423 336 423 q 412 442 393 423 z "},"":{"ha":1389,"x_min":22,"x_max":1367,"o":"m 1171 997 q 1269 899 1171 997 q 1367 521 1367 800 q 1171 45 1367 241 q 694 -152 974 -152 q 218 45 415 -152 q 22 521 22 241 q 218 997 22 800 q 694 1194 415 1194 q 1171 997 974 1194 m 977 600 l 781 393 l 781 890 q 762 936 781 917 q 716 955 743 955 l 673 955 q 627 936 646 955 q 608 890 608 917 l 608 393 l 412 600 q 365 618 393 618 q 317 600 336 618 l 288 570 q 269 524 269 551 q 288 477 269 496 l 648 119 q 694 100 667 100 q 741 119 722 100 l 1101 477 q 1120 524 1120 496 q 1101 570 1120 551 l 1072 600 q 1024 618 1053 618 q 977 600 996 618 z "},"":{"ha":1345,"x_min":0,"x_max":1345,"o":"m 911 781 l 434 781 q 529 1080 464 966 q 673 1194 594 1194 q 817 1080 751 1194 q 911 781 882 966 m 420 347 q 412 521 412 434 q 420 694 412 608 l 925 694 q 933 521 933 608 q 925 347 933 434 l 420 347 m 1294 781 l 1001 781 q 865 1166 960 1031 q 1122 1021 1009 1123 q 1294 781 1234 920 m 480 1166 q 345 781 382 1031 l 52 781 q 224 1021 111 920 q 480 1166 336 1123 m 1321 694 q 1345 521 1345 608 q 1321 347 1345 434 l 1012 347 q 1020 521 1020 437 q 1012 694 1020 605 l 1321 694 m 326 521 q 334 347 326 439 l 24 347 q 0 521 0 437 q 24 694 0 605 l 334 694 q 326 521 326 605 m 434 260 l 911 260 q 817 -38 882 76 q 673 -152 751 -152 q 529 -38 594 -152 q 434 260 464 76 m 865 -125 q 1001 260 963 11 l 1294 260 q 1122 20 1234 122 q 865 -125 1009 -81 m 52 260 l 345 260 q 480 -125 385 11 q 224 20 336 -81 q 52 260 111 122 z "},"":{"ha":1389,"x_min":-3,"x_max":1402,"o":"m 1378 920 q 1375 723 1402 822 q 1275 548 1348 624 q 1085 445 1194 469 q 873 456 977 420 l 296 -122 q 172 -174 244 -174 q 50 -123 100 -174 q 0 -1 0 -73 q 52 122 0 71 l 629 703 q 618 913 594 803 q 722 1101 643 1023 q 895 1202 795 1175 q 1093 1204 996 1229 q 1116 1181 1112 1199 q 1107 1150 1120 1164 l 906 947 l 936 762 l 1120 732 l 1324 933 q 1355 943 1337 947 q 1378 920 1373 939 m 127 -46 q 137 -56 127 -46 q 174 -65 146 -65 q 220 -46 201 -65 q 239 0 239 -27 q 220 46 239 27 q 174 65 201 65 q 127 46 146 65 q 109 0 109 27 q 127 -46 109 -27 z "},"":{"ha":1389,"x_min":0,"x_max":1389,"o":"m 380 1118 l 426 1074 q 434 1051 434 1063 q 426 1028 434 1039 l 228 833 l 187 789 q 163 781 176 781 q 138 789 149 781 l 11 920 q 0 941 0 928 q 11 966 0 955 l 52 1006 q 76 1017 62 1017 q 98 1006 90 1017 l 160 947 l 334 1118 q 355 1128 342 1128 q 380 1118 369 1128 m 380 686 l 426 640 q 434 618 434 632 q 423 594 434 605 l 228 399 l 187 358 q 163 347 176 347 q 138 358 149 347 l 11 486 q 0 509 0 496 q 11 532 0 521 l 52 575 q 76 583 62 583 q 98 575 90 583 l 160 515 l 334 686 q 355 697 342 697 q 380 686 369 697 m 80 179 q 100 198 80 179 q 174 217 119 217 q 266 179 228 217 q 304 87 304 141 q 266 -5 304 33 q 174 -43 228 -43 q 80 -5 119 -43 q 41 87 41 33 q 80 179 41 141 m 1345 174 q 1377 161 1364 174 q 1389 130 1389 149 l 1389 43 q 1377 12 1389 24 q 1345 0 1364 0 l 564 0 q 533 12 545 0 q 521 43 521 24 l 521 130 q 533 161 521 149 q 564 174 545 174 l 1345 174 m 1345 1042 q 1377 1029 1364 1042 q 1389 998 1389 1017 l 1389 911 q 1377 880 1389 892 q 1345 868 1364 868 l 564 868 q 533 880 545 868 q 521 911 521 892 l 521 998 q 533 1029 521 1017 q 564 1042 545 1042 l 1345 1042 m 1345 608 q 1377 595 1364 608 q 1389 564 1389 583 l 1389 477 q 1377 446 1389 458 q 1345 434 1364 434 l 564 434 q 533 446 545 434 q 521 477 521 458 l 521 564 q 533 595 521 583 q 564 608 545 608 l 1345 608 z "},"":{"ha":1389,"x_min":-14,"x_max":1402,"o":"m 1324 1215 q 1383 1175 1367 1215 q 1370 1104 1400 1134 l 868 602 l 868 -109 q 833 -167 868 -149 q 765 -163 798 -184 l 548 -11 q 521 43 521 11 l 521 602 l 19 1104 q 5 1175 -11 1134 q 65 1215 22 1215 l 1324 1215 z "},"":{"ha":1389,"x_min":0,"x_max":1389,"o":"m 868 304 l 868 434 l 1389 434 l 1389 43 q 1350 -47 1389 -8 q 1259 -87 1310 -87 l 130 -87 q 39 -47 79 -87 q 0 43 0 -8 l 0 434 l 521 434 l 521 304 q 533 273 521 285 q 564 260 545 260 l 825 260 q 856 273 844 260 q 868 304 868 285 m 1259 868 q 1350 829 1310 868 q 1389 738 1389 789 l 1389 521 l 0 521 l 0 738 q 39 829 0 789 q 130 868 79 868 l 347 868 l 347 998 q 387 1089 347 1050 q 477 1128 426 1128 l 911 1128 q 1002 1089 963 1128 q 1042 998 1042 1050 l 1042 868 l 1259 868 m 868 868 l 868 955 l 521 955 l 521 868 l 868 868 z "},"":{"ha":1389,"x_min":-3,"x_max":1389,"o":"m 955 60 l 741 -155 q 694 -174 722 -174 q 648 -155 667 -174 l 434 60 q 420 132 404 92 q 480 171 437 171 l 618 171 l 618 445 l 345 445 l 345 307 q 305 247 345 263 q 233 260 266 231 l 19 475 q 0 521 0 494 q 19 567 0 548 l 233 781 q 305 796 266 814 q 345 735 345 779 l 345 597 l 618 597 l 618 871 l 480 871 q 419 910 437 871 q 434 982 401 949 l 648 1196 q 694 1215 667 1215 q 741 1196 722 1215 l 955 982 q 968 910 985 949 q 909 871 952 871 l 770 871 l 770 597 l 1044 597 l 1044 735 q 1084 795 1044 779 q 1156 781 1123 811 l 1370 567 q 1389 521 1389 548 q 1370 475 1389 494 l 1156 260 q 1084 245 1123 228 q 1044 307 1044 263 l 1044 445 l 770 445 l 770 171 l 909 171 q 970 132 952 171 q 955 60 987 92 z "},"":{"ha":1736,"x_min":0,"x_max":1736,"o":"m 382 659 q 357 633 382 659 q 260 608 331 608 q 138 659 190 608 q 87 781 87 711 q 138 903 87 852 q 260 955 190 955 q 382 903 331 955 q 434 781 434 852 q 382 659 434 711 m 1598 659 q 1572 633 1598 659 q 1476 608 1546 608 q 1354 659 1405 608 q 1302 781 1302 711 q 1354 903 1302 852 q 1476 955 1405 955 q 1598 903 1546 955 q 1649 781 1649 852 q 1598 659 1649 711 m 1563 521 q 1685 469 1633 521 q 1736 347 1736 418 l 1736 260 q 1710 199 1736 225 q 1649 174 1685 174 l 1470 174 q 1435 293 1462 236 q 1364 395 1408 350 q 1267 469 1321 439 q 1389 521 1318 521 l 1563 521 m 1082 610 q 1038 566 1082 610 q 868 521 993 521 q 654 610 743 521 q 564 825 564 700 q 654 1039 564 949 q 868 1128 743 1128 q 1082 1039 993 1128 q 1172 825 1172 949 q 1082 610 1172 700 m 1077 434 q 1298 343 1207 434 q 1389 122 1389 252 l 1389 43 q 1351 -49 1389 -11 q 1259 -87 1313 -87 l 477 -87 q 385 -49 423 -87 q 347 43 347 -11 l 347 122 q 438 343 347 252 q 659 434 529 434 l 684 434 q 868 391 773 391 q 1053 434 963 391 l 1077 434 m 469 469 q 334 347 388 426 q 266 174 279 269 l 87 174 q 26 199 52 174 q 0 260 0 225 l 0 347 q 52 469 0 418 q 174 521 103 521 l 347 521 q 469 469 418 521 z "},"":{"ha":1389,"x_min":-3,"x_max":1389,"o":"m 887 713 q 1006 420 1006 591 q 887 130 1006 250 l 703 -54 q 412 -174 583 -174 q 121 -53 241 -174 q 0 239 0 68 q 119 529 0 410 l 222 632 q 267 640 241 651 q 296 602 293 629 q 323 458 298 529 q 312 415 331 434 l 277 377 q 218 240 220 320 q 274 103 217 160 q 412 43 331 43 q 551 100 494 43 l 732 282 q 789 420 789 339 q 732 559 789 502 q 705 583 719 572 q 686 616 686 594 q 716 697 684 665 l 776 754 q 830 760 800 781 q 887 713 860 738 m 977 1215 q 1062 1215 977 1215 q 1268 1095 1147 1215 q 1389 803 1389 974 q 1270 513 1389 632 l 1166 410 q 1122 401 1147 391 q 1093 439 1096 412 q 1066 583 1090 513 q 1077 627 1058 608 l 1112 665 q 1171 802 1169 722 q 1115 939 1172 882 q 977 998 1058 998 q 838 941 895 998 l 656 760 q 600 621 600 703 q 656 483 600 540 q 684 458 670 469 q 703 426 703 448 q 673 345 705 377 l 613 288 q 559 282 589 260 q 502 328 529 304 q 382 621 382 450 q 502 911 382 792 l 686 1096 q 977 1215 806 1215 z "},"":{"ha":1736,"x_min":0,"x_max":1736,"o":"m 1459 600 q 1600 537 1538 586 q 1699 415 1663 488 q 1736 260 1736 342 q 1634 15 1736 117 q 1389 -87 1533 -87 l 391 -87 q 114 27 228 -87 q 0 304 0 141 q 73 532 0 431 q 260 673 146 632 q 260 694 260 686 q 388 1001 260 873 q 694 1128 515 1128 q 914 1069 814 1128 q 1072 911 1015 1009 q 1215 955 1137 955 q 1400 879 1324 955 q 1476 694 1476 803 q 1459 600 1476 646 z "},"":{"ha":1215,"x_min":-33,"x_max":1248,"o":"m 1185 119 q 1191 -75 1245 24 q 1023 -174 1137 -174 l 193 -174 q 24 -75 79 -174 q 30 119 -30 24 l 347 632 l 347 1042 l 326 1042 q 279 1061 298 1042 q 260 1107 260 1080 l 260 1150 q 279 1196 260 1177 q 326 1215 298 1215 l 890 1215 q 936 1196 917 1215 q 955 1150 955 1177 l 955 1107 q 936 1061 955 1080 q 890 1042 917 1042 l 868 1042 l 868 632 l 1185 119 m 374 347 l 841 347 l 711 559 q 694 608 694 581 l 694 1042 l 521 1042 l 521 608 q 505 559 521 581 l 374 347 z "},"":{"ha":1215,"x_min":0,"x_max":1229,"o":"m 754 521 l 1204 71 q 1204 24 1229 46 q 1044 -43 1139 -43 q 884 24 949 -43 l 570 336 l 502 269 q 521 174 521 222 q 445 -11 521 65 q 260 -87 369 -87 q 76 -11 152 -87 q 0 174 0 65 q 76 358 0 282 q 260 434 152 434 q 296 431 279 434 l 385 521 l 296 610 q 260 608 279 608 q 76 684 152 608 q 0 868 0 760 q 76 1053 0 977 q 260 1128 152 1128 q 445 1053 369 1128 q 521 868 521 977 q 502 773 521 819 l 570 705 l 884 1017 q 1044 1085 949 1085 q 1204 1017 1139 1085 q 1204 971 1229 996 l 754 521 m 199 807 q 212 794 199 807 q 260 781 225 781 q 321 807 296 781 q 347 868 347 833 q 321 929 347 903 q 260 955 296 955 q 199 929 225 955 q 174 868 174 903 q 199 807 174 833 m 199 113 q 212 100 199 113 q 260 87 225 87 q 321 113 296 87 q 347 174 347 138 q 321 235 347 209 q 260 260 296 260 q 199 235 225 260 q 174 174 174 209 q 199 113 174 138 z "},"":{"ha":1215,"x_min":0,"x_max":1215,"o":"m 868 0 l 868 -109 q 849 -155 868 -136 q 803 -174 830 -174 l 65 -174 q 19 -155 38 -174 q 0 -109 0 -136 l 0 890 q 19 936 0 917 q 65 955 38 955 l 260 955 l 260 152 q 305 45 260 90 q 412 0 350 0 l 868 0 m 868 933 q 887 887 868 906 q 933 868 906 868 l 1215 868 l 1215 152 q 1196 106 1215 125 q 1150 87 1177 87 l 412 87 q 366 106 385 87 q 347 152 347 125 l 347 1150 q 366 1196 347 1177 q 412 1215 385 1215 l 868 1215 l 868 933 m 1196 1017 q 1215 971 1215 998 l 1215 955 l 955 955 l 955 1215 l 971 1215 q 1017 1196 998 1215 l 1196 1017 z "},"":{"ha":1215,"x_min":-3,"x_max":1218,"o":"m 117 -49 q 1 245 0 73 q 122 540 3 418 l 689 1123 q 909 1215 781 1215 q 1126 1123 1036 1215 q 1215 902 1215 1031 q 1126 684 1215 773 l 629 176 q 483 115 570 114 q 336 179 396 117 q 281 324 279 239 q 342 469 282 410 l 730 868 q 792 868 762 898 l 854 808 q 854 746 884 776 l 464 347 q 464 298 439 323 q 505 298 486 277 l 1001 803 q 1042 903 1042 846 q 1001 1001 1042 960 q 909 1042 963 1042 q 814 1001 854 1042 l 244 420 q 174 245 174 347 q 243 72 174 144 q 410 0 312 0 q 575 71 507 0 l 1042 548 q 1104 548 1074 581 l 1166 488 q 1166 426 1196 458 l 700 -52 q 407 -174 578 -174 q 117 -49 236 -174 z "},"":{"ha":1215,"x_min":0,"x_max":1215,"o":"m 1177 863 q 1215 770 1215 825 l 1215 43 q 1177 -49 1215 -11 q 1085 -87 1139 -87 l 130 -87 q 38 -49 76 -87 q 0 43 0 -11 l 0 998 q 38 1090 0 1053 q 130 1128 76 1128 l 857 1128 q 949 1090 911 1128 l 1177 863 m 484 137 q 509 112 484 137 q 608 87 534 87 q 731 137 681 87 q 781 260 781 187 q 731 384 781 334 q 608 434 681 434 q 484 384 534 434 q 434 260 434 334 q 484 137 434 187 m 868 914 q 857 936 868 925 l 849 944 q 827 955 838 955 l 206 955 q 174 922 174 955 l 174 640 q 206 608 174 608 l 836 608 q 868 640 868 608 l 868 914 z "},"":{"ha":1215,"x_min":0,"x_max":1215,"o":"m 1085 1128 q 1177 1090 1139 1128 q 1215 998 1215 1053 l 1215 43 q 1177 -49 1215 -11 q 1085 -87 1139 -87 l 130 -87 q 38 -49 76 -87 q 0 43 0 -11 l 0 998 q 38 1090 0 1053 q 130 1128 76 1128 l 1085 1128 z "},"":{"ha":1215,"x_min":0,"x_max":1215,"o":"m 43 857 q 12 869 24 857 q 0 901 0 882 l 0 1009 q 12 1040 0 1028 q 43 1053 24 1053 l 1172 1053 q 1203 1040 1191 1053 q 1215 1009 1215 1028 l 1215 901 q 1203 869 1215 882 q 1172 857 1191 857 l 43 857 m 43 423 q 12 435 24 423 q 0 467 0 448 l 0 575 q 12 606 0 594 q 43 618 24 618 l 1172 618 q 1203 606 1191 618 q 1215 575 1215 594 l 1215 467 q 1203 435 1215 448 q 1172 423 1191 423 l 43 423 m 43 -11 q 12 1 24 -11 q 0 33 0 14 l 0 141 q 12 172 0 160 q 43 184 24 184 l 1172 184 q 1203 172 1191 184 q 1215 141 1215 160 l 1215 33 q 1203 1 1215 14 q 1172 -11 1191 -11 l 43 -11 z "},"":{"ha":1389,"x_min":0,"x_max":1389,"o":"m 38 1047 q 57 1066 38 1047 q 130 1085 76 1085 q 222 1047 184 1085 q 260 955 260 1009 q 222 863 260 901 q 130 825 184 825 q 38 863 76 825 q 0 955 0 901 q 38 1047 0 1009 m 38 613 q 57 632 38 613 q 130 651 76 651 q 222 613 184 651 q 260 521 260 575 q 222 429 260 467 q 130 391 184 391 q 38 429 76 391 q 0 521 0 467 q 38 613 0 575 m 38 179 q 57 198 38 179 q 130 217 76 217 q 222 179 184 217 q 260 87 260 141 q 222 -5 260 33 q 130 -43 184 -43 q 38 -5 76 -43 q 0 87 0 33 q 38 179 0 141 m 1345 174 q 1377 161 1364 174 q 1389 130 1389 149 l 1389 43 q 1377 12 1389 24 q 1345 0 1364 0 l 477 0 q 446 12 458 0 q 434 43 434 24 l 434 130 q 446 161 434 149 q 477 174 458 174 l 1345 174 m 1345 1042 q 1377 1029 1364 1042 q 1389 998 1389 1017 l 1389 911 q 1377 880 1389 892 q 1345 868 1364 868 l 477 868 q 446 880 458 868 q 434 911 434 892 l 434 998 q 446 1029 434 1017 q 477 1042 458 1042 l 1345 1042 m 1345 608 q 1377 595 1364 608 q 1389 564 1389 583 l 1389 477 q 1377 446 1389 458 q 1345 434 1364 434 l 477 434 q 446 446 458 434 q 434 477 434 458 l 434 564 q 446 595 434 583 q 477 608 458 608 l 1345 608 z "},"":{"ha":1389,"x_min":-11,"x_max":1389,"o":"m 168 127 q 225 91 206 117 q 244 33 244 65 q 212 -52 244 -16 q 114 -87 179 -87 q 14 -62 57 -87 q 5 -19 -11 -43 l 22 8 q 65 16 35 33 q 106 8 84 8 q 144 30 144 8 q 100 54 144 54 l 90 54 q 54 76 68 54 l 52 81 q 60 122 43 100 l 76 141 q 106 174 90 157 l 43 174 q 22 195 22 174 l 22 239 q 43 260 22 260 l 198 260 q 228 231 228 260 l 228 220 q 228 217 228 220 q 214 182 228 198 l 168 127 m 1345 608 q 1377 595 1364 608 q 1389 564 1389 583 l 1389 477 q 1377 446 1389 458 q 1345 434 1364 434 l 477 434 q 446 446 458 434 q 434 477 434 458 l 434 564 q 446 595 434 583 q 477 608 458 608 l 1345 608 m 1345 1042 q 1377 1029 1364 1042 q 1389 998 1389 1017 l 1389 911 q 1377 880 1389 892 q 1345 868 1364 868 l 477 868 q 446 880 458 868 q 434 911 434 892 l 434 998 q 446 1029 434 1017 q 477 1042 458 1042 l 1345 1042 m 1345 174 q 1377 161 1364 174 q 1389 130 1389 149 l 1389 43 q 1377 12 1389 24 q 1345 0 1364 0 l 477 0 q 446 12 458 0 q 434 43 434 24 l 434 130 q 446 161 434 149 q 477 174 458 174 l 1345 174 m 43 781 q 22 803 22 781 l 22 846 q 43 868 22 868 l 87 868 l 87 1042 l 65 1042 q 43 1063 43 1042 q 46 1074 43 1069 l 68 1118 q 87 1128 73 1128 l 152 1128 q 174 1107 174 1128 l 174 868 l 217 868 q 239 846 239 868 l 239 803 q 217 781 239 781 l 43 781 m 33 347 q 0 377 0 347 l 0 388 q 22 468 0 434 q 69 518 43 502 q 117 551 95 534 q 138 578 138 567 q 114 600 138 600 q 87 589 98 600 q 43 583 62 567 l 22 602 q 14 643 -5 621 q 122 694 52 694 q 178 685 152 694 q 224 650 203 675 q 244 586 244 624 q 231 536 244 559 q 199 498 217 513 q 163 471 182 483 q 129 450 144 458 q 111 434 114 442 l 217 434 q 239 412 239 434 l 239 369 q 217 347 239 347 l 33 347 z "},"":{"ha":1389,"x_min":0,"x_max":1389,"o":"m 1345 608 q 1377 595 1364 608 q 1389 564 1389 583 l 1389 477 q 1377 446 1389 458 q 1345 434 1364 434 l 43 434 q 12 446 24 434 q 0 477 0 458 l 0 564 q 12 595 0 583 q 43 608 24 608 l 320 608 q 263 760 269 681 q 260 792 260 776 q 305 962 260 884 q 427 1084 350 1039 q 597 1128 505 1128 l 781 1128 q 959 1073 868 1128 q 1090 936 1050 1017 l 1093 933 q 1096 914 1096 925 q 1072 876 1096 887 l 955 817 q 936 814 947 814 q 898 836 909 814 q 846 890 882 868 q 776 911 811 911 l 597 911 q 513 876 548 911 q 477 792 477 841 q 502 724 477 757 q 562 681 526 692 l 798 608 l 1345 608 m 857 347 l 1112 347 q 1126 282 1123 315 q 1128 250 1128 266 q 1031 12 1128 111 q 792 -87 933 -87 l 608 -87 q 488 -61 551 -87 q 376 9 426 -35 q 298 106 326 54 l 296 109 q 293 127 293 117 q 317 165 293 155 l 434 225 q 453 228 442 228 q 491 206 480 228 q 513 176 499 190 q 543 152 526 163 q 576 136 559 141 q 613 130 594 130 l 792 130 q 876 165 841 130 q 911 250 911 201 q 895 304 911 274 q 857 347 879 334 z "},"":{"ha":1215,"x_min":0,"x_max":1215,"o":"m 87 1042 q 56 1054 68 1042 q 43 1085 43 1066 l 43 1172 q 56 1203 43 1191 q 87 1215 68 1215 l 477 1215 q 509 1203 496 1215 q 521 1172 521 1191 l 521 1085 q 509 1054 521 1066 q 477 1042 496 1042 l 391 1042 l 391 608 q 454 454 391 518 q 608 391 518 391 q 761 454 697 391 q 825 608 825 518 l 825 1042 l 738 1042 q 707 1054 719 1042 q 694 1085 694 1066 l 694 1172 q 707 1203 694 1191 q 738 1215 719 1215 l 1128 1215 q 1160 1203 1147 1215 q 1172 1172 1172 1191 l 1172 1085 q 1160 1054 1172 1066 q 1128 1042 1147 1042 l 1042 1042 l 1042 608 q 914 301 1042 429 q 608 174 787 174 q 301 301 429 174 q 174 608 174 429 l 174 1042 l 87 1042 m 1172 0 q 1203 -12 1191 0 q 1215 -43 1215 -24 l 1215 -130 q 1203 -161 1215 -149 q 1172 -174 1191 -174 l 43 -174 q 12 -161 24 -174 q 0 -130 0 -149 l 0 -43 q 12 -12 0 -24 q 43 0 24 0 l 1172 0 z "},"":{"ha":1389,"x_min":0,"x_max":1389,"o":"m 1259 1128 q 1351 1090 1313 1128 q 1389 998 1389 1053 l 1389 43 q 1351 -49 1389 -11 q 1259 -87 1313 -87 l 130 -87 q 38 -49 76 -87 q 0 43 0 -11 l 0 998 q 38 1090 0 1053 q 130 1128 76 1128 l 1259 1128 m 608 87 l 608 347 l 174 347 l 174 87 l 608 87 m 608 521 l 608 781 l 174 781 l 174 521 l 608 521 m 1215 87 l 1215 347 l 781 347 l 781 87 l 1215 87 m 1215 521 l 1215 781 l 781 781 l 781 521 l 1215 521 z "},"":{"ha":1389,"x_min":0,"x_max":1389,"o":"m 608 955 l 564 1042 l 477 1085 l 564 1128 l 608 1215 l 651 1128 l 738 1085 l 651 1042 l 608 955 m 217 781 l 144 925 l 0 998 l 144 1072 l 217 1215 l 290 1072 l 434 998 l 290 925 l 217 781 m 1172 434 l 1245 290 l 1389 217 l 1245 144 l 1172 0 l 1099 144 l 955 217 l 1099 290 l 1172 434 m 1364 960 q 1389 898 1389 933 q 1364 838 1389 863 l 377 -149 q 317 -174 353 -174 q 255 -149 282 -174 l 24 81 q 0 144 0 109 q 24 203 0 179 l 1012 1191 q 1072 1215 1036 1215 q 1134 1191 1107 1215 l 1364 960 m 974 665 l 1210 898 l 1072 1036 l 838 800 l 974 665 z "},"":{"ha":1736,"x_min":0,"x_max":1736,"o":"m 1693 260 q 1724 248 1712 260 q 1736 217 1736 236 l 1736 130 q 1724 99 1736 111 q 1693 87 1712 87 l 1563 87 q 1487 -98 1563 -22 q 1302 -174 1411 -174 q 1118 -98 1194 -174 q 1042 87 1042 -22 l 694 87 q 618 -98 694 -22 q 434 -174 543 -174 q 250 -98 326 -174 q 174 87 174 -22 l 130 87 q 38 125 76 87 q 0 217 0 163 l 0 1085 q 38 1177 0 1139 q 130 1215 76 1215 l 998 1215 q 1090 1177 1053 1215 q 1128 1085 1128 1139 l 1128 955 l 1248 955 q 1340 917 1302 955 l 1611 646 q 1649 553 1649 608 l 1649 260 l 1693 260 m 342 -5 q 361 -24 342 -5 q 434 -43 380 -43 q 526 -5 488 -43 q 564 87 564 33 q 526 179 564 141 q 434 217 488 217 q 342 179 380 217 q 304 87 304 141 q 342 -5 304 33 m 1210 -5 q 1229 -24 1210 -5 q 1302 -43 1248 -43 q 1394 -5 1356 -43 q 1432 87 1432 33 q 1394 179 1432 141 q 1302 217 1356 217 q 1210 179 1248 217 q 1172 87 1172 141 q 1210 -5 1172 33 m 1519 521 l 1519 553 l 1248 825 l 1128 825 l 1128 521 l 1519 521 z "},"":{"ha":1736,"x_min":0,"x_max":1736,"o":"m 1649 1042 q 1710 1016 1685 1042 q 1736 955 1736 990 l 1736 87 q 1710 26 1736 52 q 1649 0 1685 0 l 87 0 q 26 26 52 0 q 0 87 0 52 l 0 955 q 26 1016 0 990 q 87 1042 52 1042 l 1649 1042 m 130 130 l 304 130 q 254 254 304 203 q 130 304 203 304 l 130 130 m 130 738 q 254 788 203 738 q 304 911 304 838 l 130 911 l 130 738 m 715 336 q 747 298 715 336 q 868 260 779 260 q 1021 336 958 260 q 1085 521 1085 412 q 1021 705 1085 629 q 868 781 958 781 q 715 705 779 781 q 651 521 651 629 q 715 336 651 412 m 1606 130 l 1606 304 q 1482 254 1533 304 q 1432 130 1432 203 l 1606 130 m 1606 738 l 1606 911 l 1432 911 q 1482 788 1432 838 q 1606 738 1533 738 z "},"":{"ha":868,"x_min":19,"x_max":849,"o":"m 84 694 l 784 694 q 833 661 819 694 q 822 602 846 627 l 472 252 q 434 236 456 236 q 396 252 412 236 l 46 602 q 35 661 22 627 q 84 694 49 694 z "},"":{"ha":868,"x_min":19,"x_max":849,"o":"m 784 260 l 84 260 q 35 294 49 260 q 46 353 22 328 l 396 703 q 434 719 412 719 q 472 703 456 719 l 822 353 q 833 294 846 328 q 784 260 819 260 z "},"":{"ha":521,"x_min":62,"x_max":521,"o":"m 521 871 l 521 171 q 487 122 521 136 q 429 133 453 109 l 79 483 q 62 521 62 499 q 79 559 62 543 l 429 909 q 487 920 453 933 q 521 871 521 906 z "},"":{"ha":521,"x_min":0,"x_max":458,"o":"m 0 171 l 0 871 q 34 920 0 906 q 92 909 68 933 l 442 559 q 458 521 458 543 q 442 483 458 499 l 92 133 q 34 122 68 109 q 0 171 0 136 z "},"":{"ha":1389,"x_min":0,"x_max":1389,"o":"m 1259 1128 q 1351 1090 1313 1128 q 1389 998 1389 1053 l 1389 43 q 1351 -49 1389 -11 q 1259 -87 1313 -87 l 130 -87 q 38 -49 76 -87 q 0 43 0 -11 l 0 998 q 38 1090 0 1053 q 130 1128 76 1128 l 1259 1128 m 608 87 l 608 781 l 174 781 l 174 87 l 608 87 m 1215 87 l 1215 781 l 781 781 l 781 87 l 1215 87 z "},"":{"ha":868,"x_min":35,"x_max":833,"o":"m 111 434 l 757 434 q 817 393 800 434 q 803 323 833 353 l 480 0 q 434 -19 461 -19 q 388 0 407 -19 l 65 323 q 52 393 35 353 q 111 434 68 434 m 803 719 q 817 648 833 689 q 757 608 800 608 l 111 608 q 52 648 68 608 q 65 719 35 689 l 388 1042 q 434 1061 407 1061 q 480 1042 461 1061 l 803 719 z "},"":{"ha":868,"x_min":35,"x_max":833,"o":"m 111 434 l 757 434 q 817 393 800 434 q 803 323 833 353 l 480 0 q 434 -19 461 -19 q 388 0 407 -19 l 65 323 q 52 393 35 353 q 111 434 68 434 z "},"":{"ha":868,"x_min":35,"x_max":836,"o":"m 757 608 l 111 608 q 52 648 68 608 q 65 719 35 689 l 388 1042 q 434 1061 407 1061 q 480 1042 461 1061 l 803 719 q 817 648 833 689 q 757 608 800 608 z "},"":{"ha":1389,"x_min":0,"x_max":1389,"o":"m 1362 697 q 1379 700 1370 705 q 1389 684 1389 694 l 1389 130 q 1351 38 1389 76 q 1259 0 1313 0 l 130 0 q 38 38 76 0 q 0 130 0 76 l 0 684 q 9 699 0 694 q 27 697 19 703 q 445 391 117 629 q 481 361 450 385 q 532 324 513 336 q 581 294 551 312 q 639 269 610 277 q 694 260 667 260 q 743 267 719 260 q 789 283 768 274 q 836 309 811 293 q 876 338 860 326 q 914 366 892 350 q 944 391 936 382 q 1362 697 1264 621 m 694 347 q 642 362 673 347 q 591 389 610 377 q 536 430 572 401 q 496 458 499 458 q 24 808 165 700 q 0 860 0 827 l 0 911 q 38 1004 0 966 q 130 1042 76 1042 l 1259 1042 q 1351 1004 1313 1042 q 1389 911 1389 966 l 1389 860 q 1364 808 1389 827 q 892 458 1232 705 q 853 430 890 458 q 798 389 817 401 q 747 362 779 377 q 694 347 716 347 z "},"":{"ha":1389,"x_min":0,"x_max":1370,"o":"m 575 608 l 33 608 q 9 617 19 608 q 0 640 0 627 l 0 1183 q 33 1215 0 1215 l 163 1215 q 195 1183 195 1215 l 195 971 q 422 1135 290 1077 q 700 1194 553 1194 q 1175 994 979 1191 q 1369 519 1370 798 q 1171 45 1367 241 q 694 -152 974 -152 q 244 22 437 -152 q 241 71 217 46 l 334 163 q 380 163 355 184 q 694 43 515 43 q 1032 183 892 43 q 1172 521 1172 323 q 1032 859 1172 719 q 694 998 892 998 q 477 945 578 998 q 309 803 377 892 l 575 803 q 598 793 589 803 q 608 770 608 784 l 608 640 q 598 617 608 627 q 575 608 589 608 z "},"":{"ha":1389,"x_min":0,"x_max":1389,"o":"m 1370 675 q 1389 629 1389 656 q 1370 583 1389 602 l 1034 244 q 986 225 1012 225 q 941 244 960 225 l 879 307 q 860 353 860 326 q 879 399 860 380 l 895 412 l 787 521 l 567 301 l 583 285 q 608 224 608 260 q 583 163 608 187 l 271 -149 q 210 -174 247 -174 q 149 -149 174 -174 l 24 -24 q 0 37 0 0 q 24 98 0 73 l 336 410 q 397 434 361 434 q 458 410 434 434 l 475 393 l 694 613 l 586 722 l 572 705 q 526 686 553 686 q 480 705 499 686 l 418 768 q 399 812 399 787 q 418 860 399 838 l 757 1196 q 803 1215 776 1215 q 849 1196 830 1215 l 909 1134 q 928 1088 928 1115 q 909 1042 928 1061 l 895 1028 l 1202 722 l 1215 735 q 1261 754 1234 754 q 1308 735 1289 754 l 1370 675 z "},"":{"ha":868,"x_min":-3,"x_max":879,"o":"m 803 781 q 860 749 841 781 q 860 684 879 716 l 382 -141 q 326 -174 363 -174 q 274 -149 293 -174 q 263 -92 255 -125 l 388 434 l 65 434 q 30 445 46 434 q 5 472 14 456 q 0 507 -3 488 l 87 1158 q 99 1188 90 1175 q 122 1208 109 1202 q 152 1215 136 1215 l 543 1215 q 594 1190 575 1215 q 605 1134 613 1164 l 491 781 l 803 781 z "},"":{"ha":1736,"x_min":0,"x_max":1736,"o":"m 347 260 q 408 235 382 260 q 434 174 434 209 l 434 -87 q 408 -148 434 -122 q 347 -174 382 -174 l 87 -174 q 26 -148 52 -174 q 0 -87 0 -122 l 0 174 q 26 235 0 209 q 87 260 52 260 l 347 260 m 282 477 l 282 347 l 152 347 l 152 505 q 183 576 152 545 q 255 608 214 608 l 803 608 l 803 781 l 694 781 q 633 807 659 781 q 608 868 608 833 l 608 1128 q 633 1190 608 1164 q 694 1215 659 1215 l 1042 1215 q 1103 1190 1077 1215 q 1128 1128 1128 1164 l 1128 868 q 1103 807 1128 833 q 1042 781 1077 781 l 933 781 l 933 608 l 1481 608 q 1553 576 1522 608 q 1584 505 1584 545 l 1584 347 l 1454 347 l 1454 477 l 933 477 l 933 347 l 803 347 l 803 477 l 282 477 m 998 260 q 1059 235 1034 260 q 1085 174 1085 209 l 1085 -87 q 1059 -148 1085 -122 q 998 -174 1034 -174 l 738 -174 q 677 -148 703 -174 q 651 -87 651 -122 l 651 174 q 677 235 651 209 q 738 260 703 260 l 998 260 m 1649 260 q 1710 235 1685 260 q 1736 174 1736 209 l 1736 -87 q 1710 -148 1736 -122 q 1649 -174 1685 -174 l 1389 -174 q 1328 -148 1354 -174 q 1302 -87 1302 -122 l 1302 174 q 1328 235 1302 209 q 1389 260 1354 260 l 1649 260 z "},"":{"ha":1563,"x_min":-5,"x_max":1568,"o":"m 1563 453 q 1549 418 1565 431 q 1511 423 1533 404 q 1369 517 1440 499 q 1222 487 1297 534 q 1080 323 1147 439 q 1053 304 1069 304 q 1028 323 1036 304 q 1023 332 1028 323 q 1012 353 1017 342 q 996 380 1006 363 q 974 411 985 396 q 948 442 963 426 q 914 472 933 458 q 875 496 895 486 q 830 514 854 507 q 781 521 806 521 q 643 468 697 521 q 534 323 589 415 q 510 304 526 304 q 483 323 494 304 q 340 488 415 439 q 195 518 266 537 q 52 423 125 499 q 14 418 30 404 q 0 453 -3 431 q 251 887 57 722 q 694 1080 445 1053 l 694 1128 q 720 1190 694 1164 q 781 1215 746 1215 q 842 1190 817 1215 q 868 1128 868 1164 l 868 1080 q 1312 887 1118 1053 q 1563 453 1506 722 m 694 396 q 781 434 735 434 q 868 396 825 434 l 868 43 q 804 -110 868 -46 q 651 -174 741 -174 q 526 -134 583 -174 q 448 -30 469 -95 q 450 38 434 5 q 500 83 467 71 q 566 79 534 95 q 610 30 597 62 q 651 0 621 0 q 682 12 670 0 q 694 43 694 24 l 694 396 z "},"":{"ha":1215,"x_min":0,"x_max":1215,"o":"m 347 716 l 347 87 l 65 87 q 19 106 38 87 q 0 152 0 125 l 0 1063 q 19 1109 0 1090 q 65 1128 38 1128 l 285 1128 q 434 1215 334 1215 q 583 1128 534 1215 l 803 1128 q 849 1109 830 1128 q 868 1063 868 1090 l 868 868 l 499 868 q 392 823 437 868 q 347 716 347 779 m 480 1088 q 471 1097 480 1088 q 434 1107 461 1107 q 388 1088 407 1107 q 369 1042 369 1069 q 388 996 369 1015 q 434 977 407 977 q 480 996 461 977 q 499 1042 499 1015 q 480 1088 499 1069 m 933 434 l 1215 434 l 1215 -109 q 1196 -155 1215 -136 q 1150 -174 1177 -174 l 499 -174 q 453 -155 472 -174 q 434 -109 434 -136 l 434 716 q 453 762 434 743 q 499 781 472 781 l 868 781 l 868 499 q 887 453 868 472 q 933 434 906 434 m 1215 537 l 1215 521 l 955 521 l 955 781 l 971 781 q 1017 762 998 781 l 1196 583 q 1215 537 1215 564 z "},"":{"ha":955,"x_min":0,"x_max":955,"o":"m 260 -16 l 260 87 l 694 87 l 694 -16 q 681 -65 694 -43 l 635 -136 q 562 -174 608 -174 l 393 -174 q 323 -136 347 -174 l 274 -65 q 260 -16 260 -43 m 0 738 q 136 1073 0 930 q 475 1215 271 1215 q 815 1076 675 1215 q 955 738 955 936 q 836 423 955 559 q 694 176 735 307 q 694 174 694 176 l 260 174 q 260 176 260 176 q 119 423 220 307 q 0 738 0 559 m 477 955 q 509 967 496 955 q 521 998 521 979 q 509 1029 521 1017 q 477 1042 496 1042 q 263 952 353 1042 q 174 738 174 863 q 186 707 174 719 q 217 694 198 694 q 248 707 236 694 q 260 738 260 719 q 324 891 260 827 q 477 955 388 955 z "},"":{"ha":1215,"x_min":0,"x_max":1215,"o":"m 853 623 q 802 572 853 623 q 608 521 751 521 q 362 623 464 521 q 260 868 260 724 q 362 1114 260 1012 q 608 1215 464 1215 q 853 1114 751 1215 q 955 868 955 1012 q 853 623 955 724 m 301 19 q 292 28 301 19 q 282 65 282 38 q 301 111 282 92 q 347 130 320 130 q 393 111 374 130 q 412 65 412 92 q 393 19 412 38 q 347 0 374 0 q 301 19 320 0 m 868 431 q 1115 320 1015 426 q 1215 71 1215 214 l 1215 -52 q 1180 -138 1215 -103 q 1093 -174 1145 -174 l 122 -174 q 35 -138 71 -174 q 0 -52 0 -103 l 0 71 q 87 305 0 203 q 304 429 174 407 l 304 209 q 227 156 258 195 q 195 65 195 117 q 240 -42 195 3 q 347 -87 285 -87 q 454 -42 410 -87 q 499 65 499 3 q 469 156 499 117 q 391 209 439 195 l 391 431 q 453 418 423 426 q 608 391 529 391 q 765 418 686 391 q 773 419 768 418 q 781 423 779 420 l 781 298 q 656 225 705 285 q 608 87 608 165 l 608 -33 q 646 -76 608 -71 l 730 -87 q 754 -71 751 -90 l 765 -27 q 746 0 768 -5 l 694 8 l 694 81 q 760 202 694 168 q 890 202 825 236 q 955 87 955 168 l 955 11 l 903 0 q 884 -27 882 -5 l 895 -71 q 920 -87 898 -90 l 1006 -68 q 1042 -27 1042 -62 l 1042 87 q 993 225 1042 165 q 868 298 944 285 l 868 431 z "},"":{"ha":1389,"x_min":0,"x_max":1389,"o":"m 1213 911 q 1302 888 1261 911 q 1366 826 1343 865 q 1389 738 1389 787 q 1302 589 1389 637 l 1302 282 q 1162 -39 1302 95 q 825 -174 1023 -174 q 492 -45 632 -174 q 347 269 353 84 q 99 419 198 298 q 0 694 0 540 l 0 1115 q 15 1157 0 1139 q 52 1180 30 1175 l 222 1213 q 271 1203 250 1218 q 298 1164 293 1188 l 307 1120 q 297 1072 312 1093 q 258 1044 282 1050 l 174 1028 l 174 694 q 251 510 174 586 q 437 434 328 434 q 618 513 543 434 q 694 697 694 591 l 694 1028 l 610 1044 q 568 1072 583 1050 q 559 1120 553 1093 l 570 1164 q 583 1194 572 1180 q 610 1213 594 1207 q 646 1215 627 1218 l 817 1180 q 853 1157 838 1175 q 868 1115 868 1139 l 868 694 q 769 420 868 540 q 521 269 670 301 q 567 133 526 195 q 677 35 608 71 q 825 0 746 0 q 1039 83 949 0 q 1128 282 1128 165 l 1128 589 q 1042 741 1039 637 q 1093 861 1044 811 q 1213 911 1142 911 m 1184 707 q 1190 701 1184 707 q 1215 694 1196 694 q 1246 707 1234 694 q 1259 738 1259 719 q 1246 769 1259 757 q 1215 781 1234 781 q 1184 769 1196 781 q 1172 738 1172 757 q 1184 707 1172 719 z "},"":{"ha":1389,"x_min":0,"x_max":1389,"o":"m 347 -87 l 347 998 q 385 1090 347 1053 q 477 1128 423 1128 l 911 1128 q 1004 1090 966 1128 q 1042 998 1042 1053 l 1042 -87 l 347 -87 m 521 955 l 521 868 l 868 868 l 868 955 l 521 955 m 1389 738 l 1389 43 q 1351 -49 1389 -11 q 1259 -87 1313 -87 l 1128 -87 l 1128 868 l 1259 868 q 1351 830 1313 868 q 1389 738 1389 792 m 260 -87 l 130 -87 q 38 -49 76 -87 q 0 43 0 -11 l 0 738 q 38 830 0 792 q 130 868 76 868 l 260 868 l 260 -87 z "},"":{"ha":1215,"x_min":-3,"x_max":1218,"o":"m 730 -123 q 704 -149 730 -123 q 608 -174 678 -174 q 486 -123 537 -174 q 434 0 434 -73 l 781 0 q 730 -123 781 -73 m 1191 233 q 1215 174 1215 206 q 1191 113 1215 138 q 1128 87 1166 87 l 87 87 q 42 99 62 87 q 11 132 22 111 q 0 174 0 152 q 24 233 0 206 q 33 244 27 236 q 96 317 73 285 q 146 441 119 350 q 174 651 174 532 q 271 925 174 808 q 521 1072 369 1042 l 521 1128 q 547 1190 521 1164 q 608 1215 572 1215 q 669 1190 643 1215 q 694 1128 694 1164 l 694 1072 q 873 993 795 1053 q 997 844 952 933 q 1042 651 1042 754 q 1069 441 1042 532 q 1119 317 1096 350 q 1183 244 1142 285 q 1191 233 1188 236 z "},"":{"ha":1736,"x_min":-19,"x_max":1736,"o":"m 521 174 q 336 250 412 174 q 260 434 260 326 l 260 1063 q 279 1109 260 1090 q 326 1128 298 1128 l 1389 1128 q 1634 1027 1533 1128 q 1736 781 1736 925 q 1634 536 1736 637 q 1389 434 1533 434 l 1302 434 q 1226 250 1302 326 q 1042 174 1150 174 l 521 174 m 1389 955 l 1302 955 l 1302 608 l 1389 608 q 1511 659 1459 608 q 1563 781 1563 711 q 1511 903 1563 852 q 1389 955 1459 955 m 1519 -87 l 130 -87 q 8 0 41 -87 q 19 84 -16 65 q 33 87 24 87 l 1617 87 q 1647 24 1657 87 q 1563 -79 1633 -54 q 1519 -87 1541 -87 z "},"":{"ha":1215,"x_min":0,"x_max":1215,"o":"m 1215 -119 l 1215 -174 l 0 -174 l 0 -119 q 33 -87 0 -87 l 87 -87 l 87 890 q 106 936 87 917 q 152 955 125 955 l 391 955 l 391 1150 q 410 1196 391 1177 q 456 1215 429 1215 l 760 1215 q 806 1196 787 1215 q 825 1150 825 1177 l 825 955 l 1063 955 q 1109 936 1090 955 q 1128 890 1128 917 l 1128 -87 l 1183 -87 q 1215 -119 1215 -87 m 836 694 l 727 694 q 694 662 694 694 l 694 553 q 727 521 694 521 l 836 521 q 868 553 868 521 l 868 662 q 836 694 868 694 m 380 521 l 488 521 q 521 553 521 521 l 521 662 q 488 694 521 694 l 380 694 q 347 662 347 694 l 347 553 q 380 521 347 521 m 662 174 l 553 174 q 521 141 521 174 l 521 -87 l 694 -87 l 694 141 q 662 174 694 174 m 836 434 l 727 434 q 694 401 694 434 l 694 293 q 727 260 694 260 l 836 260 q 868 293 868 260 l 868 401 q 836 434 868 434 m 521 401 q 488 434 521 434 l 380 434 q 347 401 347 434 l 347 293 q 380 260 347 260 l 488 260 q 521 293 521 260 l 521 401 m 494 955 l 564 955 l 564 884 q 581 868 564 868 l 635 868 q 651 884 651 868 l 651 955 l 722 955 q 738 971 738 955 l 738 1025 q 722 1042 738 1042 l 651 1042 l 651 1112 q 635 1128 651 1128 l 581 1128 q 564 1112 564 1128 l 564 1042 l 494 1042 q 477 1025 477 1042 l 477 971 q 494 955 477 955 z "},"":{"ha":1736,"x_min":0,"x_max":1736,"o":"m 1693 260 q 1724 248 1712 260 q 1736 217 1736 236 l 1736 130 q 1724 99 1736 111 q 1693 87 1712 87 l 1563 87 q 1487 -98 1563 -22 q 1302 -174 1411 -174 q 1118 -98 1194 -174 q 1042 87 1042 -22 l 694 87 q 618 -98 694 -22 q 434 -174 543 -174 q 250 -98 326 -174 q 174 87 174 -22 l 130 87 q 38 125 76 87 q 0 217 0 163 l 0 1085 q 38 1177 0 1139 q 130 1215 76 1215 l 998 1215 q 1090 1177 1053 1215 q 1128 1085 1128 1139 l 1128 955 l 1248 955 q 1340 917 1302 955 l 1611 646 q 1649 553 1649 608 l 1649 260 l 1693 260 m 342 -5 q 361 -24 342 -5 q 434 -43 380 -43 q 526 -5 488 -43 q 564 87 564 33 q 526 179 564 141 q 434 217 488 217 q 342 179 380 217 q 304 87 304 141 q 342 -5 304 33 m 825 629 l 825 760 q 803 781 825 781 l 651 781 l 651 933 q 629 955 651 955 l 499 955 q 477 933 477 955 l 477 781 l 326 781 q 304 760 304 781 l 304 629 q 326 608 304 608 l 477 608 l 477 456 q 499 434 477 434 l 629 434 q 651 456 651 434 l 651 608 l 803 608 q 825 629 825 608 m 1210 -5 q 1229 -24 1210 -5 q 1302 -43 1248 -43 q 1394 -5 1356 -43 q 1432 87 1432 33 q 1394 179 1432 141 q 1302 217 1356 217 q 1210 179 1248 217 q 1172 87 1172 141 q 1210 -5 1172 33 m 1519 521 l 1519 553 l 1248 825 l 1128 825 l 1128 521 l 1519 521 z "},"":{"ha":1389,"x_min":0,"x_max":1389,"o":"m 260 -87 l 260 868 l 347 868 l 347 998 q 385 1090 347 1053 q 477 1128 423 1128 l 911 1128 q 1004 1090 966 1128 q 1042 998 1042 1053 l 1042 868 l 1128 868 l 1128 -87 l 260 -87 m 521 955 l 521 868 l 868 868 l 868 955 l 521 955 m 1389 738 l 1389 43 q 1351 -49 1389 -11 q 1259 -87 1313 -87 l 1215 -87 l 1215 868 l 1259 868 q 1351 830 1313 868 q 1389 738 1389 792 m 174 -87 l 130 -87 q 38 -49 76 -87 q 0 43 0 -11 l 0 738 q 38 830 0 792 q 130 868 76 868 l 174 868 l 174 -87 m 955 477 q 943 509 955 496 q 911 521 930 521 l 781 521 l 781 651 q 769 682 781 670 q 738 694 757 694 l 651 694 q 620 682 632 694 q 608 651 608 670 l 608 521 l 477 521 q 446 509 458 521 q 434 477 434 496 l 434 391 q 446 359 434 372 q 477 347 458 347 l 608 347 l 608 217 q 620 186 608 198 q 651 174 632 174 l 738 174 q 769 186 757 174 q 781 217 781 198 l 781 347 l 911 347 q 943 359 930 347 q 955 391 955 372 l 955 477 z "},"":{"ha":1736,"x_min":0,"x_max":1736,"o":"m 1476 608 q 1736 521 1736 551 q 1476 434 1736 491 l 1128 391 l 998 347 l 933 347 l 616 -54 l 724 -54 q 781 -71 781 -54 q 724 -87 781 -87 l 412 -87 l 412 -54 l 456 -54 l 456 391 l 326 391 l 144 174 l 52 174 l 22 203 l 22 391 l 43 391 l 43 434 l 174 434 l 174 442 l 0 464 l 0 578 l 174 600 l 174 608 l 43 608 l 43 651 l 22 651 l 22 838 l 52 868 l 144 868 l 326 651 l 456 651 l 456 1096 l 412 1096 l 412 1128 l 724 1128 q 781 1112 781 1128 q 724 1096 781 1096 l 616 1096 l 933 694 l 998 694 l 1128 651 l 1476 608 z "},"":{"ha":1215,"x_min":0,"x_max":1215,"o":"m 998 955 q 1152 891 1088 955 q 1215 738 1215 827 l 1215 388 q 1180 270 1215 323 q 1088 190 1145 217 l 868 92 l 868 -22 q 849 -68 868 -49 q 803 -87 830 -87 l 65 -87 q 19 -68 38 -87 q 0 -22 0 -49 l 0 1063 q 19 1109 0 1090 q 65 1128 38 1128 l 803 1128 q 849 1109 830 1128 q 868 1063 868 1090 l 868 955 l 998 955 m 1042 388 l 1042 738 q 1029 769 1042 757 q 998 781 1017 781 l 868 781 l 868 282 l 1017 350 q 1042 388 1042 361 m 533 186 q 539 180 533 186 q 564 174 545 174 q 595 186 583 174 q 608 217 608 198 l 608 825 q 595 856 608 844 q 564 868 583 868 q 533 856 545 868 q 521 825 521 844 l 521 217 q 533 186 521 198 m 273 186 q 279 180 273 186 q 304 174 285 174 q 335 186 323 174 q 347 217 347 198 l 347 825 q 335 856 347 844 q 304 868 323 868 q 273 856 285 868 q 260 825 260 844 l 260 217 q 273 186 260 198 z "},"":{"ha":1215,"x_min":0,"x_max":1215,"o":"m 1215 998 l 1215 43 q 1177 -49 1215 -11 q 1085 -87 1139 -87 l 130 -87 q 38 -49 76 -87 q 0 43 0 -11 l 0 998 q 38 1090 0 1053 q 130 1128 76 1128 l 1085 1128 q 1177 1090 1139 1128 q 1215 998 1215 1053 m 911 868 l 825 868 q 793 856 806 868 q 781 825 781 844 l 781 608 l 434 608 l 434 825 q 422 856 434 844 q 391 868 410 868 l 304 868 q 273 856 285 868 q 260 825 260 844 l 260 217 q 273 186 260 198 q 304 174 285 174 l 391 174 q 422 186 410 174 q 434 217 434 198 l 434 434 l 781 434 l 781 217 q 793 186 781 198 q 825 174 806 174 l 911 174 q 943 186 930 174 q 955 217 955 198 l 955 825 q 943 856 955 844 q 911 868 930 868 z "},"":{"ha":1215,"x_min":0,"x_max":1215,"o":"m 1085 1128 q 1177 1090 1139 1128 q 1215 998 1215 1053 l 1215 43 q 1177 -49 1215 -11 q 1085 -87 1139 -87 l 130 -87 q 38 -49 76 -87 q 0 43 0 -11 l 0 998 q 38 1090 0 1053 q 130 1128 76 1128 l 1085 1128 m 998 445 l 998 597 q 966 629 998 629 l 716 629 l 716 879 q 684 911 716 911 l 532 911 q 499 879 499 911 l 499 629 l 250 629 q 217 597 217 629 l 217 445 q 250 412 217 412 l 499 412 l 499 163 q 532 130 499 130 l 684 130 q 716 163 716 130 l 716 412 l 966 412 q 998 445 998 412 z "},"":{"ha":1215,"x_min":65,"x_max":1153,"o":"m 608 567 l 977 936 q 1023 955 996 955 q 1069 936 1050 955 l 1128 873 q 1147 827 1147 854 q 1128 781 1147 800 l 868 521 l 1128 260 q 1146 231 1142 247 q 1146 197 1150 214 q 1128 168 1142 179 l 1069 106 q 1023 87 1050 87 q 977 106 996 87 l 608 475 q 589 521 589 494 q 608 567 589 548 m 87 475 q 68 521 68 494 q 87 567 68 548 l 456 936 q 502 955 475 955 q 548 936 529 955 l 608 873 q 627 827 627 854 q 608 781 627 800 l 347 521 l 608 260 q 627 214 627 241 q 608 168 627 187 l 548 106 q 502 87 529 87 q 456 106 475 87 l 87 475 z "},"":{"ha":1215,"x_min":65,"x_max":1150,"o":"m 608 475 l 239 106 q 193 87 220 87 q 146 106 165 87 l 87 168 q 68 214 68 187 q 87 260 68 241 l 347 521 l 87 781 q 68 827 68 800 q 87 873 68 854 l 146 936 q 193 955 165 955 q 239 936 220 955 l 608 567 q 627 521 627 548 q 608 475 627 494 m 1128 567 q 1147 521 1147 548 q 1128 475 1147 494 l 760 106 q 713 87 741 87 q 667 106 686 87 l 608 168 q 589 214 589 187 q 608 260 589 241 l 868 521 l 608 781 q 589 827 589 800 q 608 873 589 854 l 667 936 q 690 949 678 944 q 715 955 703 955 q 739 949 727 955 q 760 936 751 944 l 1128 567 z "},"":{"ha":868,"x_min":-3,"x_max":871,"o":"m 480 521 l 849 152 q 868 106 868 133 q 849 60 868 79 l 787 0 q 741 -19 768 -19 q 694 0 713 -19 l 434 260 l 174 0 q 127 -19 155 -19 q 81 0 100 -19 l 19 60 q 0 106 0 79 q 19 152 0 133 l 388 521 q 434 540 407 540 q 480 521 461 540 m 388 1042 q 434 1061 407 1061 q 480 1042 461 1061 l 849 673 q 868 627 868 654 q 849 581 868 600 l 787 521 q 741 502 768 502 q 694 521 713 502 l 434 781 l 174 521 q 151 506 163 510 q 126 502 138 502 q 102 506 114 502 q 81 521 90 510 l 19 581 q 0 627 0 600 q 19 673 0 654 l 388 1042 z "},"":{"ha":868,"x_min":-3,"x_max":871,"o":"m 388 521 l 19 890 q 0 936 0 909 q 19 982 0 963 l 81 1042 q 127 1061 100 1061 q 174 1042 155 1061 l 434 781 l 694 1042 q 741 1061 713 1061 q 787 1042 768 1061 l 849 982 q 868 936 868 963 q 849 890 868 909 l 480 521 q 434 502 461 502 q 388 521 407 502 m 480 0 q 434 -19 461 -19 q 388 0 407 -19 l 19 369 q 0 415 0 388 q 19 461 0 442 l 81 521 q 127 540 100 540 q 174 521 155 540 l 434 260 l 694 521 q 741 540 713 540 q 787 521 768 540 l 849 461 q 868 415 868 442 q 849 369 868 388 l 480 0 z "},"":{"ha":694,"x_min":65,"x_max":632,"o":"m 87 567 l 456 936 q 502 955 475 955 q 548 936 529 955 l 608 873 q 627 827 627 854 q 608 781 627 800 l 347 521 l 608 260 q 625 231 621 247 q 625 197 629 214 q 608 168 621 179 l 548 106 q 502 87 529 87 q 456 106 475 87 l 87 475 q 68 521 68 494 q 87 567 68 548 z "},"":{"ha":694,"x_min":65,"x_max":629,"o":"m 608 475 l 239 106 q 193 87 220 87 q 146 106 165 87 l 87 168 q 68 214 68 187 q 87 260 68 241 l 347 521 l 87 781 q 68 827 68 800 q 87 873 68 854 l 146 936 q 193 955 165 955 q 239 936 220 955 l 608 567 q 627 521 627 548 q 608 475 627 494 z "},"":{"ha":868,"x_min":-3,"x_max":871,"o":"m 480 781 l 849 412 q 868 366 868 393 q 849 320 868 339 l 787 260 q 741 241 768 241 q 694 260 713 241 l 434 521 l 174 260 q 127 241 155 241 q 81 260 100 241 l 19 320 q 0 366 0 339 q 19 412 0 393 l 388 781 q 434 800 407 800 q 480 781 461 800 z "},"":{"ha":868,"x_min":-3,"x_max":868,"o":"m 388 260 l 19 629 q 0 675 0 648 q 19 722 0 703 l 81 781 q 127 800 100 800 q 174 781 155 800 l 434 521 l 694 781 q 741 800 713 800 q 787 781 768 800 l 849 722 q 868 675 868 703 q 849 629 868 648 l 480 260 q 434 241 461 241 q 388 260 407 241 z "},"":{"ha":1563,"x_min":0,"x_max":1563,"o":"m 1432 1215 q 1525 1177 1487 1215 q 1563 1085 1563 1139 l 1563 217 q 1525 125 1563 163 q 1432 87 1487 87 l 911 87 l 955 -43 l 1150 -43 q 1196 -62 1177 -43 q 1215 -109 1215 -81 q 1196 -155 1215 -136 q 1150 -174 1177 -174 l 412 -174 q 366 -155 385 -174 q 347 -109 347 -136 q 366 -62 347 -81 q 412 -43 385 -43 l 608 -43 l 651 87 l 130 87 q 38 125 76 87 q 0 217 0 163 l 0 1085 q 38 1177 0 1139 q 130 1215 76 1215 l 1432 1215 m 1389 260 l 1389 1042 l 174 1042 l 174 260 l 1389 260 z "},"":{"ha":1736,"x_min":0,"x_max":1736,"o":"m 1693 87 q 1724 75 1712 87 q 1736 43 1736 62 l 1736 0 q 1685 -122 1736 -71 q 1563 -174 1633 -174 l 174 -174 q 52 -122 103 -174 q 0 0 0 -71 l 0 43 q 12 75 0 62 q 43 87 24 87 l 692 87 q 719 28 692 57 q 781 0 746 0 l 947 0 q 1009 23 985 0 q 1036 87 1034 46 l 1693 87 m 1563 1085 l 1563 174 l 174 174 l 174 1085 q 212 1177 174 1139 q 304 1215 250 1215 l 1432 1215 q 1525 1177 1487 1215 q 1563 1085 1563 1139 m 1389 347 l 1389 1042 l 347 1042 l 347 347 l 1389 347 z "},"":{"ha":1215,"x_min":0,"x_max":1215,"o":"m 1085 1215 q 1177 1177 1139 1215 q 1215 1085 1215 1139 l 1215 -43 q 1177 -136 1215 -98 q 1085 -174 1139 -174 l 130 -174 q 38 -136 76 -174 q 0 -43 0 -98 l 0 1085 q 38 1177 0 1139 q 130 1215 76 1215 l 1085 1215 m 547 -61 q 559 -74 547 -61 q 608 -87 572 -87 q 669 -61 643 -87 q 694 0 694 -35 q 669 61 694 35 q 608 87 643 87 q 547 61 572 87 q 521 0 521 35 q 547 -61 521 -35 z "},"":{"ha":868,"x_min":0,"x_max":868,"o":"m 738 1215 q 830 1177 792 1215 q 868 1085 868 1139 l 868 -43 q 830 -136 868 -98 q 738 -174 792 -174 l 130 -174 q 38 -136 76 -174 q 0 -43 0 -98 l 0 1085 q 38 1177 0 1139 q 130 1215 76 1215 l 738 1215 m 373 -61 q 386 -74 373 -61 q 434 -87 399 -87 q 495 -61 469 -87 q 521 0 521 -35 q 495 61 521 35 q 434 87 469 87 q 373 61 399 87 q 347 0 347 35 q 373 -61 347 -35 z "},"":{"ha":1389,"x_min":0,"x_max":1389,"o":"m 1259 521 q 1351 483 1313 521 q 1389 391 1389 445 l 1389 43 q 1351 -49 1389 -11 q 1259 -87 1313 -87 l 911 -87 q 819 -49 857 -87 q 781 43 781 -11 l 781 694 q 909 1001 781 873 q 1215 1128 1036 1128 l 1237 1128 q 1283 1109 1264 1128 q 1302 1063 1302 1090 l 1302 933 q 1283 887 1302 906 q 1237 868 1264 868 l 1215 868 q 1093 817 1145 868 q 1042 694 1042 765 l 1042 521 l 1259 521 m 477 521 q 570 483 532 521 q 608 391 608 445 l 608 43 q 570 -49 608 -11 q 477 -87 532 -87 l 130 -87 q 38 -49 76 -87 q 0 43 0 -11 l 0 694 q 127 1001 0 873 q 434 1128 255 1128 l 456 1128 q 502 1109 483 1128 q 521 1063 521 1090 l 521 933 q 502 887 521 906 q 456 868 483 868 l 434 868 q 312 817 363 868 q 260 694 260 765 l 260 521 l 477 521 z "},"":{"ha":1389,"x_min":0,"x_max":1389,"o":"m 1259 1128 q 1351 1090 1313 1128 q 1389 998 1389 1053 l 1389 347 q 1261 41 1389 168 q 955 -87 1134 -87 l 933 -87 q 887 -68 906 -87 q 868 -22 868 -49 l 868 109 q 887 155 868 136 q 933 174 906 174 l 955 174 q 1077 225 1025 174 q 1128 347 1128 277 l 1128 521 l 911 521 q 819 559 857 521 q 781 651 781 597 l 781 998 q 819 1090 781 1053 q 911 1128 857 1128 l 1259 1128 m 477 1128 q 570 1090 532 1128 q 608 998 608 1053 l 608 347 q 480 41 608 168 q 174 -87 353 -87 l 152 -87 q 106 -68 125 -87 q 87 -22 87 -49 l 87 109 q 106 155 87 136 q 152 174 125 174 l 174 174 q 296 225 244 174 q 347 347 347 277 l 347 521 l 130 521 q 38 559 76 521 q 0 651 0 597 l 0 998 q 38 1090 0 1053 q 130 1128 76 1128 l 477 1128 z "},"":{"ha":1389,"x_min":0,"x_max":1389,"o":"m 787 1177 q 806 1158 787 1177 q 825 1085 825 1139 q 787 993 825 1031 q 694 955 749 955 q 602 993 640 955 q 564 1085 564 1031 q 602 1177 564 1139 q 694 1215 640 1215 q 787 1177 749 1215 m 602 49 q 621 68 602 49 q 694 87 640 87 q 787 49 749 87 q 825 -43 825 11 q 787 -136 825 -98 q 694 -174 749 -174 q 602 -136 640 -174 q 564 -43 564 -98 q 602 49 564 11 m 1166 613 q 1185 632 1166 613 q 1259 651 1204 651 q 1351 613 1313 651 q 1389 521 1389 575 q 1351 429 1389 467 q 1259 391 1313 391 q 1166 429 1204 391 q 1128 521 1128 467 q 1166 613 1128 575 m 222 613 q 241 594 222 613 q 260 521 260 575 q 222 429 260 467 q 130 391 184 391 q 38 429 76 391 q 0 521 0 467 q 38 613 0 575 q 130 651 76 651 q 222 613 184 651 m 203 214 q 222 233 203 214 q 296 252 241 252 q 388 214 350 252 q 426 122 426 176 q 388 30 426 68 q 296 -8 350 -8 q 203 30 241 -8 q 165 122 165 68 q 203 214 165 176 m 1001 214 q 1020 233 1001 214 q 1093 252 1039 252 q 1185 214 1147 252 q 1223 122 1223 176 q 1185 30 1223 68 q 1093 -8 1147 -8 q 1001 30 1039 -8 q 963 122 963 68 q 1001 214 963 176 m 203 1012 q 222 1031 203 1012 q 296 1050 241 1050 q 388 1012 350 1050 q 426 920 426 974 q 388 827 426 865 q 296 789 350 789 q 203 827 241 789 q 165 920 165 865 q 203 1012 165 974 z "},"":{"ha":1389,"x_min":22,"x_max":1367,"o":"m 218 997 q 317 1095 218 997 q 694 1194 415 1194 q 1171 997 974 1194 q 1367 521 1367 800 q 1171 45 1367 241 q 694 -152 974 -152 q 218 45 415 -152 q 22 521 22 241 q 218 997 22 800 z "},"":{"ha":1345,"x_min":0,"x_max":1345,"o":"m 197 997 q 295 1095 197 997 q 673 1194 393 1194 q 1149 997 952 1194 q 1345 521 1345 800 q 1149 45 1345 241 q 673 -152 952 -152 q 197 45 393 -152 q 0 521 0 241 q 197 997 0 800 m 951 712 q 938 725 951 712 q 890 738 925 738 q 829 712 854 738 q 803 651 803 686 q 829 590 803 616 q 890 564 854 564 q 951 590 925 564 q 977 651 977 616 q 951 712 977 686 m 517 712 q 504 725 517 712 q 456 738 491 738 q 395 712 420 738 q 369 651 369 686 q 395 590 369 616 q 456 564 420 564 q 517 590 491 564 q 543 651 543 616 q 517 712 543 686 m 985 277 q 996 302 996 288 q 987 327 996 317 q 967 343 979 336 q 941 347 955 350 q 917 331 928 345 q 673 217 822 217 q 429 331 524 217 q 404 347 418 345 q 378 343 391 350 q 358 327 366 336 q 350 302 350 317 q 361 277 350 288 q 673 130 483 130 q 985 277 863 130 z "},"":{"ha":1345,"x_min":0,"x_max":1345,"o":"m 197 997 q 295 1095 197 997 q 673 1194 393 1194 q 1149 997 952 1194 q 1345 521 1345 800 q 1149 45 1345 241 q 673 -152 952 -152 q 197 45 393 -152 q 0 521 0 241 q 197 997 0 800 m 951 712 q 938 725 951 712 q 890 738 925 738 q 829 712 854 738 q 803 651 803 686 q 829 590 803 616 q 890 564 854 564 q 951 590 925 564 q 977 651 977 616 q 951 712 977 686 m 517 712 q 504 725 517 712 q 456 738 491 738 q 395 712 420 738 q 369 651 369 686 q 395 590 369 616 q 456 564 420 564 q 517 590 491 564 q 543 651 543 616 q 517 712 543 686 m 917 146 q 960 130 936 125 q 991 157 985 136 q 985 201 998 179 q 673 347 863 347 q 361 201 483 347 q 354 159 345 182 q 387 132 363 136 q 429 146 410 127 q 673 260 524 260 q 917 146 822 260 z "},"":{"ha":1345,"x_min":0,"x_max":1345,"o":"m 197 997 q 295 1095 197 997 q 673 1194 393 1194 q 1149 997 952 1194 q 1345 521 1345 800 q 1149 45 1345 241 q 673 -152 952 -152 q 197 45 393 -152 q 0 521 0 241 q 197 997 0 800 m 517 712 q 504 725 517 712 q 456 738 491 738 q 395 712 420 738 q 369 651 369 686 q 395 590 369 616 q 456 564 420 564 q 517 590 491 564 q 543 651 543 616 q 517 712 543 686 m 933 217 q 977 260 977 217 q 933 304 977 304 l 412 304 q 369 260 369 304 q 412 217 369 217 l 933 217 m 829 590 q 842 577 829 590 q 890 564 854 564 q 951 590 925 564 q 977 651 977 616 q 951 712 977 686 q 890 738 925 738 q 829 712 854 738 q 803 651 803 686 q 829 590 803 616 z "},"":{"ha":1736,"x_min":0,"x_max":1736,"o":"m 1302 955 q 1609 827 1481 955 q 1736 521 1736 700 q 1609 214 1736 342 q 1302 87 1481 87 q 993 217 1120 87 l 743 217 q 434 87 616 87 q 127 214 255 87 q 0 521 0 342 q 127 827 0 700 q 434 955 255 955 l 1302 955 m 694 467 l 694 575 q 662 608 694 608 l 521 608 l 521 749 q 488 781 521 781 l 380 781 q 347 749 347 781 l 347 608 l 206 608 q 174 575 174 608 l 174 467 q 206 434 174 434 l 347 434 l 347 293 q 380 260 347 260 l 488 260 q 521 293 521 260 l 521 434 l 662 434 q 694 467 694 434 m 1101 320 q 1120 301 1101 320 q 1194 282 1139 282 q 1286 320 1248 282 q 1324 412 1324 358 q 1286 505 1324 467 q 1194 543 1248 543 q 1101 505 1139 543 q 1063 412 1063 467 q 1101 320 1063 358 m 1318 537 q 1337 518 1318 537 q 1411 499 1356 499 q 1503 537 1465 499 q 1541 629 1541 575 q 1503 722 1541 684 q 1411 760 1465 760 q 1318 722 1356 760 q 1280 629 1280 684 q 1318 537 1280 575 z "},"":{"ha":1563,"x_min":0,"x_max":1563,"o":"m 1432 0 l 130 0 q 38 38 76 0 q 0 130 0 76 l 0 911 q 38 1004 0 966 q 130 1042 76 1042 l 1432 1042 q 1525 1004 1487 1042 q 1563 911 1563 966 l 1563 130 q 1525 38 1563 76 q 1432 0 1487 0 m 347 727 l 347 836 q 315 868 347 868 l 206 868 q 174 836 174 868 l 174 727 q 206 694 174 694 l 315 694 q 347 727 347 694 m 608 727 l 608 836 q 575 868 608 868 l 467 868 q 434 836 434 868 l 434 727 q 467 694 434 694 l 575 694 q 608 727 608 694 m 868 727 l 868 836 q 836 868 868 868 l 727 868 q 694 836 694 868 l 694 727 q 727 694 694 694 l 836 694 q 868 727 868 694 m 1128 727 l 1128 836 q 1096 868 1128 868 l 987 868 q 955 836 955 868 l 955 727 q 987 694 955 694 l 1096 694 q 1128 727 1128 694 m 1389 727 l 1389 836 q 1356 868 1389 868 l 1248 868 q 1215 836 1215 868 l 1215 727 q 1248 694 1215 694 l 1356 694 q 1389 727 1389 694 m 477 467 l 477 575 q 445 608 477 608 l 336 608 q 304 575 304 608 l 304 467 q 336 434 304 434 l 445 434 q 477 467 477 434 m 738 467 l 738 575 q 705 608 738 608 l 597 608 q 564 575 564 608 l 564 467 q 597 434 564 434 l 705 434 q 738 467 738 434 m 998 467 l 998 575 q 966 608 998 608 l 857 608 q 825 575 825 608 l 825 467 q 857 434 825 434 l 966 434 q 998 467 998 434 m 1259 467 l 1259 575 q 1226 608 1259 608 l 1118 608 q 1085 575 1085 608 l 1085 467 q 1118 434 1085 434 l 1226 434 q 1259 467 1259 434 m 347 206 l 347 315 q 315 347 347 347 l 206 347 q 174 315 174 347 l 174 206 q 206 174 174 174 l 315 174 q 347 206 347 174 m 1128 206 l 1128 315 q 1096 347 1128 347 l 467 347 q 434 315 434 347 l 434 206 q 467 174 434 174 l 1096 174 q 1128 206 1128 174 m 1389 206 l 1389 315 q 1356 347 1389 347 l 1248 347 q 1215 315 1215 347 l 1215 206 q 1248 174 1215 174 l 1356 174 q 1389 206 1389 174 z "},"":{"ha":1389,"x_min":22,"x_max":1389,"o":"m 659 700 q 751 671 684 694 q 860 640 819 648 l 860 456 q 768 484 836 461 q 659 515 700 507 l 659 700 m 1264 1034 q 1348 1028 1308 1053 q 1389 955 1389 1004 l 1389 296 q 1351 225 1389 250 q 1020 114 1191 114 q 780 160 922 114 q 570 206 637 206 q 260 146 401 206 l 260 -109 q 241 -155 260 -136 q 195 -174 222 -174 l 152 -174 q 106 -155 125 -174 q 87 -109 87 -136 l 87 939 q 22 1063 22 985 q 68 1173 22 1128 q 179 1215 114 1218 q 250 1194 217 1213 q 302 1143 282 1175 q 326 1074 323 1112 q 315 1009 328 1039 q 500 1042 404 1042 q 738 994 597 1042 q 949 947 879 947 q 1264 1034 1080 947 m 461 331 l 461 526 q 260 477 369 518 l 260 288 q 461 331 355 323 m 1259 697 l 1259 890 q 1058 827 1153 844 l 1058 632 q 860 640 963 616 l 860 825 q 659 884 827 830 l 659 700 q 461 716 556 730 l 461 909 q 260 849 410 906 l 260 659 q 461 716 385 705 l 461 526 q 659 515 570 534 l 659 331 q 860 271 689 326 l 860 456 q 1058 439 963 426 l 1058 244 q 1259 320 1158 255 l 1259 510 q 1058 439 1172 456 l 1058 632 q 1259 697 1131 643 z "},"":{"ha":1736,"x_min":-3,"x_max":1736,"o":"m 700 475 l 174 -52 q 127 -71 155 -71 q 81 -52 100 -71 l 19 8 q 0 54 0 27 q 19 100 0 81 l 437 521 l 19 941 q 0 987 0 960 q 19 1034 0 1015 l 81 1093 q 127 1112 100 1112 q 174 1093 155 1112 l 700 567 q 719 521 719 548 q 700 475 719 494 m 1736 -22 q 1717 -68 1736 -49 q 1671 -87 1698 -87 l 846 -87 q 800 -68 819 -87 q 781 -22 781 -49 l 781 65 q 800 111 781 92 q 846 130 819 130 l 1671 130 q 1717 111 1698 130 q 1736 65 1736 92 l 1736 -22 z "},"":{"ha":1736,"x_min":-16,"x_max":1752,"o":"m 757 -174 l 591 -125 q 570 -84 559 -117 l 939 1191 q 979 1215 947 1223 l 1145 1166 q 1166 1126 1177 1158 l 798 -149 q 757 -174 787 -182 m 448 133 q 401 130 426 109 l 11 496 q 11 545 -16 521 l 401 911 q 448 909 426 933 l 564 784 q 564 738 589 760 l 317 521 l 564 304 q 564 258 589 282 l 448 133 m 1335 130 q 1289 133 1310 109 l 1172 258 q 1172 304 1147 282 l 1419 521 l 1172 738 q 1172 784 1147 760 l 1289 909 q 1335 911 1310 933 l 1725 545 q 1725 496 1752 521 l 1335 130 z "},"":{"ha":1563,"x_min":-3,"x_max":1563,"o":"m 369 700 l 846 1112 q 917 1122 879 1139 q 955 1063 955 1104 l 955 838 q 1199 799 1093 827 q 1389 715 1305 770 q 1518 564 1473 659 q 1563 342 1563 469 q 1497 107 1563 222 q 1337 -76 1432 -8 q 1279 -79 1308 -98 q 1261 -27 1251 -60 q 1260 328 1337 217 q 955 467 1183 439 l 955 239 q 917 180 955 198 q 846 190 879 163 l 369 602 q 347 651 347 621 q 369 700 347 681 m 22 602 q 0 651 0 621 q 22 700 0 681 l 499 1112 q 570 1122 532 1139 q 608 1063 608 1104 l 608 1020 l 312 765 q 275 713 290 746 q 260 651 260 681 l 260 651 q 275 589 260 621 q 312 537 290 556 l 608 282 l 608 239 q 570 180 608 198 q 499 190 532 163 l 22 602 z "},"":{"ha":1389,"x_min":-14,"x_max":1413,"o":"m 1207 1204 q 1347 1173 1283 1237 q 1378 1034 1411 1109 l 860 -95 q 795 -160 838 -141 q 711 -171 751 -179 q 639 -127 670 -163 q 608 -43 608 -92 l 608 434 l 130 434 q 26 484 62 434 q 3 595 -11 534 q 79 686 16 656 l 1207 1204 z "},"":{"ha":1389,"x_min":0,"x_max":1408,"o":"m 1324 260 q 1370 241 1351 260 q 1389 195 1389 222 l 1389 65 q 1370 19 1389 38 q 1324 0 1351 0 l 1215 0 l 1215 -109 q 1196 -155 1215 -136 q 1150 -174 1177 -174 l 1020 -174 q 974 -155 993 -174 q 955 -109 955 -136 l 955 659 l 556 260 l 868 260 l 868 0 l 239 0 q 193 19 212 0 q 174 65 174 38 l 174 781 l 65 781 q 19 800 38 781 q 0 846 0 819 l 0 977 q 19 1023 0 1004 q 65 1042 38 1042 l 174 1042 l 174 1150 q 193 1196 174 1177 q 239 1215 212 1215 l 369 1215 q 415 1196 396 1215 q 434 1150 434 1177 l 434 382 l 833 781 l 521 781 l 521 1042 l 1093 1042 l 1253 1202 q 1316 1202 1283 1234 l 1375 1142 q 1375 1080 1408 1109 l 1215 920 l 1215 260 l 1324 260 z "},"":{"ha":1042,"x_min":0,"x_max":1042,"o":"m 1042 825 q 1001 697 1042 754 q 895 618 960 640 q 836 434 892 505 q 739 365 800 391 q 635 331 678 339 q 515 317 591 323 q 336 282 380 304 q 296 247 309 269 q 396 167 358 222 q 434 43 434 111 q 370 -110 434 -46 q 217 -174 307 -174 q 64 -110 127 -174 q 0 43 0 -46 q 19 134 0 92 q 73 206 38 176 q 152 250 109 236 l 152 792 q 42 868 84 811 q 0 998 0 925 q 64 1152 0 1088 q 217 1215 127 1215 q 370 1152 307 1215 q 434 998 434 1088 q 392 868 434 925 q 282 792 350 811 l 282 401 q 502 448 347 431 q 600 457 567 453 q 673 476 632 461 q 732 515 713 491 q 765 616 762 551 q 684 659 719 629 q 628 732 648 689 q 608 825 608 776 q 671 978 608 914 q 825 1042 735 1042 q 978 978 914 1042 q 1042 825 1042 914 m 248 1029 q 242 1036 248 1029 q 217 1042 236 1042 q 186 1029 198 1042 q 174 998 174 1017 q 186 967 174 979 q 217 955 198 955 q 248 967 236 955 q 260 998 260 979 q 248 1029 260 1017 m 186 12 q 192 6 186 12 q 217 0 198 0 q 248 12 236 0 q 260 43 260 24 q 248 75 260 62 q 217 87 236 87 q 186 75 198 87 q 174 43 174 62 q 186 12 174 24 m 856 856 q 850 862 856 856 q 825 868 844 868 q 793 856 806 868 q 781 825 781 844 q 793 793 781 806 q 825 781 806 781 q 856 793 844 781 q 868 825 868 806 q 856 856 868 844 z "},"":{"ha":1389,"x_min":-3,"x_max":1392,"o":"m 825 114 q 825 68 849 92 l 703 -54 q 412 -174 583 -174 q 121 -53 241 -174 q 0 239 0 68 q 119 529 0 410 l 241 651 q 288 651 266 675 l 396 543 q 396 499 418 521 l 274 377 q 217 239 217 320 q 274 100 217 157 q 412 43 331 43 q 551 100 494 43 l 673 222 q 716 222 694 244 l 825 114 m 673 819 l 564 928 q 564 974 540 949 l 686 1096 q 977 1215 806 1215 q 1268 1095 1147 1215 q 1389 803 1389 974 q 1270 513 1389 632 l 1147 391 q 1101 391 1123 366 l 993 499 q 993 543 971 521 l 1115 665 q 1172 803 1172 722 q 1115 941 1172 884 q 977 998 1058 998 q 838 941 895 998 l 716 819 q 673 819 694 798 m 1308 -155 q 1261 -174 1289 -174 q 1215 -155 1234 -174 l 19 1042 q 0 1088 0 1061 q 19 1134 0 1115 l 81 1196 q 127 1215 100 1215 q 174 1196 155 1215 l 1370 0 q 1389 -46 1389 -19 q 1370 -92 1389 -73 l 1308 -155 z "},"":{"ha":1042,"x_min":65,"x_max":1025,"o":"m 548 1215 q 876 1093 727 1215 q 1025 798 1025 971 q 990 644 1025 711 q 905 541 955 578 q 804 477 854 505 q 719 422 754 450 q 684 363 684 393 l 684 347 q 665 301 684 320 q 618 282 646 282 l 423 282 q 377 301 396 282 q 358 347 358 320 l 358 374 q 376 480 358 434 q 435 563 393 526 q 503 616 477 600 q 581 662 529 632 q 684 731 654 703 q 713 800 713 760 q 654 898 713 860 q 526 936 594 936 q 435 918 475 936 q 369 875 396 901 q 301 803 342 849 q 259 777 285 781 q 212 789 233 773 l 95 879 q 69 921 73 895 q 81 968 65 947 q 548 1215 252 1215 m 388 148 q 415 176 388 148 q 521 203 442 203 q 654 148 600 203 q 708 15 708 92 q 654 -118 708 -62 q 521 -174 600 -174 q 388 -118 442 -174 q 334 15 334 -62 q 388 148 334 92 z "},"":{"ha":521,"x_min":0,"x_max":521,"o":"m 54 65 l 109 65 l 109 456 l 54 456 q 16 472 33 456 q 0 510 0 488 l 0 640 q 16 678 0 662 q 54 694 33 694 l 358 694 q 396 678 380 694 q 412 640 412 662 l 412 65 l 467 65 q 505 49 488 65 q 521 11 521 33 l 521 -119 q 505 -157 521 -141 q 467 -174 488 -174 l 54 -174 q 16 -157 33 -174 q 0 -119 0 -141 l 0 11 q 16 49 0 33 q 54 65 33 65 m 122 1158 q 151 1187 122 1158 q 260 1215 179 1215 q 399 1158 342 1215 q 456 1020 456 1101 q 399 882 456 939 q 260 825 342 825 q 122 882 179 825 q 65 1020 65 939 q 122 1158 65 1101 z "},"":{"ha":521,"x_min":43,"x_max":477,"o":"m 414 197 q 446 165 414 197 q 477 43 477 133 q 414 -110 477 -46 q 260 -174 350 -174 q 107 -110 171 -174 q 43 43 43 -46 q 107 197 43 133 q 260 260 171 260 q 414 197 350 260 m 68 1147 q 87 1195 68 1175 q 133 1215 106 1215 l 388 1215 q 434 1195 415 1215 q 453 1147 453 1175 l 415 410 q 396 365 415 382 q 350 347 377 347 l 171 347 q 125 365 144 347 q 106 410 106 382 l 68 1147 z "},"":{"ha":1389,"x_min":0,"x_max":1389,"o":"m 1345 781 q 1377 769 1364 781 q 1389 738 1389 757 l 1389 651 q 1377 620 1389 632 q 1345 608 1364 608 l 1085 608 q 1054 620 1066 608 q 1042 651 1042 632 l 1042 738 q 1054 769 1042 757 q 1085 781 1066 781 l 1128 781 l 1128 1042 l 1085 1042 q 1054 1054 1066 1042 q 1042 1085 1042 1066 q 1047 1104 1042 1096 l 1090 1191 q 1128 1215 1101 1215 l 1259 1215 q 1290 1203 1278 1215 q 1302 1172 1302 1191 l 1302 781 l 1345 781 m 911 1042 q 943 1029 930 1042 q 955 998 955 1017 l 955 868 q 943 837 955 849 q 911 825 930 825 l 822 825 l 610 521 l 822 217 l 911 217 q 943 205 930 217 q 955 174 955 193 l 955 43 q 943 12 955 24 q 911 0 930 0 l 730 0 q 694 19 708 0 l 477 331 l 260 19 q 225 0 247 0 l 43 0 q 12 12 24 0 q 0 43 0 24 l 0 174 q 12 205 0 193 q 43 217 24 217 l 133 217 l 345 521 l 133 825 l 43 825 q 12 837 24 825 q 0 868 0 849 l 0 998 q 12 1029 0 1017 q 43 1042 24 1042 l 225 1042 q 260 1023 247 1042 l 477 711 l 694 1023 q 730 1042 708 1042 l 911 1042 z "},"":{"ha":1389,"x_min":0,"x_max":1389,"o":"m 1345 0 q 1377 -12 1364 0 q 1389 -43 1389 -24 l 1389 -130 q 1377 -161 1389 -149 q 1345 -174 1364 -174 l 1085 -174 q 1054 -161 1066 -174 q 1042 -130 1042 -149 l 1042 -43 q 1054 -12 1042 -24 q 1085 0 1066 0 l 1128 0 l 1128 260 l 1085 260 q 1054 273 1066 260 q 1042 304 1042 285 q 1047 323 1042 315 l 1090 410 q 1128 434 1101 434 l 1259 434 q 1290 422 1278 434 q 1302 391 1302 410 l 1302 0 l 1345 0 m 911 1042 q 943 1029 930 1042 q 955 998 955 1017 l 955 868 q 943 837 955 849 q 911 825 930 825 l 822 825 l 610 521 l 822 217 l 911 217 q 943 205 930 217 q 955 174 955 193 l 955 43 q 943 12 955 24 q 911 0 930 0 l 730 0 q 694 19 708 0 l 477 331 l 260 19 q 225 0 247 0 l 43 0 q 12 12 24 0 q 0 43 0 24 l 0 174 q 12 205 0 193 q 43 217 24 217 l 133 217 l 345 521 l 133 825 l 43 825 q 12 837 24 825 q 0 868 0 849 l 0 998 q 12 1029 0 1017 q 43 1042 24 1042 l 225 1042 q 260 1023 247 1042 l 477 711 l 694 1023 q 730 1042 708 1042 l 911 1042 z "},"":{"ha":1389,"x_min":-3,"x_max":1389,"o":"m 1351 472 l 966 87 l 1356 87 q 1389 54 1389 87 l 1389 -54 q 1356 -87 1389 -87 l 391 -87 q 298 -49 336 -87 l 38 212 q 0 304 0 250 q 38 396 0 358 l 732 1090 q 825 1128 770 1128 q 917 1090 879 1128 l 1351 656 q 1389 564 1389 618 q 1351 472 1389 510 m 529 643 l 193 304 l 410 87 l 719 87 l 903 269 l 529 643 z "},"":{"ha":1563,"x_min":0,"x_max":1563,"o":"m 1408 431 q 1493 406 1457 431 q 1546 340 1530 380 q 1563 255 1563 301 q 1523 134 1563 182 q 1413 87 1484 87 q 1293 136 1359 87 q 1180 184 1226 184 q 1109 151 1134 184 q 1084 69 1085 117 q 1088 -26 1082 22 q 1101 -109 1093 -73 l 1109 -141 q 1038 -146 1082 -141 q 949 -156 993 -152 q 857 -165 906 -160 q 766 -168 808 -171 q 690 -157 724 -165 q 637 -127 656 -149 q 618 -71 618 -106 q 667 41 618 -24 q 716 163 716 106 q 669 270 716 231 q 548 309 621 309 q 463 293 502 309 q 400 241 423 277 q 377 157 377 206 q 404 66 377 109 q 458 -7 431 24 q 486 -62 486 -38 q 435 -144 486 -117 q 313 -172 385 -171 q 171 -168 241 -174 q 49 -152 100 -163 l 0 -141 l 0 762 q 174 735 0 762 q 477 841 477 705 q 434 933 477 865 q 391 1063 391 1001 q 444 1175 391 1134 q 572 1215 496 1215 q 690 1176 643 1215 q 738 1066 738 1137 q 689 947 738 1012 q 640 833 640 882 q 669 762 640 787 q 745 734 697 738 q 849 735 792 730 q 963 757 906 741 q 1066 788 1020 773 q 1142 814 1112 803 l 1172 825 q 1126 637 1172 825 q 1185 347 1074 347 q 1278 389 1210 347 q 1408 431 1345 431 z "},"":{"ha":955,"x_min":0,"x_max":955,"o":"m 662 336 q 624 298 662 336 q 477 260 586 260 q 293 336 369 260 q 217 521 217 412 l 217 955 q 293 1139 217 1063 q 477 1215 369 1215 q 662 1139 586 1215 q 738 955 738 1063 l 738 521 q 662 336 738 412 m 911 694 q 943 682 930 694 q 955 651 955 670 l 955 521 q 837 208 955 342 q 543 49 719 73 l 543 -43 l 694 -43 q 726 -56 713 -43 q 738 -87 738 -68 l 738 -130 q 726 -161 738 -149 q 694 -174 713 -174 l 260 -174 q 229 -161 241 -174 q 217 -130 217 -149 l 217 -87 q 229 -56 217 -68 q 260 -43 241 -43 l 412 -43 l 412 49 q 118 216 236 73 q 0 543 0 358 l 0 651 q 12 682 0 670 q 43 694 24 694 l 87 694 q 118 682 106 694 q 130 651 130 670 l 130 537 q 220 293 130 399 q 442 176 309 187 q 711 264 597 160 q 825 521 825 369 l 825 651 q 837 682 825 670 q 868 694 849 694 l 911 694 z "},"":{"ha":1736,"x_min":-19,"x_max":1755,"o":"m 1720 -27 q 1728 -90 1752 -54 l 1674 -157 q 1614 -165 1647 -190 l 16 1069 q 8 1131 -16 1096 l 62 1199 q 122 1207 90 1232 l 608 833 l 608 955 q 684 1139 608 1063 q 868 1215 760 1215 q 998 1180 939 1215 q 1093 1085 1058 1145 q 1128 955 1128 1025 l 1128 521 q 1115 439 1128 483 l 1185 385 q 1215 521 1215 450 l 1215 651 q 1227 682 1215 670 q 1259 694 1240 694 l 1302 694 q 1333 682 1321 694 q 1345 651 1345 670 l 1345 521 q 1291 304 1345 407 l 1720 -27 m 1085 -43 q 1116 -56 1104 -43 q 1128 -87 1128 -68 l 1128 -130 q 1116 -161 1128 -149 q 1085 -174 1104 -174 l 651 -174 q 620 -161 632 -174 q 608 -130 608 -149 l 608 -87 q 620 -56 608 -68 q 651 -43 632 -43 l 803 -43 l 803 49 q 509 216 627 73 q 391 543 391 358 l 391 562 l 532 450 q 590 320 548 380 q 696 221 632 260 q 833 176 760 182 q 890 176 852 174 l 1025 71 q 933 49 977 54 l 933 -43 l 1085 -43 z "},"":{"ha":1215,"x_min":0,"x_max":1215,"o":"m 33 694 l 1183 694 q 1215 662 1215 694 l 1215 -43 q 1177 -136 1215 -98 q 1085 -174 1139 -174 l 130 -174 q 38 -136 76 -174 q 0 -43 0 -98 l 0 662 q 33 694 0 694 m 1215 814 q 1183 781 1215 781 l 33 781 q 0 814 0 781 l 0 911 q 38 1004 0 966 q 130 1042 76 1042 l 260 1042 l 260 1183 q 293 1215 260 1215 l 401 1215 q 434 1183 434 1215 l 434 1042 l 781 1042 l 781 1183 q 814 1215 781 1215 l 922 1215 q 955 1183 955 1215 l 955 1042 l 1085 1042 q 1177 1004 1139 1042 q 1215 911 1215 966 l 1215 814 z "},"":{"ha":1215,"x_min":-5,"x_max":1215,"o":"m 1177 1145 q 1204 1137 1194 1147 q 1215 1112 1215 1126 l 1215 798 q 1204 773 1215 784 q 1177 765 1194 762 l 722 841 q 694 890 694 846 l 586 890 l 586 817 q 663 781 627 806 q 726 724 700 757 q 766 650 751 692 q 781 564 781 608 l 781 -109 q 762 -155 781 -136 q 716 -174 743 -174 l 326 -174 q 279 -155 298 -174 q 260 -109 260 -136 l 260 562 q 316 723 260 651 q 456 817 372 795 l 456 890 q 404 890 445 890 q 355 890 363 890 q 315 887 347 890 q 274 880 282 884 q 241 868 266 876 q 208 846 217 860 q 180 815 198 833 q 151 772 163 798 q 125 713 138 746 q 91 678 117 689 q 41 677 65 667 q 5 712 16 686 q 5 762 -5 738 q 250 1009 87 968 q 264 1149 220 1082 q 391 1215 309 1215 q 513 1154 467 1215 q 537 1020 559 1093 l 694 1020 q 722 1069 694 1063 l 1177 1145 m 359 1032 q 366 1026 359 1032 q 391 1020 372 1020 q 422 1032 410 1020 q 434 1063 434 1044 q 422 1095 434 1082 q 391 1107 410 1107 q 359 1095 372 1107 q 347 1063 347 1082 q 359 1032 347 1044 z "},"":{"ha":1389,"x_min":0,"x_max":1392,"o":"m 1370 1164 q 1389 939 1389 1074 q 1297 608 1389 743 q 1042 366 1204 472 l 1042 84 q 1020 15 1042 49 q 968 -33 998 -19 l 703 -165 q 673 -174 689 -174 q 627 -155 646 -174 q 608 -109 608 -136 l 608 174 l 548 111 q 486 87 521 87 q 423 111 450 87 l 285 250 q 260 312 260 277 q 285 374 260 347 l 347 434 l 65 434 q 19 453 38 434 q 0 499 0 472 q 8 529 0 515 l 141 798 q 190 846 155 825 q 258 868 225 868 l 540 868 q 780 1124 643 1034 q 1112 1215 917 1215 q 1337 1196 1251 1215 q 1370 1164 1364 1191 m 964 791 q 980 775 964 791 q 1042 760 996 760 q 1119 791 1088 760 q 1150 868 1150 822 q 1119 945 1150 914 q 1042 977 1088 977 q 964 945 996 977 q 933 868 933 914 q 964 791 933 822 z "},"":{"ha":1389,"x_min":22,"x_max":1367,"o":"m 1171 45 q 1072 -54 1171 45 q 694 -152 974 -152 q 218 45 415 -152 q 22 521 22 241 q 218 997 22 800 q 694 1194 415 1194 q 1171 997 974 1194 q 1367 521 1367 800 q 1171 45 1367 241 m 385 475 l 754 109 q 800 87 773 87 q 846 109 827 87 l 890 152 q 911 199 911 174 q 890 244 911 225 l 616 521 l 890 798 q 911 844 911 817 q 890 890 911 871 l 846 933 q 799 955 825 955 q 754 933 773 955 l 385 567 q 366 521 366 548 q 385 475 366 494 z "},"":{"ha":1389,"x_min":22,"x_max":1367,"o":"m 218 997 q 317 1095 218 997 q 694 1194 415 1194 q 1171 997 974 1194 q 1367 521 1367 800 q 1171 45 1367 241 q 694 -152 974 -152 q 218 45 415 -152 q 22 521 22 241 q 218 997 22 800 m 1004 567 l 635 933 q 589 955 616 955 q 543 933 562 955 l 499 890 q 477 842 477 868 q 499 798 477 817 l 773 521 l 499 244 q 477 198 477 225 q 499 152 477 171 l 543 109 q 590 87 564 87 q 635 109 616 87 l 1004 475 q 1023 521 1023 494 q 1004 567 1023 548 z "},"":{"ha":1389,"x_min":22,"x_max":1367,"o":"m 218 45 q 120 143 218 45 q 22 521 22 241 q 218 997 22 800 q 694 1194 415 1194 q 1171 997 974 1194 q 1367 521 1367 800 q 1171 45 1367 241 q 694 -152 974 -152 q 218 45 415 -152 m 648 830 l 282 461 q 260 415 260 442 q 282 369 260 388 l 326 326 q 373 304 347 304 q 418 326 399 304 l 694 600 l 971 326 q 1017 304 990 304 q 1063 326 1044 304 l 1107 369 q 1128 416 1128 391 q 1107 461 1128 442 l 741 830 q 694 849 722 849 q 648 830 667 849 z "},"":{"ha":1389,"x_min":22,"x_max":1367,"o":"m 1171 997 q 1269 899 1171 997 q 1367 521 1367 800 q 1171 45 1367 241 q 694 -152 974 -152 q 218 45 415 -152 q 22 521 22 241 q 218 997 22 800 q 694 1194 415 1194 q 1171 997 974 1194 m 741 212 l 1107 581 q 1128 627 1128 600 q 1107 673 1128 654 l 1063 716 q 1016 738 1042 738 q 971 716 990 738 l 694 442 l 418 716 q 372 738 399 738 q 326 716 345 738 l 282 673 q 260 625 260 651 q 282 581 260 600 l 648 212 q 694 193 667 193 q 741 212 722 193 z "},"":{"ha":1563,"x_min":-5,"x_max":1568,"o":"m 35 260 q 5 281 14 260 q 11 315 -3 301 l 195 499 q 239 499 217 521 l 423 315 q 429 281 437 301 q 399 260 420 260 l 304 260 q 453 88 342 155 q 694 5 564 22 l 694 521 l 553 521 q 521 553 521 521 l 521 662 q 553 694 521 694 l 694 694 l 694 708 q 570 803 618 735 q 521 955 521 871 q 598 1141 521 1063 q 784 1215 675 1218 q 967 1137 892 1213 q 1042 955 1042 1061 q 993 803 1042 871 q 868 708 944 735 l 868 694 l 1009 694 q 1032 685 1023 694 q 1042 662 1042 675 l 1042 553 q 1032 530 1042 540 q 1009 521 1023 521 l 868 521 l 868 5 q 1109 88 998 22 q 1259 260 1221 155 l 1164 260 q 1134 281 1142 260 q 1139 315 1126 301 l 1324 499 q 1367 499 1345 521 l 1552 315 q 1557 281 1565 301 q 1527 260 1549 260 l 1440 260 q 1204 -56 1397 62 q 781 -174 1012 -174 q 358 -56 551 -174 q 122 260 165 62 l 35 260 m 842 1016 q 829 1029 842 1016 q 781 1042 817 1042 q 720 1016 746 1042 q 694 955 694 990 q 720 894 694 920 q 781 868 746 868 q 842 894 817 868 q 868 955 868 920 q 842 1016 868 990 z "},"":{"ha":1215,"x_min":0,"x_max":1215,"o":"m 1085 521 q 1177 483 1139 521 q 1215 391 1215 445 l 1215 -43 q 1177 -136 1215 -98 q 1085 -174 1139 -174 l 130 -174 q 38 -136 76 -174 q 0 -43 0 -98 l 0 391 q 38 483 0 445 q 130 521 76 521 l 195 521 l 195 798 q 316 1093 195 971 q 606 1215 437 1215 q 898 1095 776 1215 q 1020 803 1020 974 l 1020 760 q 1001 713 1020 732 q 955 694 982 694 l 868 694 q 822 713 841 694 q 803 760 803 732 l 803 803 q 745 941 803 884 q 605 998 686 998 q 469 940 526 998 q 412 800 412 882 l 412 521 l 1085 521 m 716 109 l 716 239 q 685 316 716 285 q 608 347 654 347 q 530 316 562 347 q 499 239 499 285 l 499 109 q 530 31 499 62 q 608 0 562 0 q 685 31 654 0 q 716 109 716 62 z "},"":{"ha":1345,"x_min":0,"x_max":1345,"o":"m 197 997 q 295 1095 197 997 q 673 1194 393 1194 q 1149 997 952 1194 q 1345 521 1345 800 q 1149 45 1345 241 q 673 -152 952 -152 q 197 45 393 -152 q 0 521 0 241 q 197 997 0 800 m 320 168 q 393 95 320 168 q 673 22 467 22 q 1025 168 879 22 q 1172 521 1172 315 q 1025 873 1172 727 q 673 1020 879 1020 q 320 873 467 1020 q 174 521 174 727 q 320 168 174 315 m 427 766 q 478 817 427 766 q 673 868 529 868 q 918 766 817 868 q 1020 521 1020 665 q 918 275 1020 377 q 673 174 817 174 q 427 275 529 174 q 326 521 326 377 q 427 766 326 665 m 551 399 q 576 373 551 399 q 673 347 602 347 q 795 399 743 347 q 846 521 846 450 q 795 643 846 591 q 673 694 743 694 q 551 643 602 694 q 499 521 499 591 q 551 399 499 450 z "},"":{"ha":1389,"x_min":22,"x_max":1367,"o":"m 833 659 q 861 631 833 659 q 890 521 890 602 q 833 382 890 439 q 694 326 776 326 q 556 382 613 326 q 499 521 499 439 q 556 659 499 602 q 694 716 613 716 q 833 659 776 716 m 1034 659 q 1062 688 1034 659 q 1172 716 1090 716 q 1310 659 1253 716 q 1367 521 1367 602 q 1310 382 1367 439 q 1172 326 1253 326 q 1034 382 1090 326 q 977 521 977 439 q 1034 659 977 602 m 79 659 q 107 688 79 659 q 217 716 136 716 q 355 659 298 716 q 412 521 412 602 q 355 382 412 439 q 217 326 298 326 q 79 382 136 326 q 22 521 22 439 q 79 659 22 602 z "},"":{"ha":521,"x_min":65,"x_max":456,"o":"m 122 659 q 151 688 122 659 q 260 716 179 716 q 399 659 342 716 q 456 521 456 602 q 399 382 456 439 q 260 326 342 326 q 122 382 179 326 q 65 521 65 439 q 122 659 65 602 m 122 860 q 94 888 122 860 q 65 998 65 917 q 122 1137 65 1080 q 260 1194 179 1194 q 399 1137 342 1194 q 456 998 456 1080 q 399 860 456 917 q 260 803 342 803 q 122 860 179 803 m 122 -95 q 94 -66 122 -95 q 65 43 65 -38 q 122 182 65 125 q 260 239 179 239 q 399 182 342 239 q 456 43 456 125 q 399 -95 456 -38 q 260 -152 342 -152 q 122 -95 179 -152 z "},"":{"ha":1215,"x_min":0,"x_max":1215,"o":"m 1085 1128 q 1177 1090 1139 1128 q 1215 998 1215 1053 l 1215 43 q 1177 -49 1215 -11 q 1085 -87 1139 -87 l 130 -87 q 38 -49 76 -87 q 0 43 0 -11 l 0 998 q 38 1090 0 1053 q 130 1128 76 1128 l 1085 1128 m 212 125 q 231 106 212 125 q 304 87 250 87 q 396 125 358 87 q 434 217 434 163 q 396 309 434 271 q 304 347 358 347 q 212 309 250 347 q 174 217 174 271 q 212 125 174 163 m 732 87 q 753 96 743 87 q 762 119 762 106 q 590 503 749 345 q 206 675 431 662 q 183 666 193 675 q 174 646 174 656 l 174 551 q 203 521 174 521 q 481 395 366 510 q 608 117 597 279 q 637 87 608 87 l 732 87 m 1012 87 q 1032 96 1023 87 q 1042 119 1042 106 q 788 700 1028 458 q 206 955 548 941 q 183 945 193 955 q 174 925 174 936 l 174 830 q 203 800 174 800 q 678 591 480 789 q 887 117 876 393 q 917 87 887 87 l 1012 87 z "},"":{"ha":1389,"x_min":22,"x_max":1367,"o":"m 218 997 q 317 1095 218 997 q 694 1194 415 1194 q 1171 997 974 1194 q 1367 521 1367 800 q 1171 45 1367 241 q 694 -152 974 -152 q 218 45 415 -152 q 22 521 22 241 q 218 997 22 800 m 1009 456 q 1034 480 1025 464 q 1042 513 1042 496 q 1034 545 1042 529 q 1009 570 1025 562 l 532 860 q 467 860 499 879 q 434 803 434 841 l 434 239 q 467 182 434 201 q 532 182 499 163 l 1009 456 z "},"":{"ha":1215,"x_min":0,"x_max":1215,"o":"m 1085 1128 q 1177 1090 1139 1128 q 1215 998 1215 1053 l 1215 43 q 1177 -49 1215 -11 q 1085 -87 1139 -87 l 130 -87 q 38 -49 76 -87 q 0 43 0 -11 l 0 998 q 38 1090 0 1053 q 130 1128 76 1128 l 1085 1128 m 250 412 l 966 412 q 998 445 998 412 l 998 597 q 966 629 998 629 l 250 629 q 217 597 217 629 l 217 445 q 250 412 217 412 z "},"":{"ha":1215,"x_min":0,"x_max":1215,"o":"m 1085 -87 l 130 -87 q 38 -49 76 -87 q 0 43 0 -11 l 0 998 q 38 1090 0 1053 q 130 1128 76 1128 l 1085 1128 q 1177 1090 1139 1128 q 1215 998 1215 1053 l 1215 43 q 1177 -49 1215 -11 q 1085 -87 1139 -87 m 529 179 l 1028 678 q 1028 741 1061 708 l 968 800 q 906 800 936 833 l 499 393 l 309 583 q 247 583 279 616 l 187 524 q 187 461 155 491 l 469 179 q 529 179 499 149 z "},"":{"ha":1215,"x_min":0,"x_max":1215,"o":"m 1085 -87 l 130 -87 q 38 -49 76 -87 q 0 43 0 -11 l 0 998 q 38 1090 0 1053 q 130 1128 76 1128 l 1085 1128 q 1177 1090 1139 1128 q 1215 998 1215 1053 l 1215 43 q 1177 -49 1215 -11 q 1085 -87 1139 -87 m 646 732 l 277 363 l 260 209 q 264 191 260 201 q 278 178 269 182 q 296 174 288 174 l 450 190 l 819 559 q 819 581 830 570 l 670 732 q 646 732 656 743 m 936 768 l 854 849 q 808 868 836 868 q 762 849 781 868 l 700 787 q 700 762 689 776 l 849 613 q 873 613 863 602 l 936 675 q 955 722 955 694 q 936 768 955 749 z "},"":{"ha":1563,"x_min":0,"x_max":1565,"o":"m 1541 735 l 1150 366 q 1081 353 1120 336 q 1042 412 1042 369 l 1042 608 q 834 594 920 608 q 684 549 749 581 q 590 465 618 518 q 562 332 562 412 q 594 144 562 252 q 578 94 605 111 q 526 95 551 76 q 384 267 442 160 q 326 486 326 374 q 363 684 326 600 q 463 819 401 768 q 618 901 524 871 q 814 943 713 930 q 1042 955 914 955 l 1042 1150 q 1081 1210 1042 1194 q 1150 1196 1120 1226 l 1541 827 q 1563 781 1563 808 q 1541 735 1563 754 m 1042 187 q 1053 212 1042 201 q 1080 220 1063 222 q 1107 217 1093 217 q 1172 228 1139 217 q 1202 224 1188 233 q 1215 198 1215 214 l 1215 -43 q 1177 -136 1215 -98 q 1085 -174 1139 -174 l 130 -174 q 38 -136 76 -174 q 0 -43 0 -98 l 0 911 q 38 1004 0 966 q 130 1042 76 1042 l 458 1042 q 490 1017 483 1042 q 475 979 496 993 q 336 879 393 939 q 312 868 326 868 l 174 868 l 174 0 l 1042 0 l 1042 187 z "},"":{"ha":1345,"x_min":0,"x_max":1345,"o":"m 586 521 q 586 538 586 521 q 612 582 586 556 q 673 608 637 608 q 734 582 708 608 q 760 521 760 556 q 734 460 760 486 q 673 434 708 434 q 612 460 637 434 q 586 521 586 486 m 197 997 q 295 1095 197 997 q 673 1194 393 1194 q 1149 997 952 1194 q 1345 521 1345 800 q 1149 45 1345 241 q 673 -152 952 -152 q 197 45 393 -152 q 0 521 0 241 q 197 997 0 800 m 1015 792 q 1016 836 1025 814 q 987 864 1006 857 q 944 863 968 871 l 553 684 q 510 640 524 670 l 331 250 q 342 190 315 217 q 401 179 369 163 l 792 358 q 836 401 822 372 l 1015 792 z "},"":{"ha":1215,"x_min":0,"x_max":1215,"o":"m 1215 998 l 1215 43 q 1177 -49 1215 -11 q 1085 -87 1139 -87 l 130 -87 q 38 -49 76 -87 q 0 43 0 -11 l 0 998 q 38 1090 0 1053 q 130 1128 76 1128 l 1085 1128 q 1177 1090 1139 1128 q 1215 998 1215 1053 m 250 618 l 586 282 q 629 282 608 260 l 966 618 q 971 652 979 632 q 941 673 963 673 l 274 673 q 244 652 252 673 q 250 618 236 632 z "},"":{"ha":1215,"x_min":0,"x_max":1215,"o":"m 0 43 l 0 998 q 38 1090 0 1053 q 130 1128 76 1128 l 1085 1128 q 1177 1090 1139 1128 q 1215 998 1215 1053 l 1215 43 q 1177 -49 1215 -11 q 1085 -87 1139 -87 l 130 -87 q 38 -49 76 -87 q 0 43 0 -11 m 966 423 l 629 760 q 586 760 608 781 l 250 423 q 244 389 236 410 q 274 369 252 369 l 941 369 q 971 389 963 369 q 966 423 979 410 z "},"":{"ha":1215,"x_min":0,"x_max":1215,"o":"m 130 1128 l 1085 1128 q 1177 1090 1139 1128 q 1215 998 1215 1053 l 1215 43 q 1177 -49 1215 -11 q 1085 -87 1139 -87 l 130 -87 q 38 -49 76 -87 q 0 43 0 -11 l 0 998 q 38 1090 0 1053 q 130 1128 76 1128 m 510 163 l 846 499 q 846 543 868 521 l 510 879 q 476 884 496 892 q 456 854 456 876 l 456 187 q 476 157 456 165 q 510 163 496 149 z "},"":{"ha":868,"x_min":0,"x_max":873,"o":"m 844 92 l 868 -27 q 844 -65 873 -57 q 678 -87 762 -87 q 317 30 469 -87 q 114 336 165 146 l 33 336 q 9 346 19 336 q 0 369 0 355 l 0 445 q 33 477 0 477 l 90 477 q 92 591 87 532 l 33 591 q 9 601 19 591 q 0 624 0 610 l 0 705 q 33 738 0 738 l 122 738 q 332 1020 182 911 q 678 1128 483 1128 q 819 1115 746 1128 q 837 1107 830 1112 q 846 1092 844 1101 q 846 1074 849 1082 l 814 955 q 776 930 806 925 q 673 941 719 941 q 480 887 564 941 q 353 738 396 833 l 727 738 q 753 726 743 738 q 760 697 762 713 l 743 618 q 711 591 738 591 l 312 591 q 312 477 307 540 l 675 477 q 701 465 692 477 q 708 437 711 453 l 692 361 q 659 336 686 336 l 350 336 q 404 241 372 285 q 479 168 437 198 q 572 121 521 138 q 681 103 624 103 q 803 119 741 103 q 844 92 836 125 z "},"":{"ha":868,"x_min":0,"x_max":868,"o":"m 836 260 q 868 228 868 260 l 868 -54 q 836 -87 868 -87 l 33 -87 q 0 -54 0 -87 l 0 54 q 33 87 0 87 l 130 87 l 130 434 l 54 434 q 22 467 22 434 l 22 575 q 54 608 22 608 l 130 608 l 130 787 q 237 1032 130 936 q 510 1128 345 1128 q 787 1034 659 1128 q 792 987 811 1015 l 713 890 q 670 884 694 868 q 515 936 589 936 q 468 930 491 936 q 426 914 445 925 q 392 890 407 903 q 368 859 377 876 q 353 822 358 841 q 347 781 347 803 l 347 608 l 575 608 q 608 575 608 608 l 608 467 q 575 434 608 434 l 347 434 l 347 90 l 681 90 l 681 228 q 690 251 681 241 q 713 260 700 260 l 836 260 z "},"":{"ha":781,"x_min":-11,"x_max":808,"o":"m 567 583 q 747 434 686 548 q 765 198 808 320 q 654 56 732 109 q 477 0 575 3 l 477 -130 q 465 -161 477 -149 q 434 -174 453 -174 l 347 -174 q 316 -161 328 -174 q 304 -130 304 -149 l 304 0 q 71 81 174 0 q 52 114 54 95 q 65 146 49 133 l 157 239 q 212 244 184 263 q 304 217 252 217 l 483 217 q 541 240 518 217 q 564 298 564 263 q 507 374 564 358 l 228 456 q 73 553 136 483 q 0 716 11 624 q 77 945 -11 849 q 298 1042 165 1042 l 304 1042 l 304 1172 q 316 1203 304 1191 q 347 1215 328 1215 l 434 1215 q 465 1203 453 1215 q 477 1172 477 1191 l 477 1042 q 711 960 608 1042 q 730 928 727 947 q 716 895 732 909 l 624 803 q 570 798 597 779 q 477 825 529 825 l 298 825 q 240 802 263 825 q 217 743 217 779 q 233 697 217 719 q 274 667 250 675 l 567 583 z "},"":{"ha":868,"x_min":0,"x_max":868,"o":"m 836 955 l 637 955 q 675 868 662 914 l 836 868 q 868 836 868 868 l 868 727 q 836 694 868 694 l 692 694 q 575 448 678 543 q 317 347 472 353 l 727 -30 q 735 -66 743 -46 q 705 -87 727 -87 l 480 -87 q 458 -79 467 -87 l 11 336 q 0 358 0 345 l 0 502 q 9 525 0 515 q 33 534 19 534 l 260 534 q 397 578 345 534 q 464 694 450 621 l 33 694 q 0 727 0 694 l 0 836 q 33 868 0 868 l 429 868 q 263 941 374 941 l 33 941 q 9 951 19 941 q 0 974 0 960 l 0 1096 q 33 1128 0 1128 l 836 1128 q 868 1096 868 1128 l 868 987 q 836 955 868 955 z "},"":{"ha":1042,"x_min":52,"x_max":993,"o":"m 952 1128 q 981 1112 971 1128 q 982 1080 990 1096 l 765 673 l 922 673 q 955 640 955 673 l 955 553 q 922 521 955 521 l 684 521 l 629 420 l 629 347 l 922 347 q 955 315 955 347 l 955 228 q 922 195 955 195 l 629 195 l 629 -54 q 597 -87 629 -87 l 445 -87 q 412 -54 412 -87 l 412 195 l 119 195 q 87 228 87 195 l 87 315 q 119 347 87 347 l 412 347 l 412 420 l 358 521 l 119 521 q 87 553 87 521 l 87 640 q 119 673 87 673 l 277 673 l 60 1080 q 61 1112 52 1096 q 90 1128 71 1128 l 266 1128 q 296 1109 288 1128 l 445 803 l 518 608 l 524 608 q 597 803 556 708 l 746 1109 q 776 1128 754 1128 l 952 1128 z "},"":{"ha":1042,"x_min":0,"x_max":1042,"o":"m 648 347 l 399 347 l 399 260 l 836 260 q 868 228 868 260 l 868 119 q 836 87 868 87 l 399 87 l 399 -54 q 389 -77 399 -68 q 366 -87 380 -87 l 206 -87 q 174 -54 174 -87 l 174 87 l 33 87 q 0 119 0 87 l 0 228 q 33 260 0 260 l 174 260 l 174 347 l 33 347 q 0 380 0 347 l 0 502 q 9 525 0 515 q 33 534 19 534 l 174 534 l 174 1096 q 206 1128 174 1128 l 648 1128 q 932 1021 822 1128 q 1042 741 1042 914 q 932 457 1042 567 q 648 347 822 347 m 399 941 l 399 534 l 608 534 q 760 590 705 534 q 814 741 814 646 q 760 887 814 833 q 610 941 705 941 l 399 941 z "},"":{"ha":1563,"x_min":0,"x_max":1563,"o":"m 1530 694 l 1359 694 l 1340 608 l 1530 608 q 1563 575 1563 608 l 1563 467 q 1530 434 1563 434 l 1299 434 l 1185 -62 q 1153 -87 1180 -87 l 998 -87 q 968 -62 974 -87 l 852 434 l 703 434 l 589 -62 q 556 -87 583 -87 l 401 -87 q 372 -62 377 -87 l 260 434 l 33 434 q 0 467 0 434 l 0 575 q 33 608 0 608 l 222 608 l 201 694 l 33 694 q 0 727 0 694 l 0 836 q 33 868 0 868 l 163 868 l 114 1088 q 121 1114 111 1101 q 146 1126 130 1126 l 260 1126 q 293 1101 288 1126 l 339 868 l 635 868 l 689 1101 q 719 1126 694 1126 l 838 1126 q 871 1101 865 1126 l 925 868 l 1223 868 l 1261 1101 q 1294 1126 1267 1126 l 1419 1126 q 1444 1114 1435 1126 q 1451 1088 1454 1101 l 1400 868 l 1530 868 q 1563 836 1563 868 l 1563 727 q 1530 694 1563 694 m 499 288 l 532 434 l 429 434 l 458 288 l 475 160 l 477 160 q 481 176 480 160 q 487 225 483 193 q 499 288 491 258 m 572 608 l 594 694 l 374 694 l 391 608 l 572 608 m 743 608 l 814 608 l 808 632 q 795 694 800 662 l 762 694 q 749 632 757 662 l 743 608 m 1099 288 l 1131 434 l 1025 434 l 1058 288 q 1070 225 1066 258 q 1076 176 1074 193 q 1077 160 1077 160 l 1080 160 q 1099 288 1085 220 m 1166 608 l 1185 694 l 966 694 l 985 608 l 1166 608 z "},"":{"ha":1042,"x_min":0,"x_max":1042,"o":"m 608 846 q 627 800 608 819 q 673 781 646 781 l 1042 781 l 1042 -109 q 1023 -155 1042 -136 q 977 -174 1004 -174 l 65 -174 q 19 -155 38 -174 q 0 -109 0 -136 l 0 1150 q 19 1196 0 1177 q 65 1215 38 1215 l 608 1215 l 608 846 m 1042 884 l 1042 868 l 694 868 l 694 1215 l 711 1215 q 757 1196 738 1215 l 1023 930 q 1042 884 1042 911 z "},"":{"ha":1042,"x_min":0,"x_max":1042,"o":"m 608 846 q 627 800 608 819 q 673 781 646 781 l 1042 781 l 1042 -109 q 1023 -155 1042 -136 q 977 -174 1004 -174 l 65 -174 q 19 -155 38 -174 q 0 -109 0 -136 l 0 1150 q 19 1196 0 1177 q 65 1215 38 1215 l 608 1215 l 608 846 m 781 206 l 781 228 q 749 260 781 260 l 293 260 q 260 228 260 260 l 260 206 q 293 174 260 174 l 749 174 q 781 206 781 174 m 781 380 l 781 401 q 749 434 781 434 l 293 434 q 260 401 260 434 l 260 380 q 293 347 260 347 l 749 347 q 781 380 781 347 m 781 575 q 749 608 781 608 l 293 608 q 260 575 260 608 l 260 553 q 293 521 260 521 l 749 521 q 781 553 781 521 l 781 575 m 1042 884 l 1042 868 l 694 868 l 694 1215 l 711 1215 q 757 1196 738 1215 l 1023 930 q 1042 884 1042 911 z "},"":{"ha":1215,"x_min":-8,"x_max":1215,"o":"m 477 260 q 518 233 507 260 q 507 187 529 206 l 290 -73 q 260 -87 279 -87 q 231 -73 241 -87 l 14 187 q 3 233 -8 206 q 43 260 14 260 l 174 260 l 174 1085 q 186 1116 174 1104 q 217 1128 198 1128 l 304 1128 q 335 1116 323 1128 q 347 1085 347 1104 l 347 260 l 477 260 m 1128 434 q 1160 422 1147 434 q 1172 391 1172 410 l 1172 342 q 1142 277 1172 304 l 977 87 l 1128 87 q 1160 75 1147 87 q 1172 43 1172 62 l 1172 -43 q 1160 -75 1172 -62 q 1128 -87 1147 -87 l 781 -87 q 750 -75 762 -87 q 738 -43 738 -62 l 738 5 q 768 71 738 43 l 933 260 l 781 260 q 750 273 762 260 q 738 304 738 285 l 738 391 q 750 422 738 410 q 781 434 762 434 l 1128 434 m 1213 665 q 1215 651 1215 659 q 1203 620 1215 632 q 1172 608 1191 608 l 1104 608 q 1063 637 1072 608 l 1050 673 l 857 673 l 846 637 q 806 608 836 608 l 738 608 q 707 620 719 608 q 694 651 694 632 q 697 665 694 659 l 857 1099 q 898 1128 868 1128 l 1012 1128 q 1053 1099 1042 1128 l 1213 665 m 911 825 l 998 825 l 955 955 l 911 825 z "},"":{"ha":1215,"x_min":-8,"x_max":1215,"o":"m 43 781 q 3 808 14 781 q 14 854 -8 836 l 231 1115 q 260 1128 241 1128 q 290 1115 279 1128 l 507 854 q 518 808 529 836 q 477 781 507 781 l 347 781 l 347 -43 q 335 -75 347 -62 q 304 -87 323 -87 l 217 -87 q 186 -75 198 -87 q 174 -43 174 -62 l 174 781 l 43 781 m 1128 434 q 1160 422 1147 434 q 1172 391 1172 410 l 1172 342 q 1142 277 1172 304 l 977 87 l 1128 87 q 1160 75 1147 87 q 1172 43 1172 62 l 1172 -43 q 1160 -75 1172 -62 q 1128 -87 1147 -87 l 781 -87 q 750 -75 762 -87 q 738 -43 738 -62 l 738 5 q 768 71 738 43 l 933 260 l 781 260 q 750 273 762 260 q 738 304 738 285 l 738 391 q 750 422 738 410 q 781 434 762 434 l 1128 434 m 1213 665 q 1215 651 1215 659 q 1203 620 1215 632 q 1172 608 1191 608 l 1104 608 q 1063 637 1072 608 l 1050 673 l 857 673 l 846 637 q 806 608 836 608 l 738 608 q 707 620 719 608 q 694 651 694 632 q 697 665 694 659 l 857 1099 q 898 1128 868 1128 l 1012 1128 q 1053 1099 1042 1128 l 1213 665 m 911 825 l 998 825 l 955 955 l 911 825 z "},"":{"ha":1389,"x_min":-8,"x_max":1389,"o":"m 825 87 q 856 75 844 87 q 868 43 868 62 l 868 -43 q 856 -75 868 -62 q 825 -87 844 -87 l 651 -87 q 620 -75 632 -87 q 608 -43 608 -62 l 608 43 q 620 75 608 62 q 651 87 632 87 l 825 87 m 477 260 q 518 233 507 260 q 507 187 529 206 l 290 -73 q 260 -87 279 -87 q 231 -73 241 -87 l 14 187 q 3 233 -8 206 q 43 260 14 260 l 174 260 l 174 1085 q 186 1116 174 1104 q 217 1128 198 1128 l 304 1128 q 335 1116 323 1128 q 347 1085 347 1104 l 347 260 l 477 260 m 1172 781 q 1203 769 1191 781 q 1215 738 1215 757 l 1215 651 q 1203 620 1215 632 q 1172 608 1191 608 l 651 608 q 620 620 632 608 q 608 651 608 632 l 608 738 q 620 769 608 757 q 651 781 632 781 l 1172 781 m 998 434 q 1029 422 1017 434 q 1042 391 1042 410 l 1042 304 q 1029 273 1042 285 q 998 260 1017 260 l 651 260 q 620 273 632 260 q 608 304 608 285 l 608 391 q 620 422 608 410 q 651 434 632 434 l 998 434 m 1345 1128 q 1377 1116 1364 1128 q 1389 1085 1389 1104 l 1389 998 q 1377 967 1389 979 q 1345 955 1364 955 l 651 955 q 620 967 632 955 q 608 998 608 979 l 608 1085 q 620 1116 608 1104 q 651 1128 632 1128 l 1345 1128 z "},"":{"ha":1389,"x_min":-8,"x_max":1389,"o":"m 825 87 q 856 75 844 87 q 868 43 868 62 l 868 -43 q 856 -75 868 -62 q 825 -87 844 -87 l 651 -87 q 620 -75 632 -87 q 608 -43 608 -62 l 608 43 q 620 75 608 62 q 651 87 632 87 l 825 87 m 43 781 q 3 808 14 781 q 14 854 -8 836 l 231 1115 q 260 1128 241 1128 q 290 1115 279 1128 l 507 854 q 518 808 529 836 q 477 781 507 781 l 347 781 l 347 -43 q 335 -75 347 -62 q 304 -87 323 -87 l 217 -87 q 186 -75 198 -87 q 174 -43 174 -62 l 174 781 l 43 781 m 1172 781 q 1203 769 1191 781 q 1215 738 1215 757 l 1215 651 q 1203 620 1215 632 q 1172 608 1191 608 l 651 608 q 620 620 632 608 q 608 651 608 632 l 608 738 q 620 769 608 757 q 651 781 632 781 l 1172 781 m 998 434 q 1029 422 1017 434 q 1042 391 1042 410 l 1042 304 q 1029 273 1042 285 q 998 260 1017 260 l 651 260 q 620 273 632 260 q 608 304 608 285 l 608 391 q 620 422 608 410 q 651 434 632 434 l 998 434 m 1345 1128 q 1377 1116 1364 1128 q 1389 1085 1389 1104 l 1389 998 q 1377 967 1389 979 q 1345 955 1364 955 l 651 955 q 620 967 632 955 q 608 998 608 979 l 608 1085 q 620 1116 608 1104 q 651 1128 632 1128 l 1345 1128 z "},"":{"ha":1215,"x_min":-8,"x_max":1175,"o":"m 825 955 q 793 967 806 955 q 781 998 781 979 q 787 1017 781 1009 l 830 1104 q 868 1128 841 1128 l 998 1128 q 1029 1116 1017 1128 q 1042 1085 1042 1104 l 1042 781 l 1085 781 q 1116 769 1104 781 q 1128 738 1128 757 l 1128 651 q 1116 620 1128 632 q 1085 608 1104 608 l 825 608 q 793 620 806 608 q 781 651 781 632 l 781 738 q 793 769 781 757 q 825 781 806 781 l 868 781 l 868 955 l 825 955 m 895 513 q 1088 476 1004 543 q 1172 304 1172 410 l 1172 274 q 1146 111 1172 179 q 1070 -3 1120 43 q 939 -84 1020 -49 q 905 -81 922 -90 q 882 -57 887 -73 l 854 -3 q 876 52 841 38 q 933 87 909 65 q 777 180 836 98 q 746 366 719 263 q 803 457 760 415 q 895 513 846 499 m 917 266 q 925 258 917 266 q 955 250 933 250 q 993 266 977 250 q 1009 304 1009 282 q 993 342 1009 326 q 955 358 977 358 q 917 342 933 358 q 901 304 901 326 q 917 266 901 282 m 477 260 q 518 233 507 260 q 507 187 529 206 l 290 -73 q 260 -87 279 -87 q 231 -73 241 -87 l 14 187 q 3 233 -8 206 q 43 260 14 260 l 174 260 l 174 1085 q 186 1116 174 1104 q 217 1128 198 1128 l 304 1128 q 335 1116 323 1128 q 347 1085 347 1104 l 347 260 l 477 260 z "},"":{"ha":1215,"x_min":-8,"x_max":1175,"o":"m 895 513 q 1088 476 1004 543 q 1172 304 1172 410 l 1172 274 q 1146 111 1172 179 q 1070 -3 1120 43 q 939 -84 1020 -49 q 905 -81 922 -90 q 882 -57 887 -73 l 854 -3 q 876 52 841 38 q 933 87 909 65 q 777 180 836 98 q 746 366 719 263 q 804 457 760 415 q 895 513 849 499 m 917 266 q 925 258 917 266 q 955 250 933 250 q 993 266 977 250 q 1009 304 1009 282 q 993 342 1009 326 q 955 358 977 358 q 917 342 933 358 q 901 304 901 326 q 917 266 901 282 m 825 955 q 793 967 806 955 q 781 998 781 979 q 787 1017 781 1009 l 830 1104 q 868 1128 841 1128 l 998 1128 q 1029 1116 1017 1128 q 1042 1085 1042 1104 l 1042 781 l 1085 781 q 1116 769 1104 781 q 1128 738 1128 757 l 1128 651 q 1116 620 1128 632 q 1085 608 1104 608 l 825 608 q 793 620 806 608 q 781 651 781 632 l 781 738 q 793 769 781 757 q 825 781 806 781 l 868 781 l 868 955 l 825 955 m 290 1115 l 507 854 q 518 808 529 836 q 477 781 507 781 l 347 781 l 347 -43 q 335 -75 347 -62 q 304 -87 323 -87 l 217 -87 q 186 -75 198 -87 q 174 -43 174 -62 l 174 781 l 43 781 q 3 808 14 781 q 14 854 -8 836 l 231 1115 q 260 1128 241 1128 q 290 1115 279 1128 z "},"":{"ha":1389,"x_min":0,"x_max":1392,"o":"m 282 608 q 328 589 309 608 q 347 543 347 570 l 347 -109 q 328 -155 347 -136 q 282 -174 309 -174 l 65 -174 q 19 -155 38 -174 q 0 -109 0 -136 l 0 543 q 19 589 0 570 q 65 608 38 608 l 282 608 m 127 -46 q 137 -56 127 -46 q 174 -65 146 -65 q 220 -46 201 -65 q 239 0 239 -27 q 220 46 239 27 q 174 65 201 65 q 127 46 146 65 q 109 0 109 27 q 127 -46 109 -27 m 1042 996 q 998 842 1042 928 q 952 738 955 757 l 1226 738 q 1341 690 1294 738 q 1389 581 1389 643 q 1337 448 1389 499 l 1335 448 q 1351 339 1356 401 q 1310 231 1345 277 q 1313 121 1326 176 q 1267 27 1299 65 q 1251 -92 1283 -43 q 1166 -149 1223 -130 q 1065 -171 1109 -168 q 941 -174 1020 -174 l 933 -174 q 608 -87 803 -174 q 467 -43 513 -43 q 444 -34 453 -43 q 434 -11 434 -24 l 434 570 q 445 591 434 583 q 571 753 499 648 q 686 898 643 857 q 754 1058 724 939 q 846 1215 792 1215 q 905 1208 876 1215 q 967 1181 933 1202 q 1021 1112 1001 1161 q 1042 996 1042 1063 z "},"":{"ha":1389,"x_min":0,"x_max":1392,"o":"m 0 1063 q 19 1109 0 1090 q 65 1128 38 1128 l 282 1128 q 328 1109 309 1128 q 347 1063 347 1090 l 347 412 q 328 366 347 385 q 282 347 309 347 l 65 347 q 19 366 38 347 q 0 412 0 385 l 0 1063 m 127 567 q 118 557 127 567 q 109 521 109 548 q 127 475 109 494 q 174 456 146 456 q 220 475 201 456 q 239 521 239 494 q 220 567 239 548 q 174 586 201 586 q 127 567 146 586 m 846 -174 q 754 -16 792 -174 q 686 144 724 103 q 610 233 648 179 q 530 346 572 288 q 445 450 488 404 q 434 472 434 458 l 434 1053 q 444 1076 434 1066 q 467 1085 453 1085 q 608 1128 513 1085 q 933 1215 803 1215 l 941 1215 q 1032 1214 998 1215 q 1115 1206 1066 1213 q 1196 1181 1164 1199 q 1251 1134 1229 1164 q 1267 1015 1283 1085 q 1313 921 1299 977 q 1310 811 1326 865 q 1351 703 1345 765 q 1335 594 1356 640 l 1337 594 q 1389 461 1389 543 q 1341 351 1389 399 q 1226 304 1294 304 l 952 304 q 998 199 955 285 q 1042 46 1042 114 q 1021 -71 1042 -22 q 967 -140 1001 -119 q 905 -167 933 -160 q 846 -174 876 -174 z "},"":{"ha":694,"x_min":14,"x_max":681,"o":"m 224 1165 q 249 1190 224 1165 q 347 1215 274 1215 q 471 1165 420 1215 q 521 1042 521 1115 q 471 918 521 968 q 347 868 420 868 q 224 918 274 868 q 174 1042 174 968 q 224 1165 174 1115 m 670 255 q 659 198 678 222 q 608 174 640 174 l 456 174 l 456 -109 q 437 -155 456 -136 q 391 -174 418 -174 l 304 -174 q 258 -155 277 -174 q 239 -109 239 -136 l 239 174 l 87 174 q 35 198 54 174 q 24 255 16 222 l 155 776 q 178 810 160 795 q 217 825 195 825 l 247 825 q 448 825 347 779 l 477 825 q 517 810 499 825 q 540 776 534 795 l 670 255 z "},"":{"ha":521,"x_min":0,"x_max":521,"o":"m 137 1165 q 162 1190 137 1165 q 260 1215 187 1215 q 384 1165 334 1215 q 434 1042 434 1115 q 384 918 434 968 q 260 868 334 868 q 137 918 187 868 q 87 1042 87 968 q 137 1165 87 1115 m 391 825 q 483 787 445 825 q 521 694 521 749 l 521 326 q 502 279 521 298 q 456 260 483 260 l 412 260 l 412 -109 q 393 -155 412 -136 q 347 -174 374 -174 l 174 -174 q 127 -155 146 -174 q 109 -109 109 -136 l 109 260 l 65 260 q 19 279 38 260 q 0 326 0 298 l 0 694 q 38 787 0 749 q 130 825 76 825 l 160 825 q 361 825 260 779 l 391 825 z "},"":{"ha":1389,"x_min":-3,"x_max":1392,"o":"m 510 705 q 548 743 510 705 q 694 781 586 781 q 879 705 803 781 q 955 521 955 629 q 879 336 955 412 q 694 260 803 260 q 510 336 586 260 q 434 521 434 412 q 510 705 434 629 m 1362 564 q 1389 521 1389 551 q 1362 477 1389 491 l 1107 350 l 1196 79 q 1184 30 1204 52 q 1137 19 1164 8 l 865 109 l 735 -146 q 694 -174 724 -174 q 651 -146 665 -174 l 524 109 l 252 19 q 203 28 225 8 q 193 79 182 49 l 282 350 l 27 477 q 0 521 0 491 q 27 564 0 551 l 282 692 l 193 963 q 202 1012 182 990 q 252 1023 222 1034 l 524 933 l 651 1188 q 694 1215 665 1215 q 738 1188 724 1215 l 865 933 l 1137 1023 q 1185 1012 1164 1034 q 1196 963 1207 990 l 1107 692 l 1362 564 m 694 174 q 766 174 694 174 q 940 275 838 174 q 1042 521 1042 377 q 940 766 1042 665 q 694 868 838 868 q 449 766 551 868 q 347 521 347 665 q 449 275 347 377 q 694 174 551 174 z "},"":{"ha":1389,"x_min":73,"x_max":1324,"o":"m 768 -174 q 420 -80 581 -174 q 167 172 260 14 q 73 521 73 331 q 277 1012 73 808 q 768 1215 480 1215 q 895 1204 833 1215 q 921 1177 917 1199 q 906 1142 925 1156 q 704 944 779 1072 q 629 670 629 817 q 827 251 629 415 q 1278 136 1025 87 q 1310 121 1299 141 q 1308 84 1321 100 q 1158 -54 1242 3 q 974 -142 1074 -111 q 768 -174 873 -174 z "},"":{"ha":1389,"x_min":0,"x_max":1389,"o":"m 87 0 l 87 781 l 1302 781 l 1302 0 q 1276 -61 1302 -35 q 1215 -87 1251 -87 l 174 -87 q 113 -61 138 -87 q 87 0 87 -35 m 521 575 l 521 553 q 553 521 521 521 l 836 521 q 868 553 868 521 l 868 575 q 836 608 868 608 l 553 608 q 521 575 521 608 m 1302 1128 q 1363 1103 1337 1128 q 1389 1042 1389 1077 l 1389 911 q 1377 880 1389 892 q 1345 868 1364 868 l 43 868 q 12 880 24 868 q 0 911 0 892 l 0 1042 q 26 1103 0 1077 q 87 1128 52 1128 l 1302 1128 z "},"":{"ha":1389,"x_min":-3,"x_max":1392,"o":"m 1389 431 q 1362 372 1389 396 q 1299 347 1335 347 l 1150 347 l 1150 304 q 1112 138 1150 217 l 1278 -24 q 1302 -87 1302 -52 q 1276 -148 1302 -122 q 1215 -174 1251 -174 q 1153 -149 1180 -174 l 1006 0 q 760 -87 898 -87 l 760 575 q 727 608 760 608 l 662 608 q 629 575 629 608 l 629 -87 q 382 0 491 -87 l 236 -149 q 174 -174 209 -174 q 113 -148 138 -174 q 87 -87 87 -122 q 111 -24 87 -52 l 277 138 q 239 304 239 217 l 239 347 l 90 347 q 27 372 54 347 q 0 431 0 396 q 26 495 0 469 q 87 521 52 521 l 239 521 l 239 681 l 111 806 q 87 868 87 833 q 113 929 87 903 q 174 955 138 955 q 236 930 209 955 l 382 781 l 1006 781 l 1153 930 q 1215 955 1180 955 q 1276 929 1251 955 q 1302 868 1302 903 q 1278 806 1302 833 l 1150 681 l 1150 521 l 1302 521 q 1363 495 1337 521 q 1389 431 1389 469 m 483 1126 q 528 1171 483 1126 q 697 1215 572 1215 q 911 1126 822 1215 q 1001 911 1001 1036 l 393 911 q 483 1126 393 1036 z "},"":{"ha":1215,"x_min":0,"x_max":1215,"o":"m 1085 -87 l 130 -87 q 38 -49 76 -87 q 0 43 0 -11 l 0 998 q 38 1090 0 1053 q 130 1128 76 1128 l 1085 1128 q 1177 1090 1139 1128 q 1215 998 1215 1053 l 1215 43 q 1177 -49 1215 -11 q 1085 -87 1139 -87 m 705 879 l 369 543 q 369 499 347 521 l 705 163 q 739 157 719 149 q 760 187 760 165 l 760 854 q 739 884 760 876 q 705 879 719 892 z "},"":{"ha":1389,"x_min":22,"x_max":1367,"o":"m 218 997 q 317 1095 218 997 q 694 1194 415 1194 q 1171 997 974 1194 q 1367 521 1367 800 q 1171 45 1367 241 q 694 -152 974 -152 q 218 45 415 -152 q 22 521 22 241 q 218 997 22 800 m 848 368 q 880 399 848 368 q 911 521 911 431 q 848 674 911 610 q 694 738 784 738 q 541 674 605 738 q 477 521 477 610 q 541 368 477 431 q 694 304 605 304 q 848 368 784 304 z "},"":{"ha":1389,"x_min":0,"x_max":1394,"o":"m 1345 168 l 1383 92 q 1386 58 1392 76 q 1364 33 1381 41 l 1188 -57 q 1120 -61 1156 -73 q 1069 -16 1085 -49 l 901 347 l 521 347 q 464 369 488 347 q 434 420 439 391 q 347 1042 347 1031 q 372 1131 347 1090 q 438 1195 396 1172 q 529 1215 480 1218 q 644 1164 597 1213 q 694 1047 692 1115 q 675 964 694 1004 q 623 901 656 925 q 545 871 589 876 l 559 781 l 911 781 q 943 769 930 781 q 955 738 955 757 l 955 651 q 943 620 955 632 q 911 608 930 608 l 583 608 l 597 521 l 955 521 q 1000 506 977 521 q 1034 472 1023 491 l 1188 138 l 1289 190 q 1321 190 1305 195 q 1345 168 1337 184 m 844 260 l 914 111 q 739 -95 857 -16 q 477 -174 621 -174 q 140 -34 279 -174 q 0 304 0 106 q 83 574 0 453 q 301 746 165 694 q 326 567 312 673 q 216 457 258 526 q 174 304 174 388 q 263 90 174 179 q 477 0 353 0 q 677 75 591 0 q 779 260 762 149 l 844 260 z "},"":{"ha":1042,"x_min":0,"x_max":1044,"o":"m 1009 521 q 1032 511 1023 521 q 1042 488 1042 502 q 864 65 1031 217 q 423 -87 697 -87 l 206 -87 q 174 -54 174 -87 l 174 469 l 41 439 q 12 446 24 437 q 0 472 0 456 l 0 583 q 24 616 0 610 l 174 648 l 174 730 l 41 700 q 12 707 24 697 q 0 732 0 716 l 0 844 q 24 876 0 871 l 174 909 l 174 1096 q 206 1128 174 1128 l 358 1128 q 391 1096 391 1128 l 391 958 l 741 1036 q 769 1029 757 1039 q 781 1004 781 1020 l 781 892 q 757 860 781 865 l 391 779 l 391 697 l 741 776 q 769 769 757 779 q 781 743 781 760 l 781 632 q 757 600 781 605 l 391 518 l 391 87 q 713 191 581 87 q 846 491 846 296 q 856 511 846 502 q 879 521 865 521 l 1009 521 z "},"":{"ha":1736,"x_min":0,"x_max":1736,"o":"m 1609 651 q 1736 521 1736 591 q 1609 391 1736 450 q 1280 326 1468 326 l 505 326 q 461 282 486 298 l 1020 282 q 822 213 911 260 q 674 117 732 165 q 559 20 616 68 q 427 -57 502 -27 q 260 -87 353 -87 l 260 260 l 217 260 l 217 -87 q 125 -37 163 -87 q 87 87 87 14 l 87 260 q 0 326 0 260 l 0 434 q 87 499 0 499 l 87 543 q 0 608 0 543 l 0 716 q 87 781 0 781 l 87 955 q 125 1078 87 1028 q 217 1128 163 1128 l 217 781 l 260 781 l 260 1128 q 427 1099 353 1128 q 559 1021 502 1069 q 674 925 616 974 q 822 829 732 876 q 1020 760 911 781 l 461 760 q 505 716 486 743 l 1280 716 q 1609 651 1468 716 m 1324 412 q 1381 467 1364 412 q 1381 575 1397 521 q 1324 629 1364 629 q 1302 608 1302 629 l 1302 434 q 1324 412 1302 412 z "},"":{"ha":1215,"x_min":0,"x_max":1215,"o":"m 1085 1128 q 1177 1090 1139 1128 q 1215 998 1215 1053 l 1215 43 q 1177 -49 1215 -11 q 1085 -87 1139 -87 l 130 -87 q 38 -49 76 -87 q 0 43 0 -11 l 0 998 q 38 1090 0 1053 q 130 1128 76 1128 l 1085 1128 m 483 505 q 509 486 486 505 q 543 460 532 467 q 574 444 553 453 q 608 434 594 434 q 642 444 621 434 q 673 460 662 453 q 707 486 684 467 q 732 505 730 505 q 1042 735 933 648 l 1042 803 q 1023 849 1042 830 q 977 868 1004 868 l 239 868 q 193 849 212 868 q 174 803 174 830 l 174 735 q 483 505 282 648 m 1042 624 q 784 434 982 578 q 760 415 781 431 q 726 391 738 399 q 692 370 713 382 q 650 353 670 358 q 608 347 629 347 q 566 353 586 347 q 524 370 545 358 q 491 391 502 382 q 457 415 480 399 q 431 434 434 431 q 174 624 233 578 l 174 239 q 193 193 174 212 q 239 174 212 174 l 977 174 q 1023 193 1004 174 q 1042 239 1042 212 l 1042 624 z "},"":{"ha":1389,"x_min":43,"x_max":1345,"o":"m 1345 868 l 1345 825 q 1324 803 1345 803 l 1259 803 l 1259 770 q 1226 738 1259 738 l 163 738 q 130 770 130 738 l 130 803 l 65 803 q 43 825 43 803 l 43 868 q 57 887 43 882 l 686 1126 q 694 1128 689 1128 q 703 1126 700 1128 l 1332 887 q 1345 868 1345 882 m 1280 43 q 1326 24 1308 43 q 1345 -22 1345 5 l 1345 -65 q 1324 -87 1345 -87 l 65 -87 q 43 -65 43 -87 l 43 -22 q 62 24 43 5 q 109 43 81 43 l 1280 43 m 260 694 l 434 694 l 434 174 l 608 174 l 608 694 l 781 694 l 781 174 l 955 174 l 955 694 l 1128 694 l 1128 174 l 1226 174 q 1259 141 1259 174 l 1259 87 l 130 87 l 130 141 q 163 174 130 174 l 260 174 l 260 694 z "},"":{"ha":1736,"x_min":0,"x_max":1739,"o":"m 1687 800 q 1736 738 1736 784 q 1687 675 1736 692 l 930 445 q 806 445 868 423 l 274 608 q 217 507 222 570 q 260 434 260 480 q 222 363 260 391 l 293 52 q 283 16 296 33 q 250 0 271 0 l 98 0 q 64 16 76 0 q 54 52 52 33 l 125 363 q 87 434 87 391 q 130 507 87 483 q 179 635 133 578 l 49 675 q 0 738 0 692 q 49 800 0 784 l 806 1031 q 930 1031 868 1053 l 1687 800 m 958 361 l 1351 480 l 1389 174 q 1237 50 1389 100 q 868 0 1085 0 q 499 50 651 0 q 347 174 347 100 l 385 480 l 779 361 q 958 361 868 334 z "},"":{"ha":1736,"x_min":0,"x_max":1736,"o":"m 412 575 l 442 472 l 339 472 l 369 575 l 391 665 q 412 575 404 608 m 1671 955 q 1717 936 1698 955 q 1736 890 1736 917 l 1736 152 q 1717 106 1736 125 q 1671 87 1698 87 l 911 87 l 911 955 l 1671 955 m 1606 629 l 1606 673 q 1573 705 1606 705 l 1400 705 l 1400 749 q 1367 781 1400 781 l 1324 781 q 1291 749 1291 781 l 1291 705 l 1118 705 q 1085 673 1085 705 l 1085 629 q 1118 597 1085 597 l 1427 597 q 1345 480 1402 540 q 1299 537 1321 507 q 1256 545 1280 562 l 1237 534 l 1218 524 q 1207 477 1188 505 q 1264 407 1234 442 q 1194 358 1232 382 q 1183 315 1166 342 l 1204 277 q 1251 266 1221 247 q 1345 334 1299 296 q 1443 266 1389 298 q 1487 277 1470 247 l 1508 315 q 1497 358 1525 342 q 1427 407 1462 380 q 1544 597 1514 502 l 1573 597 q 1606 629 1606 597 m 0 890 q 19 936 0 917 q 65 955 38 955 l 825 955 l 825 87 l 65 87 q 19 106 38 87 q 0 152 0 125 l 0 890 m 160 304 q 160 283 157 293 q 171 267 163 274 q 190 260 179 260 l 252 260 q 285 285 277 260 l 309 369 l 472 369 l 496 285 q 529 260 505 260 l 591 260 q 617 274 608 260 q 621 304 627 288 l 467 762 q 434 784 458 784 l 347 784 q 315 762 323 784 l 160 304 z "},"":{"ha":1389,"x_min":0,"x_max":1389,"o":"m 174 868 q 235 842 209 868 q 260 781 260 817 l 260 -87 q 235 -148 260 -122 q 174 -174 209 -174 l 87 -174 q 26 -148 52 -174 q 0 -87 0 -122 l 0 781 q 26 842 0 817 q 87 868 52 868 l 174 868 m 1302 781 q 1363 755 1337 781 q 1389 694 1389 730 l 1389 -87 q 1363 -148 1389 -122 q 1302 -174 1337 -174 l 434 -174 q 373 -148 399 -174 q 347 -87 347 -122 l 347 1128 q 373 1190 347 1164 q 434 1215 399 1215 l 1093 1215 q 1153 1191 1128 1215 l 1278 1066 q 1302 1006 1302 1042 l 1302 781 m 781 43 l 781 130 q 769 161 781 149 q 738 174 757 174 l 651 174 q 620 161 632 174 q 608 130 608 149 l 608 43 q 620 12 608 24 q 651 0 632 0 l 738 0 q 769 12 757 0 q 781 43 781 24 m 781 391 l 781 477 q 769 509 781 496 q 738 521 757 521 l 651 521 q 620 509 632 521 q 608 477 608 496 l 608 391 q 620 359 608 372 q 651 347 632 347 l 738 347 q 769 359 757 347 q 781 391 781 372 m 1128 43 l 1128 130 q 1116 161 1128 149 q 1085 174 1104 174 l 998 174 q 967 161 979 174 q 955 130 955 149 l 955 43 q 967 12 955 24 q 998 0 979 0 l 1085 0 q 1116 12 1104 0 q 1128 43 1128 24 m 1128 391 l 1128 477 q 1116 509 1128 496 q 1085 521 1104 521 l 998 521 q 967 509 979 521 q 955 477 955 496 l 955 391 q 967 359 955 372 q 998 347 979 347 l 1085 347 q 1116 359 1104 347 q 1128 391 1128 372 m 1172 694 l 1172 955 l 1085 955 q 1054 967 1066 955 q 1042 998 1042 979 l 1042 1085 l 477 1085 l 477 694 l 1172 694 z "},"":{"ha":1215,"x_min":0,"x_max":1215,"o":"m 1183 -87 q 1215 -119 1215 -87 l 1215 -174 l 0 -174 l 0 -119 q 33 -87 0 -87 l 87 -87 l 87 1150 q 106 1196 87 1177 q 152 1215 125 1215 l 1063 1215 q 1109 1196 1090 1215 q 1128 1150 1128 1177 l 1128 -87 l 1183 -87 m 347 1009 l 347 901 q 380 868 347 868 l 488 868 q 521 901 521 868 l 521 1009 q 488 1042 521 1042 l 380 1042 q 347 1009 347 1042 m 347 749 l 347 640 q 380 608 347 608 l 488 608 q 521 640 521 608 l 521 749 q 488 781 521 781 l 380 781 q 347 749 347 781 m 488 347 q 521 380 521 347 l 521 488 q 488 521 521 521 l 380 521 q 347 488 347 521 l 347 380 q 380 347 347 347 l 488 347 m 694 -87 l 694 141 q 662 174 694 174 l 553 174 q 521 141 521 174 l 521 -87 l 694 -87 m 868 380 l 868 488 q 836 521 868 521 l 727 521 q 694 488 694 521 l 694 380 q 727 347 694 347 l 836 347 q 868 380 868 347 m 868 640 l 868 749 q 836 781 868 781 l 727 781 q 694 749 694 781 l 694 640 q 727 608 694 608 l 836 608 q 868 640 868 608 m 868 901 l 868 1009 q 836 1042 868 1042 l 727 1042 q 694 1009 694 1042 l 694 901 q 727 868 694 868 l 836 868 q 868 901 868 868 z "},"":{"ha":1042,"x_min":0,"x_max":1042,"o":"m 382 882 q 354 910 382 882 q 326 1020 326 939 q 382 1158 326 1101 q 521 1215 439 1215 q 659 1158 602 1215 q 716 1020 716 1101 q 659 882 716 939 q 521 825 602 825 q 382 882 439 825 m 955 1042 q 972 1042 955 1042 q 1016 1016 990 1042 q 1042 955 1042 990 q 1017 892 1042 920 l 760 637 l 760 -87 q 734 -148 760 -122 q 673 -174 708 -174 l 629 -174 q 568 -148 594 -174 q 543 -87 543 -122 l 543 217 l 499 217 l 499 -87 q 473 -148 499 -122 q 412 -174 448 -174 l 369 -174 q 308 -148 334 -174 q 282 -87 282 -122 l 282 637 l 24 892 q 0 955 0 920 q 26 1016 0 990 q 87 1042 52 1042 q 149 1017 122 1042 l 382 781 l 659 781 l 892 1017 q 955 1042 920 1042 z "},"":{"ha":1389,"x_min":-14,"x_max":1402,"o":"m 467 517 q 529 562 467 517 q 694 608 591 608 q 922 517 798 608 q 1131 297 1047 426 q 1215 65 1215 168 q 1164 -46 1215 -5 q 1020 -87 1112 -87 q 849 -53 952 -87 q 694 -19 746 -19 q 541 -53 646 -19 q 369 -87 437 -87 q 225 -46 277 -87 q 174 65 174 -5 q 258 297 174 168 q 467 517 342 426 m 217 753 q 245 733 217 753 q 296 643 274 713 q 290 511 317 572 q 203 437 263 450 q 125 444 165 429 q 53 492 84 458 q 8 572 22 526 q 14 704 -14 643 q 100 779 41 765 q 217 753 160 792 m 616 788 q 602 751 616 788 q 525 697 589 713 q 400 732 461 681 q 315 872 339 784 q 317 1035 290 960 q 410 1126 345 1109 q 492 1116 450 1137 q 568 1053 534 1096 q 618 952 602 1009 q 616 788 643 863 m 1289 779 q 1375 704 1348 765 q 1381 572 1402 643 q 1302 463 1359 502 q 1185 437 1245 423 q 1099 511 1126 450 q 1093 643 1072 572 q 1138 723 1107 689 q 1210 772 1169 757 q 1289 779 1251 787 m 865 697 q 773 788 800 713 q 770 951 746 863 q 856 1090 795 1039 q 981 1126 917 1142 q 1072 1035 1044 1109 q 1074 871 1099 960 q 1040 791 1063 827 q 989 731 1017 754 q 928 699 960 708 q 865 697 895 689 z "},"":{"ha":1389,"x_min":0,"x_max":1389,"o":"m 648 1199 q 741 1199 694 1215 l 1305 987 q 1366 939 1343 971 q 1389 865 1389 906 l 1389 255 q 1316 138 1389 174 l 751 -144 q 635 -144 694 -174 l 71 138 q 0 255 0 174 l 0 865 q 23 939 0 906 q 84 987 46 971 l 648 1199 m 694 1031 l 174 836 l 174 830 l 694 618 l 1215 830 l 1215 836 l 694 1031 m 781 65 l 1215 282 l 1215 646 l 781 467 l 781 65 z "},"":{"ha":1389,"x_min":0,"x_max":1389,"o":"m 1326 537 q 1389 445 1389 513 l 1389 146 q 1335 60 1389 87 l 1063 -76 q 977 -76 1020 -98 l 694 65 l 412 -76 q 326 -76 369 -98 l 54 60 q 0 146 0 87 l 0 445 q 62 537 0 513 l 326 635 l 326 928 q 388 1020 326 996 l 659 1123 q 730 1123 694 1137 l 1001 1020 q 1063 928 1063 996 l 1063 635 l 1326 537 m 971 632 l 971 830 l 741 732 l 741 545 l 971 632 m 418 933 l 418 930 l 694 819 l 971 930 l 971 933 l 694 1036 l 418 933 m 646 144 l 646 347 l 415 241 l 415 27 l 646 144 m 646 448 l 369 553 l 92 448 l 369 334 l 646 448 m 1297 144 l 1297 347 l 1066 241 l 1066 27 l 1297 144 m 1297 448 l 1020 553 l 743 448 l 1020 334 l 1297 448 z "},"":{"ha":1389,"x_min":-11,"x_max":1389,"o":"m 502 505 q 483 460 507 477 q 434 458 458 442 l 326 526 l 187 307 q 184 218 160 263 q 260 174 209 174 l 401 174 q 434 141 434 174 l 434 33 q 401 0 434 0 l 260 0 q 90 65 163 0 q 4 218 16 130 q 41 399 -8 307 l 179 618 l 68 689 q 47 731 43 703 q 81 768 52 760 l 380 836 q 412 831 396 841 q 431 803 429 822 l 502 505 m 768 1001 q 694 1042 743 1042 q 621 1001 646 1042 l 572 922 q 526 911 556 895 l 434 971 q 426 1015 407 987 l 475 1093 q 694 1215 551 1215 q 914 1093 838 1215 l 1028 914 l 1137 982 q 1185 981 1161 998 q 1202 936 1210 963 l 1134 637 q 1114 609 1128 618 q 1082 605 1099 600 l 784 673 q 750 709 754 681 q 770 751 746 738 l 879 822 l 768 1001 m 1348 399 q 1389 264 1389 336 q 1356 134 1389 193 q 1263 38 1324 76 q 1128 0 1202 0 l 868 0 l 868 -130 q 841 -171 868 -160 q 795 -160 814 -182 l 578 57 q 578 117 545 87 l 795 334 q 841 345 814 355 q 868 304 868 334 l 868 174 l 1128 174 q 1204 218 1180 174 q 1202 307 1229 263 l 1128 426 q 1137 472 1109 453 l 1229 529 q 1275 518 1256 545 l 1348 399 z "},"":{"ha":1389,"x_min":-5,"x_max":1394,"o":"m 1356 738 q 1382 726 1373 738 q 1389 697 1392 713 l 1373 632 q 1340 608 1364 608 l 1286 608 q 1345 477 1345 556 l 1345 347 q 1302 233 1345 282 l 1302 87 q 1276 26 1302 52 q 1215 0 1251 0 l 1128 0 q 1067 26 1093 0 q 1042 87 1042 52 l 1042 174 l 347 174 l 347 87 q 321 26 347 52 q 260 0 296 0 l 174 0 q 113 26 138 0 q 87 87 87 52 l 87 233 q 43 347 43 282 l 43 477 q 103 608 43 556 l 49 608 q 16 632 24 608 l 0 697 q 7 726 -3 713 q 33 738 16 738 l 195 738 l 241 852 q 286 929 258 892 q 351 990 315 966 q 431 1028 388 1015 q 521 1042 475 1042 l 868 1042 q 1038 990 960 1042 q 1147 852 1115 939 l 1194 738 l 1356 738 m 401 787 l 347 651 l 1042 651 l 987 787 q 940 845 974 822 q 868 868 906 868 l 521 868 q 449 845 483 868 q 401 787 415 822 m 260 347 q 283 347 266 347 q 309 347 301 347 q 332 349 317 347 q 355 353 347 350 q 373 359 363 355 q 387 372 382 363 q 391 391 391 380 q 345 476 391 431 q 260 521 298 521 q 198 496 222 521 q 174 434 174 472 q 198 372 174 396 q 260 347 222 347 m 1128 347 q 1191 372 1166 347 q 1215 434 1215 396 q 1191 496 1215 472 q 1128 521 1166 521 q 1073 499 1104 521 q 1020 446 1042 477 q 998 391 998 415 q 1002 372 998 380 q 1016 359 1006 363 q 1034 353 1025 355 q 1057 349 1042 350 q 1080 347 1072 347 q 1105 347 1088 347 q 1128 347 1123 347 z "},"":{"ha":1389,"x_min":0,"x_max":1389,"o":"m 1253 559 q 1351 500 1313 548 q 1389 391 1389 453 l 1389 260 q 1302 111 1389 163 l 1302 0 q 1276 -61 1302 -35 q 1215 -87 1251 -87 l 1128 -87 q 1067 -61 1093 -87 q 1042 0 1042 -35 l 1042 87 l 347 87 l 347 0 q 321 -61 347 -35 q 260 -87 296 -87 l 174 -87 q 113 -61 138 -87 q 87 0 87 -35 l 87 111 q 0 260 0 160 l 0 391 q 38 500 0 453 q 136 559 76 548 l 195 789 q 273 909 214 863 q 404 955 331 955 l 434 955 l 434 1042 q 460 1103 434 1077 q 521 1128 486 1128 l 868 1128 q 929 1103 903 1128 q 955 1042 955 1077 l 955 955 l 985 955 q 1116 909 1058 955 q 1194 789 1175 863 l 1253 559 m 199 286 q 212 273 199 286 q 260 260 225 260 q 321 286 296 260 q 347 347 347 312 q 321 408 347 382 q 260 434 296 434 q 199 408 225 434 q 174 347 174 382 q 199 286 174 312 m 317 564 l 1072 564 l 1025 746 q 1009 770 1023 760 q 985 781 996 781 l 404 781 q 363 743 372 781 l 317 564 m 1067 286 q 1080 273 1067 286 q 1128 260 1093 260 q 1190 286 1164 260 q 1215 347 1215 312 q 1190 408 1215 382 q 1128 434 1164 434 q 1067 408 1093 434 q 1042 347 1042 382 q 1067 286 1042 312 z "},"":{"ha":1042,"x_min":-14,"x_max":1055,"o":"m 1025 190 q 1036 123 1053 160 q 979 87 1020 87 l 608 87 l 608 22 l 689 -111 q 688 -153 700 -133 q 651 -174 675 -174 l 391 -174 q 354 -153 366 -174 q 353 -111 342 -133 l 434 22 l 434 87 l 62 87 q 5 123 22 87 q 16 190 -11 160 l 233 434 l 149 434 q 92 469 109 434 q 100 534 76 505 l 315 781 l 236 781 q 179 819 195 781 q 190 884 163 854 l 488 1202 q 505 1213 496 1210 q 521 1215 513 1215 q 537 1213 529 1215 q 553 1202 545 1210 l 852 884 q 863 819 879 854 q 806 781 846 781 l 727 781 l 941 534 q 949 469 966 505 q 892 434 933 434 l 808 434 l 1025 190 z "},"":{"ha":1215,"x_min":0,"x_max":1215,"o":"m 1215 1017 l 1215 892 q 1038 753 1215 811 q 608 694 860 694 q 302 722 442 694 q 81 793 163 749 q 0 892 0 838 l 0 1017 q 178 1157 0 1099 q 608 1215 355 1215 q 913 1188 773 1215 q 1134 1116 1053 1161 q 1215 1017 1215 1072 m 1215 738 l 1215 458 q 1038 319 1215 377 q 608 260 860 260 q 178 319 355 260 q 0 458 0 377 l 0 738 q 608 605 193 605 q 1215 738 1023 605 m 1215 304 l 1215 24 q 1038 -115 1215 -57 q 608 -174 860 -174 q 178 -115 355 -174 q 0 24 0 -57 l 0 304 q 608 171 193 171 q 1215 304 1023 171 z "},"":{"ha":1042,"x_min":0,"x_max":1042,"o":"m 494 521 q 486 571 488 540 q 483 625 483 602 q 488 648 483 648 q 505 594 505 648 q 494 521 505 540 m 488 393 q 583 282 526 323 q 412 222 551 277 q 488 393 448 288 m 233 54 q 328 163 244 84 q 296 115 312 136 q 269 83 279 95 q 250 64 258 71 q 237 56 241 57 q 233 54 233 54 m 673 781 l 1042 781 l 1042 -109 q 1023 -155 1042 -136 q 977 -174 1004 -174 l 65 -174 q 19 -155 38 -174 q 0 -109 0 -136 l 0 1150 q 19 1196 0 1177 q 65 1215 38 1215 l 608 1215 l 608 846 q 627 800 608 819 q 673 781 646 781 m 651 315 q 534 461 572 363 q 553 635 567 589 q 517 688 545 673 q 458 692 488 703 q 423 654 429 681 q 445 445 407 594 q 334 212 382 298 q 203 122 255 174 q 184 27 152 71 q 244 0 206 0 q 410 168 312 0 q 624 231 578 222 q 798 179 722 179 q 865 225 852 179 q 852 296 879 271 q 651 315 808 336 m 1023 930 q 1042 884 1042 911 l 1042 868 l 694 868 l 694 1215 l 711 1215 q 757 1196 738 1215 l 1023 930 m 822 239 q 705 263 806 220 q 822 239 822 266 z "},"":{"ha":1042,"x_min":0,"x_max":1042,"o":"m 608 846 q 627 800 608 819 q 673 781 646 781 l 1042 781 l 1042 -109 q 1023 -155 1042 -136 q 977 -174 1004 -174 l 65 -174 q 19 -155 38 -174 q 0 -109 0 -136 l 0 1150 q 19 1196 0 1177 q 65 1215 38 1215 l 608 1215 l 608 846 m 762 521 q 732 494 735 521 q 673 144 673 220 q 591 496 667 184 q 562 521 586 521 l 483 521 q 450 496 456 521 q 369 163 374 184 q 315 494 366 236 q 282 521 309 521 l 214 521 q 189 509 198 521 q 184 480 179 496 l 285 24 q 317 0 290 0 l 418 0 q 450 24 442 0 q 518 326 515 293 l 521 326 q 589 24 532 263 q 621 0 597 0 l 724 0 q 757 24 751 0 l 860 480 q 859 500 863 491 q 846 515 854 510 q 827 521 838 521 l 762 521 m 1042 884 l 1042 868 l 694 868 l 694 1215 l 711 1215 q 757 1196 738 1215 l 1023 930 q 1042 884 1042 911 z "},"":{"ha":1042,"x_min":0,"x_max":1042,"o":"m 608 846 q 627 800 608 819 q 673 781 646 781 l 1042 781 l 1042 -109 q 1023 -155 1042 -136 q 977 -174 1004 -174 l 65 -174 q 19 -155 38 -174 q 0 -109 0 -136 l 0 1150 q 19 1196 0 1177 q 65 1215 38 1215 l 608 1215 l 608 846 m 770 559 q 772 591 781 575 q 743 608 762 608 l 648 608 q 621 591 629 608 l 521 404 q 420 591 521 407 q 393 608 412 608 l 298 608 q 270 590 279 608 q 271 556 260 572 l 434 304 l 271 49 q 270 16 260 33 q 298 0 279 0 l 393 0 q 420 16 412 0 q 521 203 513 182 q 618 16 567 114 q 648 0 629 0 l 743 0 q 772 16 762 0 q 770 49 781 33 l 608 304 l 770 559 m 1042 884 l 1042 868 l 694 868 l 694 1215 l 711 1215 q 757 1196 738 1215 l 1023 930 q 1042 884 1042 911 z "},"":{"ha":1042,"x_min":0,"x_max":1042,"o":"m 526 480 q 581 457 562 480 q 600 397 600 434 q 579 338 600 361 q 524 315 559 315 l 450 315 l 450 480 l 526 480 m 1023 930 q 1042 884 1042 911 l 1042 868 l 694 868 l 694 1215 l 711 1215 q 757 1196 738 1215 l 1023 930 m 608 846 q 627 800 608 819 q 673 781 646 781 l 1042 781 l 1042 -109 q 1023 -155 1042 -136 q 977 -174 1004 -174 l 65 -174 q 19 -155 38 -174 q 0 -109 0 -136 l 0 1150 q 19 1196 0 1177 q 65 1215 38 1215 l 608 1215 l 608 846 m 751 399 q 697 548 751 488 q 553 608 643 608 l 334 608 q 321 605 328 608 q 311 598 315 602 q 304 587 307 594 q 301 575 301 581 l 301 33 q 311 9 301 19 q 334 0 320 0 l 418 0 q 441 9 431 0 q 450 33 450 19 l 450 187 q 480 187 453 187 q 524 187 507 187 q 571 190 540 187 q 624 201 602 193 q 671 224 646 209 q 713 262 697 239 q 741 319 730 285 q 751 399 751 353 z "},"":{"ha":1042,"x_min":0,"x_max":1042,"o":"m 1042 884 l 1042 868 l 694 868 l 694 1215 l 711 1215 q 757 1196 738 1215 l 1023 930 q 1042 884 1042 911 m 673 781 l 1042 781 l 1042 -109 q 1023 -155 1042 -136 q 977 -174 1004 -174 l 65 -174 q 19 -155 38 -174 q 0 -109 0 -136 l 0 1150 q 19 1196 0 1177 q 65 1215 38 1215 l 608 1215 l 608 846 q 627 800 608 819 q 673 781 646 781 m 397 700 q 378 719 397 700 q 305 738 358 738 q 214 700 252 738 q 176 608 176 662 q 214 515 176 553 q 305 477 252 477 q 397 515 358 477 q 437 608 437 553 q 397 700 437 662 m 871 87 l 871 391 l 762 499 q 716 499 741 521 l 437 217 l 328 326 q 285 326 307 347 l 176 217 l 176 87 l 871 87 z "}}}
